<?xml version="1.0" encoding="UTF-8"?>
<!-- Created with Grafika (https://www.grafika.cc/) -->
<svg xmlns="http://www.w3.org/2000/svg" xmlns:svg="http://www.w3.org/2000/svg" xmlns:xlink="http://www.w3.org/1999/xlink" width="1018.63" height="2048" viewBox="0 0 1016.9 2044.39" preserveAspectRatio="xMidYMid meet">
	<defs>
		<mask id="mask_1" mask-type="alpha">
			<path d="M-510,-1023 L510,-1023 L510,1023 L-510,1023 L-510,-1023 Z" fill-rule="evenodd" style="fill:white;" />
		</mask>
	</defs>
	<g transform="matrix(1, 0, 0, 1, 508.001953125, 1021.6699829101562)">
		<g mask="url(#mask_1)">
			<path d="M7.49,1021.07 C-56.98,1013.29 -127.81,982.69 -155.07,950.85 C-167.46,936.37 -181.45,904.9 -192.27,867.15 C-194.63,858.91 -197.75,849.47 -199.19,846.17 C-202.98,837.53 -209.59,815.98 -212.36,803.21 C-213.67,797.17 -217.29,783.68 -220.41,773.24 C-226.83,751.73 -233.19,724.01 -243.34,673.34 C-247.2,654.11 -251.22,635.64 -252.28,632.3 C-257.44,616.04 -279.28,465.95 -282.21,426.58 C-283.2,413.4 -284.87,397.21 -285.94,390.62 C-287.91,378.43 -291.6,301.93 -292.93,245.76 C-293.58,217.96 -293.38,215.46 -290.9,221.38 C-288.07,228.11 -284.22,228.42 -284.22,221.91 C-284.22,217.83 -288.87,213.12 -290.9,215.14 C-291.62,215.86 -292.21,215.63 -292.21,214.62 C-292.2,213.62 -289.44,210.99 -286.06,208.8 C-280.39,205.1 -280.01,204.15 -281.05,196.19 C-282.98,181.48 -273.96,165.82 -261.45,162.13 C-240.55,155.97 -232.75,155.22 -224.4,158.56 C-213.87,162.78 -190.79,162.91 -183.05,158.81 C-179.15,156.74 -172.22,155.85 -161.34,156.02 C-145.69,156.27 -145.04,156.08 -130.15,147.07 C-121.79,142.01 -112.8,137.94 -110.17,138.04 C-105.63,138.2 -105.67,138.29 -110.88,139.86 C-123.29,143.59 -152.95,170.03 -149.08,173.9 C-147.65,175.34 -145.21,175.25 -141.19,173.61 C-137.46,172.1 -124.25,171.35 -104.4,171.52 C-84.23,171.7 -74.47,171.13 -76.41,169.9 C-79.02,168.24 -78.96,167.29 -75.96,162.21 C-74.07,159.02 -73.11,155.83 -73.81,155.13 C-74.52,154.43 -73.93,153.85 -72.52,153.85 C-70.61,153.85 -70.51,153.17 -72.14,151.2 C-73.74,149.27 -73.7,147.93 -71.98,146.21 C-70.18,144.41 -70.22,143.86 -72.15,143.86 C-73.53,143.86 -74.11,142.96 -73.43,141.86 C-72.75,140.76 -73.59,139.86 -75.31,139.86 C-77.02,139.86 -78.42,138.83 -78.42,137.58 C-78.42,135.97 -82.72,135.62 -92.91,136.41 C-101.52,137.07 -105.37,136.87 -102.4,135.9 C-87.08,130.9 -72.75,133.41 -62.64,142.86 C-57.36,147.81 -52.32,151.85 -51.44,151.85 C-48.5,151.85 -53.34,47 -58.55,-2 C-59.66,-12.44 -61,-26.82 -61.53,-33.97 C-64.43,-72.78 -75.07,-97.67 -90.27,-101.2 C-93.09,-101.85 -100.5,-106.33 -106.73,-111.14 C-115.86,-118.19 -119.62,-119.88 -126.21,-119.88 C-135.43,-119.88 -137.62,-124.88 -130.37,-129.41 C-128.17,-130.78 -126.38,-132.79 -126.38,-133.86 C-126.38,-136.05 -143.47,-159.06 -146.47,-160.92 C-147.53,-161.57 -153.46,-168.56 -159.66,-176.46 C-176.85,-198.37 -187.84,-208.98 -202.97,-218.28 C-233.7,-237.18 -231.53,-247.71 -200.2,-231.72 C-189.88,-226.45 -189.23,-226.71 -194.67,-233.91 C-210.25,-254.55 -224.96,-276.33 -230.33,-286.72 C-233.73,-293.31 -238.98,-301.41 -241.99,-304.7 C-245.01,-308 -250.92,-315.04 -255.13,-320.36 C-259.34,-325.67 -267.38,-333.63 -273,-338.04 C-278.62,-342.46 -289.11,-351.6 -296.31,-358.35 C-303.5,-365.11 -317.73,-378.28 -327.92,-387.62 C-338.11,-396.96 -364.26,-424.39 -386.03,-448.56 C-407.8,-472.74 -442.89,-508.7 -464.01,-528.48 C-499.13,-561.38 -508,-571.25 -508,-577.45 C-508,-578.67 -502.9,-574.16 -496.67,-567.43 C-488.42,-558.51 -481.24,-553.19 -470.2,-547.8 C-455.57,-540.66 -446.95,-535.4 -417.09,-515.4 C-401.3,-504.83 -380.13,-492.63 -380.13,-494.12 C-380.13,-494.66 -383.32,-501.82 -387.22,-510.03 C-394.11,-524.56 -403.53,-570.32 -400.07,-572.47 C-396.58,-574.62 -355.1,-550.04 -342.43,-538.31 C-330.24,-527.02 -327.25,-522.58 -313.34,-495.14 C-297.77,-464.41 -275.33,-426.67 -262.27,-409.23 C-258.41,-404.08 -252.15,-393.99 -248.35,-386.82 C-244.56,-379.64 -241.21,-374.02 -240.9,-374.33 C-240.59,-374.64 -237.71,-383.37 -234.5,-393.74 C-223.95,-427.77 -204.27,-461.59 -199.51,-453.89 C-198.95,-452.98 -201.45,-447.81 -205.08,-442.41 C-208.71,-437 -212.19,-430.33 -212.82,-427.58 C-213.44,-424.83 -215.24,-418.08 -216.81,-412.58 C-231.06,-362.64 -192.53,-273.81 -120.92,-191.49 C-116.27,-186.15 -111.17,-179.32 -109.59,-176.31 C-108,-173.3 -101.02,-165.9 -94.06,-159.86 C-87.11,-153.83 -79.78,-146.86 -77.78,-144.38 C-72.81,-138.22 -69,-138.71 -67.47,-145.7 C-66.1,-151.95 -68.42,-157.52 -81.23,-178.71 C-89.7,-192.72 -90.51,-198.35 -83.92,-197.43 C-78.22,-196.64 -78.38,-197.93 -86.81,-221.92 C-93.07,-239.69 -108.71,-268.19 -115.14,-273.53 C-116.67,-274.8 -123.93,-277.1 -131.26,-278.63 C-148.42,-282.22 -167.26,-296.43 -160.45,-300.64 C-159.4,-301.29 -157.57,-299.99 -156.38,-297.76 C-154.68,-294.6 -152.2,-293.71 -145.05,-293.71 C-137.96,-293.71 -133.82,-292.25 -126.64,-287.22 C-114.75,-278.88 -111.6,-278.17 -112.95,-284.14 C-113.52,-286.66 -115.13,-294.78 -116.55,-302.19 C-119.62,-318.34 -126.57,-327.83 -140.1,-334.36 C-145.19,-336.82 -151.98,-341.04 -155.19,-343.74 C-173.05,-358.79 -173.39,-364.8 -156.35,-364.36 C-135.8,-363.84 -94.1,-334.53 -85.17,-314.33 C-79.16,-300.75 -74.43,-300.81 -74.43,-314.47 C-74.43,-325.59 -62.15,-329.88 -51.07,-322.62 C-43.67,-317.77 -48.96,-291.71 -57.34,-291.71 C-62.31,-291.71 -64.87,-279.48 -61.77,-270.59 C-60.26,-266.28 -57.86,-255.12 -56.42,-245.8 C-54.83,-235.44 -50.93,-222.24 -46.4,-211.83 C-42.33,-202.47 -38.42,-193.14 -37.71,-191.11 C-36.83,-188.55 -35.35,-187.83 -32.95,-188.78 C-31.04,-189.54 -24.52,-191.1 -18.48,-192.24 C-12.44,-193.39 -6.24,-194.68 -4.71,-195.12 C-1.28,-196.09 -2.74,-269.26 -6.58,-288.72 C-11.04,-311.3 -18.37,-332.64 -22.57,-335.27 C-24.79,-336.65 -28.3,-340.58 -30.38,-344 C-32.46,-347.41 -40.29,-356.55 -47.8,-364.3 C-55.3,-372.06 -61.44,-379.96 -61.44,-381.86 C-61.44,-383.76 -73.2,-397.75 -87.58,-412.94 C-118.01,-445.09 -127.38,-459.22 -111.28,-448.67 C-102.29,-442.78 -103.55,-446.66 -117.21,-466.92 C-143.36,-505.69 -153.81,-518.56 -187.31,-553.22 C-210.83,-577.55 -224.2,-587.36 -254.25,-602.33 C-284.31,-617.31 -317.64,-644.07 -348.16,-677.74 C-366.96,-698.48 -416.77,-750.53 -432.37,-765.74 C-438.84,-772.05 -448.5,-779.42 -453.83,-782.12 C-466.56,-788.57 -472.12,-795.52 -484.09,-819.91 C-498.17,-848.62 -497.13,-851.19 -479.22,-831.91 C-464.67,-816.25 -457.66,-810.4 -428.41,-789.51 C-405.66,-773.27 -328.18,-738.58 -328.18,-744.63 C-328.18,-744.94 -330.55,-752.17 -333.45,-760.71 C-338.69,-776.12 -342.26,-791.15 -346.17,-814.2 C-351.07,-843.11 -362.15,-879.88 -370.94,-896.43 C-374.64,-903.41 -377.28,-909.11 -376.8,-909.11 C-366.15,-909.11 -334.17,-871.7 -334.17,-859.24 C-334.17,-855.96 -323.69,-835.89 -317.95,-828.19 C-307.19,-813.75 -285.41,-781.06 -274.86,-763.5 C-269.17,-754.02 -258.69,-737.28 -251.59,-726.29 C-244.48,-715.3 -236.67,-702.26 -234.23,-697.32 C-218.91,-666.31 -204.95,-656.28 -207.79,-678.34 L-208.82,-686.33 L-201.39,-679.34 C-191.72,-670.24 -186.88,-660.55 -180.98,-638.49 C-178.33,-628.59 -174.08,-616.87 -171.54,-612.45 C-169,-608.03 -162.61,-596.77 -157.34,-587.43 C-145.4,-566.24 -143.62,-564.19 -133.05,-559.52 C-123.25,-555.18 -118.73,-548.77 -111.17,-528.48 C-101.55,-502.68 -87.14,-479.38 -59.55,-444.98 L-45.45,-427.41 L-44.46,-436.99 C-42.85,-452.36 -37.79,-449.91 -36.12,-432.94 C-35.37,-425.44 -33.32,-417.35 -31.56,-414.96 C-29.79,-412.56 -26.49,-407.68 -24.21,-404.1 C-18.88,-395.72 -16.48,-395.88 -16.48,-404.6 C-16.48,-408.83 -14.97,-413.11 -12.65,-415.43 C-8.88,-419.2 -8.89,-419.44 -13.72,-431.91 C-22.76,-455.25 -26.01,-460.77 -38.76,-474.36 C-59.4,-496.36 -59.24,-504.12 -38.38,-493.48 C-34.03,-491.26 -30.47,-490.02 -30.47,-490.74 C-30.47,-495.39 -47.52,-546.04 -53.29,-558.53 C-69.77,-594.2 -61.5,-615.42 -41.66,-588.39 C-33.15,-576.8 -23.24,-567.42 -21.89,-569.67 C-21.63,-570.1 -18.77,-578.53 -15.53,-588.42 C-6.41,-616.24 10.46,-647.02 14.43,-643.08 C15.14,-642.38 16.54,-636.06 17.53,-629.06 C18.52,-622.05 20.61,-612.72 22.16,-608.32 C29.07,-588.71 25.32,-552.29 14.18,-530.95 C7.12,-517.42 9.02,-468.65 17.78,-438.9 C22.24,-423.72 22.24,-423.72 31.35,-422.59 C51.71,-420.09 52.9,-418.59 53.25,-395.23 C53.47,-380.51 53.44,-380.56 63.59,-378.66 L70.7,-377.32 L68.96,-390.96 C64.57,-425.37 58.49,-444.32 45.31,-464.69 C41,-471.36 37.46,-477.38 37.46,-478.08 C37.46,-478.78 35.18,-482.72 32.39,-486.84 C28.02,-493.27 27.39,-496.14 27.89,-507.25 C28.56,-522.02 32.55,-526.24 34.4,-514.13 C35.82,-504.82 45.71,-484.99 53.62,-475.61 C60.87,-467 60.85,-467.55 53.19,-492.3 C40.29,-533.95 30.14,-593.09 29.48,-630.38 C29.25,-643.57 28.42,-666.95 27.63,-682.33 C25.65,-720.99 26.61,-742.73 31.38,-767.25 C34.35,-782.56 35.46,-796.33 35.49,-818.2 C35.56,-883.55 45.75,-946.66 65.58,-1004.52 C73.29,-1027 74.37,-1027.11 84.29,-1006.43 C102.66,-968.15 118.9,-918.91 121.34,-894.13 C123.35,-873.63 125.93,-860.98 137.15,-816.7 C141.53,-799.39 145.68,-780.96 146.37,-775.74 C147.06,-770.52 149.05,-757.26 150.79,-746.27 C153.99,-726.13 153.57,-642.35 150.1,-606.91 C148.44,-590 150.33,-589.69 162.43,-604.91 C174.37,-619.93 177.65,-626.35 178.13,-635.61 C179.12,-654.91 183.03,-644.9 183.67,-621.39 C184.29,-598.97 167.08,-553.42 150.35,-533.2 C139.16,-519.67 123.92,-466.55 122.95,-437.7 L122.38,-420.85 L130.34,-419.15 C134.72,-418.22 139.14,-416.62 140.16,-415.6 C141.31,-414.45 142.98,-415.04 144.53,-417.16 C149.49,-423.95 149.9,-417.35 145.34,-403.95 C140.46,-389.62 140.89,-381.09 146.28,-385.56 C147.86,-386.87 150.13,-390.92 151.34,-394.56 C152.54,-398.21 155.22,-401.63 157.28,-402.17 C159.35,-402.71 163.36,-407.71 166.18,-413.29 C169.01,-418.86 174.02,-427.68 177.32,-432.89 C181.39,-439.3 183.34,-444.96 183.39,-450.45 C183.44,-457.98 183.65,-458.28 186.36,-454.7 C189.94,-449.98 189,-448.98 201.28,-470.6 C217.19,-498.61 220.65,-506.94 226.17,-530.48 C229,-542.57 233.62,-561 236.44,-571.44 C242.09,-592.33 242.15,-612.75 236.61,-628.39 C233.45,-637.33 230.87,-661.35 233.08,-661.35 C233.86,-661.35 238.79,-655.51 244.04,-648.37 C253.62,-635.32 257.25,-632.63 257.25,-638.59 C257.25,-640.59 258.35,-641.38 260.17,-640.68 C262.29,-639.87 263.47,-641.57 264.46,-646.82 C265.21,-650.82 268.29,-659.55 271.3,-666.21 C278.57,-682.28 284.39,-707.33 287.12,-734.28 C289,-752.85 296.74,-790 305.44,-822.2 C311.38,-844.16 326.99,-871.96 344.9,-892.44 C348.89,-897 358,-907.59 365.14,-915.97 C379.48,-932.77 397.9,-947.97 402.03,-946.38 C413.67,-941.91 414.6,-875.43 403.46,-844.17 C393.53,-816.3 387.59,-794.97 387.4,-786.49 C387.2,-777.65 377.61,-751.28 368.95,-735.75 C362.74,-724.63 353.22,-697.14 353.18,-690.21 C353.13,-682.13 344.58,-660.9 338.07,-652.71 C330.46,-643.14 318.55,-623.36 319.7,-622.21 C320.13,-621.79 323.56,-623.75 327.32,-626.57 C338.11,-634.65 400.58,-671.34 403.54,-671.34 C409.76,-671.34 416.18,-679.08 424.48,-696.62 C432.98,-714.56 437.07,-719.44 437.07,-711.64 C437.07,-702.41 440.25,-704.92 490.55,-753.81 C499.63,-762.64 507.64,-769.28 508.35,-768.57 C511.62,-765.3 500.02,-751.04 478.03,-731.26 C464.85,-719.41 451.02,-706.53 447.3,-702.65 L440.55,-695.59 L443.73,-682.97 C447.41,-668.34 452.39,-641.23 454.31,-625.39 C455.05,-619.34 456.64,-613.73 457.85,-612.9 C459.29,-611.92 459.36,-610.89 458.05,-609.9 C456.83,-608.99 456.06,-591.98 456.06,-566.11 C456.06,-535.77 456.67,-524.34 458.24,-525.64 C465.44,-531.62 464.36,-517.91 456.19,-499.76 C445.64,-476.34 439.36,-447.76 444,-444.37 C448.3,-441.23 446.62,-435.13 441.7,-435.98 C438.89,-436.47 437.62,-433.39 434.64,-418.9 C431.15,-401.99 424.75,-387.21 417.19,-378.63 C406.18,-366.13 401.18,-355.65 406.24,-355.65 C408.57,-355.65 409.01,-354.5 407.97,-351.16 C404.83,-341.08 402.82,-337.77 387.08,-316.69 C363.08,-284.56 359.89,-279.62 349.21,-258.21 C343.88,-247.51 333.7,-228.43 326.58,-215.79 C312.89,-191.48 312.23,-189.51 319.5,-194.61 C335.24,-205.62 328.33,-191.11 306.7,-167.69 C280.27,-139.08 274.34,-129.28 280.76,-124.78 C286.64,-120.66 284.75,-117.88 276.07,-117.88 C270.77,-117.88 267.11,-116.01 260.48,-109.89 C255.71,-105.5 250.96,-101.9 249.93,-101.9 C248.89,-101.9 245.21,-98.98 241.74,-95.4 C228.26,-81.49 228.26,-81.37 230.13,159.67 L230.28,178.48 L254.92,178.23 L279.55,177.98 L285.32,170.01 C294.83,156.89 308.92,153.81 323.19,161.74 C327.03,163.88 332.95,166.97 336.33,168.61 C339.72,170.26 343.6,172.95 344.97,174.59 C346.34,176.24 348.79,177.08 350.41,176.45 C353.52,175.26 393.99,184.25 408.6,189.38 C419.88,193.33 427.08,200.23 427.08,207.07 C427.08,210.08 429.11,214.76 431.58,217.48 C435.14,221.39 435.35,222.16 432.6,221.17 C429.63,220.11 429.16,221.1 429.43,227.86 C429.72,235.24 429.98,235.58 433.19,232.67 C435.25,230.81 436.26,227.79 435.69,225.17 C434.95,221.81 435.2,221.45 436.73,223.63 C439.75,227.9 437.45,308.07 433.93,321.69 C432.36,327.73 429.71,350.66 428.05,372.64 C424.8,415.32 424.17,420.98 416.4,476.53 C413.63,496.31 409.9,525.54 408.11,541.47 C406.32,557.41 402.72,579.88 400.12,591.42 C397.52,602.96 393.4,621.84 390.97,633.38 C386.53,654.41 375.55,695.49 365.86,727.29 C347,789.24 342.12,804.8 334.86,826.19 C330.38,839.38 322.75,861.86 317.9,876.14 C313.04,890.43 307.75,904.95 306.14,908.41 C304.53,911.88 303.21,916.5 303.21,918.68 C303.21,928.81 275.14,962.05 256.53,973.96 C237.12,986.37 198.6,1004.81 185.32,1008.05 C178.18,1009.79 170.53,1012.09 168.34,1013.16 C153.85,1020.2 44.77,1025.57 7.49,1021.07 ZM100.57,970.91 C130.33,961.99 159.35,946.23 159.35,938.98 C159.35,936.25 153.57,938.18 148.9,942.46 C139.77,950.82 116.16,962.28 99.61,966.37 C96.75,967.08 79.12,967.91 60.44,968.21 C11.52,969 -17.14,960.95 -38.6,940.39 C-48.27,931.12 -54.45,927.73 -54.45,931.67 C-54.45,935.68 -42.25,948.11 -30.72,955.87 C-17.32,964.88 -5.38,968.54 22.48,972.17 C27.97,972.88 32.84,973.82 33.3,974.26 C36.45,977.24 87.98,974.68 100.57,970.91 ZM155.72,282.5 C185.77,281.98 207.81,280.02 210.17,277.66 C211.9,275.93 204.03,274.55 198.47,275.61 C194.55,276.35 40.22,275.67 36.24,274.89 C33.91,274.44 14.13,273.48 -7.72,272.76 C-69.7,270.72 -158.3,262.94 -186.82,257.03 C-194.23,255.5 -200.3,255.03 -200.3,255.99 C-200.3,256.96 -201.7,257.75 -203.42,257.75 C-205.13,257.75 -205.98,256.85 -205.3,255.75 C-204.62,254.65 -205.24,253.7 -206.68,253.63 C-208.12,253.57 -213.56,252.81 -218.78,251.95 C-224,251.09 -228.28,251.11 -228.28,252 C-228.28,254.45 -221.02,257.8 -219.23,256.18 C-218.36,255.39 -218.2,255.72 -218.88,256.92 C-219.55,258.11 -219.02,259.15 -217.7,259.23 C-210.35,259.67 -202.77,261.22 -200.23,262.79 C-198.65,263.77 -191.24,264.35 -183.77,264.08 C-171.17,263.63 -158.34,267.52 -158.34,271.79 C-158.34,272.45 -154.23,272.9 -149.2,272.8 C-144.17,272.69 -139.72,273.15 -139.31,273.81 C-138.91,274.47 -129.31,274.89 -117.99,274.75 C-106.67,274.6 -94.55,275.1 -91.06,275.86 C-87.32,276.67 -83.84,276.36 -82.57,275.09 C-81.14,273.66 -80.42,273.63 -80.42,275 C-80.42,276.14 -75.7,277.21 -69.93,277.39 C-55.56,277.83 -49.88,278.58 -46.98,280.39 C-41.5,283.8 77.43,286.8 77.43,283.52 C77.43,282.47 90.82,282.68 93.41,283.77 C93.96,284.01 95.19,284.05 96.14,283.88 C97.09,283.71 101.83,283.49 106.67,283.39 C111.51,283.29 115.9,282.51 116.44,281.65 C117.73,279.55 129.37,284.04 129.41,286.66 C129.42,287.79 130.27,287.41 131.28,285.8 C132.69,283.57 138.42,282.8 155.72,282.5 ZM19.95,260.95 C20.97,259.42 21.43,259.52 21.45,261.24 C21.5,265.01 25.05,264.24 26.1,260.25 C26.78,257.61 27.07,257.86 27.24,261.24 C27.38,263.9 28.76,265.74 30.61,265.74 C35.03,265.74 39.66,260.6 38.34,257.16 C36.61,252.64 42.7,251.6 46.47,255.77 C49.13,258.7 50.42,259 52.44,257.13 C54.26,255.44 54.36,254.35 52.8,253.37 C51.48,252.54 52.84,251.13 56.14,249.87 C63.56,247.05 65.44,247.21 65.44,250.64 C65.44,255.15 68.25,255.79 74.28,252.66 C77.34,251.07 80.55,250.22 81.42,250.75 C82.29,251.29 83.49,250.45 84.1,248.87 C84.7,247.3 84.12,245.53 82.81,244.94 C81.5,244.35 83.12,244.03 86.42,244.24 C89.71,244.44 93.56,245.45 94.96,246.47 C96.36,247.49 98.07,247.76 98.76,247.07 C99.44,246.39 101.19,247.38 102.64,249.29 C104.26,251.42 105.3,251.79 105.33,250.26 C105.37,248.88 106.27,247.76 107.33,247.76 C108.4,247.76 108.77,249.33 108.17,251.25 C106.93,255.19 109.94,252.03 114.68,244.43 C116.48,241.55 117.76,241.21 120.67,242.87 C124.94,245.28 131.98,244.36 130.28,241.61 C128.62,238.93 132.15,239.35 134.97,242.16 C136.83,244.03 137.36,243.92 137.34,241.66 C137.3,237.75 119.53,224.93 102.4,216.45 C94.71,212.65 86.39,207.64 83.92,205.32 C81.45,203 79.42,201.73 79.42,202.5 C79.42,203.27 77.01,202.31 74.07,200.38 C67.09,195.81 48.72,195.81 40.1,200.38 C31.68,204.86 30.26,210.19 34.96,219.69 L38.78,227.41 L29.2,231.9 C23.94,234.37 20.1,237.15 20.68,238.09 C21.26,239.03 21.13,241.71 20.39,244.04 C19.33,247.38 18.67,247.7 17.3,245.52 C15.82,243.2 15.54,243.2 15.52,245.5 C15.49,247.72 14.91,247.77 12.49,245.76 C10.42,244.04 9.49,243.97 9.49,245.52 C9.49,246.75 8.25,247.76 6.73,247.76 C5.21,247.76 3.51,249.33 2.96,251.25 C2.41,253.18 1.23,256.55 0.35,258.75 C-0.99,262.09 -0.77,262.36 1.69,260.36 C3.6,258.82 5.66,258.63 7.56,259.83 C9.73,261.2 9.81,261.69 7.88,261.71 C6.44,261.73 5.74,262.52 6.33,263.47 C7.72,265.72 18.05,263.8 19.95,260.95 ZM372.14,259.22 C373.47,257.89 371.89,257.64 367.39,258.48 C363.68,259.18 359.36,259.75 357.78,259.75 C356.21,259.75 355.46,260.62 356.11,261.68 C357.51,263.94 369.22,262.14 372.14,259.22 ZM387.12,255.75 C390.94,253.28 386.83,253.28 379.13,255.75 L374.14,257.35 L379.13,257.52 C381.88,257.61 385.47,256.82 387.12,255.75 ZM-232.27,251.75 C-234.77,250.14 -234.6,249.77 -231.27,249.55 C-226.91,249.26 -236.28,246.42 -243.01,246 C-246.16,245.8 -246.34,246.24 -244.18,248.85 C-242.77,250.55 -240.42,251.47 -238.94,250.91 C-237.47,250.34 -236.27,250.75 -236.27,251.82 C-236.27,252.88 -234.69,253.74 -232.77,253.72 C-229.78,253.7 -229.71,253.41 -232.27,251.75 ZM-120.17,214.13 C-133.01,212.36 -161.7,231.75 -159.26,240.56 C-155.3,254.84 -155.39,254.87 -134.63,234.07 C-117.37,216.78 -115.88,214.72 -120.17,214.13 ZM-187.31,245.75 C-186.62,244.64 -187.47,243.19 -189.19,242.53 C-193.76,240.78 -193,237.12 -188.32,238.35 C-186.12,238.92 -183.82,238.58 -183.2,237.58 C-182.59,236.58 -183.04,235.77 -184.2,235.77 C-185.36,235.77 -186.32,234.69 -186.32,233.37 C-186.32,231.51 -185.78,231.51 -183.92,233.37 C-180.86,236.43 -177.64,236.5 -179.51,233.46 C-180.35,232.12 -180.07,231.7 -178.84,232.45 C-176.67,233.79 -174.33,229.66 -174.33,224.5 C-174.33,222.75 -175.28,222.14 -176.67,222.99 C-178.27,223.98 -178.57,223.32 -177.64,220.89 C-176.63,218.25 -177.06,217.64 -179.3,218.5 C-180.96,219.14 -182.32,218.84 -182.32,217.85 C-182.32,215.79 -199.88,212.7 -201.63,214.45 C-203.31,216.14 -196.65,222.23 -194.55,220.93 C-192.12,219.43 -189.07,223.81 -188.8,229.21 C-188.62,232.71 -189.96,233.9 -195.19,234.88 C-200.43,235.86 -201.8,237.09 -201.8,240.78 C-201.8,243.74 -200.87,245.09 -199.26,244.47 C-197.86,243.93 -196.12,244.45 -195.39,245.62 C-193.72,248.32 -188.94,248.39 -187.31,245.75 ZM-259.07,240.62 C-263.37,239.04 -267.32,238.19 -267.85,238.72 C-269.2,240.06 -260.09,243.51 -255.25,243.49 C-253.01,243.49 -254.68,242.22 -259.07,240.62 ZM-217.44,232.27 C-218.4,229.04 -218.29,229.03 -215.99,232.12 C-213.69,235.21 -213.22,235.15 -209.9,231.32 C-205.34,226.06 -205.29,223.55 -209.79,225.14 C-212.41,226.06 -212.13,225.24 -208.66,221.88 C-203.3,216.67 -204.08,214.46 -210.12,217.7 C-212.41,218.92 -214.29,219.41 -214.29,218.79 C-214.29,218.16 -216.09,218.61 -218.29,219.79 C-220.48,220.96 -222.28,222.85 -222.28,223.99 C-222.28,225.14 -220.52,225.49 -218.29,224.78 C-216.09,224.08 -214.29,224.37 -214.29,225.41 C-214.29,226.46 -216.09,227.78 -218.29,228.36 C-220.96,229.06 -221.89,230.46 -221.08,232.59 C-219.41,236.92 -216.15,236.64 -217.44,232.27 ZM228.28,217.79 C228.96,216.69 228.79,215.78 227.9,215.76 C227.01,215.75 224.03,215.18 221.29,214.51 C216.41,213.32 216.39,213.37 220.29,216.47 C225,220.23 226.61,220.49 228.28,217.79 ZM235.27,210.88 C235.27,213.43 235.92,213.95 237.34,212.53 C244.74,205.12 222.26,200.66 203.3,205.77 C198.47,207.08 198.54,207.2 205.51,209.52 C210.86,211.3 214.21,211.35 218.5,209.71 C223.2,207.92 224.64,208.08 226.22,210.57 C227.94,213.29 228.53,213.28 231.71,210.4 C235,207.42 235.27,207.46 235.27,210.88 ZM52.91,192.35 C48.76,191.92 42.47,191.93 38.92,192.37 C35.37,192.81 38.76,193.16 46.46,193.15 C54.15,193.15 57.05,192.78 52.91,192.35 ZM-96.04,181.16 C-99.02,179.83 -101.82,179.96 -104.9,181.57 C-109.39,183.92 -109.39,183.92 -104.9,183.06 C-102.43,182.59 -99.93,182.97 -99.34,183.92 C-98.75,184.87 -96.79,185.07 -94.97,184.38 C-92.14,183.29 -92.29,182.83 -96.04,181.16 ZM148.08,162.84 C147.45,161.19 145.68,159.84 144.15,159.84 C140.69,159.84 140.48,163.15 143.86,164.51 C148.27,166.29 149.26,165.9 148.08,162.84 ZM97.24,17.26 C95.12,15.43 75.43,14.36 75.43,16.08 C75.43,17.13 80.52,17.98 86.75,17.98 C92.98,17.98 97.7,17.66 97.24,17.26 ZM239.66,-151.85 C249.24,-156.16 251.52,-158.33 256.49,-167.83 C259.65,-173.88 267.06,-186.84 272.96,-196.64 C283.21,-213.66 292.62,-232.69 298.23,-247.76 C305.66,-267.73 309.65,-274.55 312.02,-271.31 C314.02,-268.58 341.75,-330.9 345.99,-347.66 C350.69,-366.23 357.15,-410.91 357.15,-424.84 C357.15,-441.4 363.22,-476.76 373.41,-519.49 C375.63,-528.83 378.2,-543.67 379.13,-552.46 C380.62,-566.69 396.34,-636.49 400.22,-646.12 C402.96,-652.93 393.46,-644.93 374.67,-624.63 C365.07,-614.26 347.64,-597.83 335.94,-588.11 C301.96,-559.9 252.1,-506 256.19,-501.9 C256.82,-501.28 262.71,-506.29 269.28,-513.05 C275.85,-519.81 281.23,-524.08 281.23,-522.55 C281.23,-516.02 276.73,-509.32 262.67,-494.88 C244.71,-476.45 235.42,-459.15 215.05,-406.14 C212.84,-400.39 210.2,-395.17 209.17,-394.53 C208.14,-393.9 207.3,-392 207.3,-390.31 C207.3,-388.63 201.14,-379.02 193.61,-368.95 C186.08,-358.89 177.53,-346.99 174.6,-342.52 C171.67,-338.04 166.76,-332.52 163.69,-330.25 C152.94,-322.3 149.89,-296.55 153.33,-242.76 C155.97,-201.57 155.64,-202.35 167.97,-207.64 C173.08,-209.83 182.9,-212.72 189.78,-214.07 C204.76,-217 206.18,-218 204.55,-224.49 C202.68,-231.94 197.84,-235.77 190.29,-235.77 C182.69,-235.77 180.49,-237.98 182.33,-243.78 C184.11,-249.39 190.38,-252.2 201.52,-252.37 C211.11,-252.51 211.11,-252.51 212.72,-262.62 C215.23,-278.41 219.02,-275.76 226.32,-253.09 C232.89,-232.67 245.5,-219.22 251.98,-225.71 C255.95,-229.68 260.98,-227.72 268.06,-219.46 C277.33,-208.62 275.14,-204.27 262.87,-209.18 C254.95,-212.35 249.47,-210.31 252.54,-205.34 C253.1,-204.43 251.76,-201.69 249.55,-199.25 C235.7,-183.93 233.67,-180.65 234.7,-175.28 C235.44,-171.37 234.26,-167.89 230.51,-162.97 C225.69,-156.65 223.13,-144.65 226.92,-146.19 C227.83,-146.56 233.56,-149.1 239.66,-151.85 ZM68.54,-369.81 C70.31,-372.67 67.7,-375.04 60.94,-376.71 C56.3,-377.85 55.45,-377.43 55.45,-374 C55.45,-368.75 65.83,-365.43 68.54,-369.81 ZM35.13,-405.74 C39.62,-405.86 39.86,-406.12 36.64,-407.38 C34.53,-408.21 30.94,-408.67 28.64,-408.41 C26.35,-408.15 23.75,-407.86 22.86,-407.77 C21.97,-407.68 21.84,-406.64 22.56,-405.47 C23.29,-404.29 25.21,-403.84 26.84,-404.47 C28.47,-405.09 32.2,-405.67 35.13,-405.74 ZM19.48,-424.66 C19.48,-425.24 18.2,-427.72 16.63,-430.15 C15.07,-432.58 11.86,-440.58 9.52,-447.91 C5.7,-459.82 -4.49,-472.6 -4.49,-465.47 C-4.49,-464.28 -5.51,-463.94 -6.75,-464.71 C-9.82,-466.61 -9.2,-465.37 4.24,-443.06 C14.24,-426.47 19.48,-420.14 19.48,-424.66 Z" style="fill:#000000;" />
		</g>
	</g>
</svg>