<?xml version="1.0" encoding="UTF-8"?>
<!-- Created with Grafika (https://www.grafika.cc/) -->
<svg xmlns="http://www.w3.org/2000/svg" xmlns:svg="http://www.w3.org/2000/svg" xmlns:xlink="http://www.w3.org/1999/xlink" width="1020.13" height="2048" viewBox="0 0 1602.46 3217.05" preserveAspectRatio="xMidYMid meet">
	<defs>
		<mask id="mask_1" mask-type="luminance">
			<path d="M-511.14,-1024.1 L1091.1,-1024.1 L1091.1,2189.81 L-511.14,2189.81 L-511.14,-1024.1 L-511.14,-1024.1 Z" fill-rule="evenodd" style="fill:#DAD7CD;" />
		</mask>
	</defs>
	<g transform="matrix(1, 0, 0, 1, 872.6193237304688, 691.1826171875)">
		<g transform="matrix(1, 0, 0, 1, -71.388427734375, 917.3426513671875)">
			<g transform="matrix(1.00299870967865, 0, 0, 1.00299870967865, -291.7038879394531, -584.38916015625)">
				<g mask="url(#mask_1)">
					<path d="M644.45,981.25 C645.18,979.08 648.24,976.93 651.27,976.49 C658.47,975.44 656.05,982.69 648.73,984.11 C645.32,984.77 643.65,983.65 644.45,981.25 L644.45,981.25 ZM836.27,907.07 C841.03,905.83 841.28,904.83 837.84,900.65 C834.41,896.5 834.51,895.95 838.45,897.24 C846.6,899.94 846.16,909.32 837.9,908.91 C832.31,908.63 831.93,908.19 836.27,907.07 L836.27,907.07 ZM876.12,892.01 C866.44,888.29 866.07,887.75 872.98,887.64 C877.3,887.58 884.35,889.54 888.67,892.01 C898.52,897.63 890.73,897.63 876.12,892.01 L876.12,892.01 ZM242.56,997.25 C246.63,993.86 248.86,991.03 247.51,990.97 C241.4,990.72 252.55,978.31 258.88,978.31 C267.86,978.31 285.49,965.51 283.73,960.26 C282.9,957.81 284.2,957.04 287.2,958.19 C292.79,960.32 311.17,950.38 311.17,945.21 C311.17,943.28 309.11,941.69 306.6,941.69 C304.09,941.69 302.75,942.87 303.65,944.32 C304.53,945.75 303.77,946.93 301.94,946.93 C300.11,946.93 298.62,944.15 298.62,940.75 C298.62,936.53 300.11,935.14 303.36,936.4 C305.97,937.39 310.06,936.6 312.44,934.61 C314.83,932.63 318.43,931.42 320.44,931.91 C322.45,932.41 326.08,927.16 328.51,920.27 C334,904.7 332.03,902.3 306.35,893.27 C282.52,884.89 275.7,875.09 293.31,874.53 C299.85,874.31 299.88,874.18 293.96,871.87 C285.96,868.75 274.3,871.35 280.15,874.97 C283.86,877.26 277.12,877.02 235.18,873.36 C224.24,872.41 218.52,873.55 213.2,877.75 C209.24,880.86 203.18,884.11 199.74,884.99 C194.44,886.32 194.7,886.65 201.32,887.14 C210.59,887.82 185.66,896.58 174.24,896.66 C170.57,896.69 165.82,898.81 163.69,901.39 C161.55,903.96 158.42,905.2 156.73,904.15 C151.03,900.63 116.58,922.26 116.58,929.36 C116.58,931.37 112.18,935.62 106.81,938.8 C101.42,941.98 87.23,954.64 75.27,966.94 C50.79,992.09 47.85,989.78 111.87,995.59 C217.06,1005.14 232.85,1005.34 242.56,997.25 L242.56,997.25 ZM108.74,975.2 C107.69,973.49 108.27,969.61 110.03,966.58 C113,961.47 113.28,961.53 113.56,967.33 C113.88,973.61 113.88,973.61 116.58,967.33 C118.97,961.77 119.3,962.04 119.5,969.69 C119.72,978.28 112.84,981.81 108.74,975.2 L108.74,975.2 ZM261.77,960.03 C259.02,952.56 253.71,949.75 250.66,954.15 C248.97,956.62 248.4,955.78 249.03,951.78 C249.78,947.02 252.78,945.51 262.54,945.04 C269.43,944.69 273.24,945.13 270.99,945.98 C267.74,947.24 267.86,949.01 271.63,954.76 C276,961.41 275.88,962.1 270.03,963.62 C265.9,964.69 263.03,963.45 261.77,960.03 L261.77,960.03 ZM97.74,956.35 C97.74,952.86 99.83,950.07 102.46,950.07 C107.73,950.07 107.95,950.65 105.25,957.65 C102.57,964.68 97.74,963.83 97.74,956.35 L97.74,956.35 ZM158.28,945.86 C157.39,944.4 153.21,943.86 149,944.66 C142.64,945.87 141.52,945.01 142.32,939.46 C142.86,935.8 141.18,930.92 138.57,928.63 C134.44,924.97 134.56,924.68 139.59,926.27 C142.75,927.27 146.72,928.11 148.4,928.11 C150.1,928.11 150.7,929.35 149.75,930.89 C145.45,937.85 170.27,945.94 183.43,941.87 C188.18,940.41 188.44,939.34 185.03,935.22 C181.48,930.97 181.91,930.64 188.38,932.68 C193.91,934.44 195.42,933.97 194.35,930.78 C193.56,928.44 195.03,924.98 197.6,923.08 C201.48,920.22 200.59,919.04 192.39,916.18 C181.33,912.34 179.1,906.13 188.76,906.13 C192.21,906.13 195.04,904.72 195.04,902.99 C195.04,897.54 206.4,899.6 212.3,906.13 C215.52,909.7 216.42,912.4 214.36,912.4 C212.37,912.4 210.73,914.52 210.73,917.1 C210.73,921.49 203.87,931 191.05,944.4 C185.3,950.4 161.75,951.43 158.28,945.86 L158.28,945.86 ZM240.5,917.49 C237.61,913.07 235.84,907.72 236.56,905.57 C237.26,903.41 240.23,906.43 243.14,912.24 C249.55,925.11 247.79,928.61 240.5,917.49 L240.5,917.49 ZM231.89,901.14 C230.87,900.11 224.64,897.22 218.04,894.71 C206.02,890.16 206.02,890.16 218.3,891.76 C230.23,893.3 238.68,898.06 235.38,901.37 C234.48,902.27 232.91,902.16 231.89,901.14 L231.89,901.14 ZM803.92,991.1 C803.92,985.79 794.4,978.55 789.77,980.34 C786.33,981.66 786,983.56 788.4,988.05 C791.62,994.07 803.92,996.48 803.92,991.1 L803.92,991.1 ZM941.47,953.9 C942.53,946.41 941.56,946.06 921.15,946.86 C913.99,947.13 907.21,945.86 906.06,944 C904.93,942.17 902.38,940.66 900.4,940.66 C897.83,940.66 897.88,941.71 900.59,944.43 C902.67,946.49 904.36,951.86 904.36,956.35 C904.36,974.04 938.89,971.78 941.47,953.9 L941.47,953.9 ZM-93.71,957.92 C-93.71,955.33 -92.29,953.21 -90.57,953.21 C-88.84,953.21 -87.47,950.74 -87.54,947.71 C-87.63,943.01 -88.49,943.25 -93.54,949.28 C-96.77,953.16 -102.02,956.44 -105.19,956.57 C-110.45,956.77 -110.41,957.03 -104.69,959.49 C-95.53,963.42 -93.71,963.17 -93.71,957.92 L-93.71,957.92 ZM719.18,953.6 C719.18,919.73 689.43,890.44 655.03,890.44 C641.31,890.44 563.01,904.39 559.97,907.39 C559.58,907.76 571.58,908 586.65,907.89 C612.8,907.7 615,908.25 635.23,919.73 C646.87,926.36 656.44,930.6 656.45,929.16 C656.49,927.71 657.55,928.01 658.81,929.82 C660.08,931.63 670.09,936.93 681.07,941.63 C692.03,946.33 704,952.27 707.66,954.83 C716.46,960.98 719.18,960.7 719.18,953.6 L719.18,953.6 ZM-101.15,937.12 C-91.68,933.4 -87.43,934.04 -87.43,939.21 C-87.43,943.09 -86.11,942.81 -80.64,937.7 C-76.92,934.23 -68.48,928.72 -61.9,925.47 C-55.32,922.22 -50.49,919.01 -51.15,918.34 C-52.57,916.92 -44.71,916.23 -18.39,915.46 C-8.02,915.16 0.45,913.64 0.45,912.1 C0.45,910.55 2.93,909.16 5.94,909.02 C10.26,908.82 10.45,908.38 6.78,906.95 C-1.55,903.68 -7.08,896.71 -1.34,896.71 C1.37,896.71 3.59,898.12 3.59,899.85 C3.59,901.58 5.71,902.99 8.3,902.99 C13.75,902.99 14.65,911.02 9.53,914.19 C7.11,915.68 7.34,917.14 10.31,919.03 C18.26,924.07 19.61,921.85 18.65,905.35 C17.96,893.22 16.47,888.87 13,888.87 C10.42,888.87 6.97,885.84 5.33,882.13 C3.7,878.42 -1.6,873.03 -6.43,870.17 C-23.07,860.34 -15.23,858.96 3.49,868.42 C25.58,879.57 28.69,879.96 28.69,871.6 C28.69,868.15 30.1,865.32 31.83,865.32 C33.56,865.32 34.93,862.85 34.88,859.84 C34.79,854.66 34.53,854.66 30.54,859.93 C26.48,865.27 26.21,865.27 23.88,859.93 C20.02,851 19.63,846.5 22.69,846.5 C24.28,846.5 25.56,844.38 25.56,841.79 C25.56,834.41 34.02,836.28 36.23,844.15 C38.16,851 38.35,851.03 42.76,845.25 C45.28,841.98 46.49,837.93 45.45,836.26 C42.59,831.63 9.48,835.37 5.47,840.78 C1.33,846.39 -52.88,843.97 -64.48,837.67 C-78.27,830.17 -102.07,834.41 -90.71,842.36 C-82.27,848.26 -82.56,852.79 -91.35,852.72 C-96.63,852.69 -97.31,851.98 -94.07,849.93 C-90.57,847.71 -90.94,846.52 -96.02,843.8 C-103.18,839.97 -106.26,841.87 -106.26,850.16 C-106.26,856.54 -111.36,857.4 -123,852.97 C-132.63,849.31 -145.72,860.34 -137.68,865.31 C-135.24,866.81 -132.12,867.36 -130.73,866.5 C-129.37,865.65 -128.24,867.19 -128.24,869.91 C-128.24,873.63 -130.2,874.37 -136.07,872.89 C-143.64,870.99 -143.93,871.48 -143.93,886.12 C-143.93,901.32 -143.93,901.32 -138.15,890.55 C-134.97,884.63 -130.72,879.24 -128.67,878.55 C-126.63,877.87 -127.95,882.35 -131.58,888.51 C-137.69,898.87 -137.83,900.41 -133.45,909.19 C-130.84,914.41 -130.01,918.68 -131.61,918.68 C-133.2,918.68 -134.55,916.92 -134.61,914.75 C-134.75,908.41 -139.7,919.06 -141.82,930.34 C-144.01,941.93 -139.5,946.83 -134.77,938 C-132.82,934.37 -128.22,932.02 -123.04,932.02 C-116.05,932.02 -115.34,932.66 -119.12,935.55 C-124.18,939.42 -123.33,950.29 -117.66,953.93 C-115.51,955.33 -112.72,952.93 -110.56,947.84 C-108.62,943.22 -104.37,938.4 -101.15,937.12 L-101.15,937.12 ZM-109.4,910.84 C-109.4,907.69 -107.34,906.07 -104.14,906.68 C-97.13,908.03 -96.98,913.61 -103.9,914.94 C-107.34,915.6 -109.4,914.06 -109.4,910.84 L-109.4,910.84 ZM-49.9,913.97 C-50.23,912.26 -50.34,909.78 -50.13,908.49 C-49.93,907.18 -51.53,905.97 -53.68,905.77 C-55.85,905.57 -59.73,905.19 -62.32,904.94 C-64.92,904.67 -69.06,905.9 -71.54,907.65 C-75.09,910.15 -75.61,909.67 -73.99,905.35 C-71.42,898.47 -75.91,898.32 -86.07,904.98 C-90.38,907.81 -94.76,909.26 -95.83,908.2 C-96.88,907.14 -95.36,905.36 -92.45,904.25 C-87.49,902.35 -87.49,901.84 -92.44,896.39 C-97.71,890.55 -87.55,882.05 -80.36,886.29 C-79.07,887.05 -76.63,884.06 -74.95,879.65 C-72.86,874.15 -69.64,871.67 -64.76,871.82 C-58.02,872.03 -57.97,872.19 -63.89,874.54 C-70.16,877.04 -70.16,877.04 -63.89,878.66 C-59.35,879.84 -59.04,880.39 -62.78,880.65 C-65.61,880.86 -68.76,883.21 -69.8,885.9 C-70.96,888.93 -70.38,889.97 -68.25,888.65 C-65.9,887.2 -65.95,888.62 -68.4,893.2 C-73.27,902.3 -69.3,901.59 -61.76,892.01 C-55.91,884.56 -43.49,881.08 -43.49,886.86 C-43.49,888.35 -39.95,888.88 -35.65,888.07 C-25.11,886.06 -24.92,895.54 -35.4,900.3 C-40.35,902.57 -42.34,905.46 -41.13,908.6 C-39.99,911.6 -40.58,912.63 -42.69,911.33 C-44.56,910.17 -46.8,911 -47.68,913.17 C-48.56,915.34 -49.55,915.7 -49.9,913.97 L-49.9,913.97 ZM-124.37,905.5 C-123.08,901.67 -103.12,892.94 -103.12,896.2 C-103.12,897.49 -108.14,900.82 -114.27,903.6 C-120.4,906.37 -124.94,907.23 -124.37,905.5 L-124.37,905.5 ZM-95.75,870.14 C-94.78,867.6 -95.36,864.68 -97.04,863.64 C-102.24,860.42 -96.9,855.91 -88.04,856.01 C-80.78,856.08 -80.36,856.56 -85.08,859.3 C-88.1,861.06 -90.57,865.26 -90.57,868.62 C-90.57,871.98 -92.14,874.75 -94.04,874.75 C-95.95,874.75 -96.72,872.67 -95.75,870.14 L-95.75,870.14 ZM-126.35,866.58 C-128.16,861.87 -120.16,856.67 -116.6,860.23 C-115.51,861.32 -116.63,862.21 -119.08,862.24 C-122.71,862.27 -122.75,862.78 -119.34,864.94 C-115.94,867.1 -116.03,867.93 -119.86,869.41 C-122.47,870.41 -125.36,869.15 -126.35,866.58 L-126.35,866.58 ZM-71.73,863.77 C-71.73,860.8 -68.54,858.93 -63.11,858.74 C-54.47,858.43 -54.47,858.43 -62.32,855.91 C-70,853.45 -69.97,853.4 -60.75,853.13 C-55.57,852.99 -49.22,854.23 -46.63,855.91 C-42.78,858.39 -43.14,858.96 -48.59,859.01 C-52.27,859.02 -57.03,861.17 -59.18,863.77 C-61.33,866.34 -65.04,868.46 -67.41,868.46 C-69.78,868.46 -71.73,866.34 -71.73,863.77 L-71.73,863.77 ZM953.95,910.2 C954.91,903.82 947.4,893.58 941.8,893.58 C940.19,893.58 938.89,896.39 938.89,899.85 C938.89,903.73 936.78,906.13 933.39,906.15 C929.51,906.16 930.67,907.94 937.32,912.18 C948.53,919.34 952.68,918.85 953.95,910.2 L953.95,910.2 ZM726.29,897.65 C722.43,896.89 715.36,896.88 710.6,897.6 C705.83,898.32 708.98,898.94 717.62,898.95 C726.25,898.98 730.14,898.39 726.29,897.65 L726.29,897.65 ZM604.71,882.52 C634.59,879.85 659.96,868.46 636.02,868.46 C631.7,868.46 628.16,870.05 628.16,871.97 C628.16,873.96 625.38,874.75 621.72,873.79 C610.84,870.94 574.8,878.22 574.8,883.26 C574.8,886.1 576.83,887.08 580.38,885.95 C583.44,884.97 594.39,883.43 604.71,882.52 L604.71,882.52 ZM321.37,881.89 C315.76,881.19 306.59,881.19 300.96,881.89 C295.35,882.58 299.96,883.15 311.17,883.15 C322.39,883.15 326.97,882.58 321.37,881.89 L321.37,881.89 ZM415.46,877.89 C422.2,871.6 422.2,871.6 405.92,871.6 C387.99,871.6 382.14,879.47 398.26,881.91 C403.02,882.63 407.31,883.43 407.81,883.68 C408.31,883.95 411.75,881.33 415.46,877.89 L415.46,877.89 ZM539.52,867.68 C538.74,865.29 531.56,863.51 521.21,863.12 C504.19,862.49 504.19,862.49 518.32,866.64 C537.14,872.15 541.06,872.36 539.52,867.68 L539.52,867.68 ZM426.52,863.04 C420.05,862.37 409.44,862.37 402.97,863.04 C396.5,863.72 401.79,864.27 414.74,864.27 C427.7,864.27 432.99,863.72 426.52,863.04 L426.52,863.04 ZM643.86,628.03 C643.86,624.83 642.13,623.65 639.14,624.8 C636.57,625.79 634.45,625.33 634.45,623.79 C634.45,622.24 636.91,620.34 639.93,619.55 C654.96,615.62 614.03,618.04 593.72,622.28 C563.85,628.5 561.2,631.13 587.37,628.55 C598.59,627.45 614.12,627.86 621.88,629.46 C642.35,633.7 643.86,633.59 643.86,628.03 L643.86,628.03 ZM364.53,623.65 C364.53,621.94 357.81,620.54 349.61,620.57 C338.83,620.6 336.01,621.45 339.42,623.65 C345.62,627.67 364.53,627.67 364.53,623.65 L364.53,623.65 ZM596.51,619.38 C595.81,618.75 579.67,617.48 560.68,616.53 C541,615.56 528.86,615.95 532.44,617.44 C538.39,619.94 599.28,621.78 596.51,619.38 L596.51,619.38 ZM348.82,614.24 C348.82,612.51 342.82,611.13 335.49,611.15 C325.72,611.19 323.41,612.01 326.86,614.24 C333.05,618.25 348.82,618.25 348.82,614.24 L348.82,614.24 ZM369.23,614.24 C368.16,612.51 363.84,611.1 359.63,611.1 C355.42,611.1 351.97,612.51 351.97,614.24 C351.97,615.97 356.29,617.38 361.56,617.38 C367.17,617.38 370.36,616.08 369.23,614.24 L369.23,614.24 ZM508.2,608.82 C501.78,608.15 490.47,608.13 483.08,608.81 C475.7,609.46 480.96,610.01 494.77,610.03 C508.59,610.03 514.63,609.5 508.2,608.82 L508.2,608.82 ZM369.23,598.55 C370.3,596.82 369.14,595.41 366.65,595.41 C364.16,595.41 361.38,592.58 360.48,589.14 C359.57,585.68 357.45,582.86 355.77,582.86 C351.37,582.86 349.08,598.05 353.21,599.76 C359.46,602.33 367.25,601.75 369.23,598.55 L369.23,598.55 ZM83.62,132.37 C75.88,126.03 41.13,119.68 47.79,125.82 C53.84,131.42 75.96,140.29 83.57,140.2 C93.03,140.09 93.03,140.09 83.62,132.37 L83.62,132.37 ZM395.95,3.94 C394.6,-2.01 394.28,-7.67 395.23,-8.61 C396.18,-9.57 395.43,-10.34 393.55,-10.34 C391.68,-10.34 387.86,-11.22 385.06,-12.28 C376.74,-15.49 379.6,8.4 387.94,11.78 C398.05,15.88 398.53,15.41 395.95,3.94 L395.95,3.94 ZM394.28,-33.1 C389.26,-83.85 380.82,-107.46 348.51,-161.28 C329.72,-192.54 329.72,-192.54 330.65,-215.22 C331.84,-244.73 343.52,-251.46 347.49,-224.93 C349.67,-210.36 369.65,-171.35 373.14,-174.83 C374.1,-175.81 371.27,-188.26 366.84,-202.53 C357.23,-233.5 350.98,-260.96 343.45,-305.37 C340.39,-323.5 337.4,-334.79 336.82,-330.47 C334.29,-311.56 320.24,-257.29 315.46,-248.06 C304.89,-227.61 307.78,-154.68 320.96,-109.31 C327.76,-85.91 327.76,-85.91 342.21,-84.13 C373.91,-80.22 374.48,-79.51 378.59,-37.98 C380.4,-19.74 381.58,-16.82 387.51,-15.66 C391.27,-14.92 394.77,-14.14 395.29,-13.9 C395.79,-13.67 395.35,-22.31 394.28,-33.1 L394.28,-33.1 ZM510.9,-64.65 C512,-65.75 509.1,-68.11 504.43,-69.89 C495.9,-73.12 483.79,-74.25 483.79,-71.8 C483.79,-71.08 483.07,-68.6 482.19,-66.3 C480.51,-61.94 506.69,-60.43 510.9,-64.65 L510.9,-64.65 ZM680.05,-409.97 C678.12,-420.67 666.96,-435.9 665.13,-430.37 C664.43,-428.29 665.09,-420.15 666.59,-412.26 C668.09,-404.39 670.12,-393.15 671.11,-387.27 C672.9,-376.6 672.9,-376.6 677.28,-388.84 C679.7,-395.58 680.94,-405.08 680.05,-409.97 L680.05,-409.97 ZM976.81,-503.09 C978.4,-503.09 979.68,-504.75 979.68,-506.76 C979.68,-508.79 982.02,-513.03 984.88,-516.19 C989,-520.74 989.17,-521.92 985.67,-521.92 C983.23,-521.92 977.11,-516.74 972.05,-510.38 C965.45,-502.11 964.4,-499.44 968.37,-500.97 C971.42,-502.13 975.22,-503.09 976.81,-503.09 L976.81,-503.09 ZM973.09,-527.8 C972.77,-539.19 972.77,-539.19 970.34,-529.78 C969,-524.59 966.77,-517.54 965.36,-514.08 C963.1,-508.49 963.39,-508.27 968.12,-512.1 C971.47,-514.84 973.29,-520.6 973.09,-527.8 L973.09,-527.8 ZM336.27,2104.91 C287.7,2098.91 253.48,2084.56 225.69,2058.57 C203.41,2037.72 204.01,2037.28 258.31,2034.94 C357.7,2030.64 537.15,2037.79 537.15,2046.05 C537.15,2047.43 540.32,2048.73 544.2,2048.94 C550.16,2049.24 550.33,2049.53 545.35,2050.82 C542.1,2051.66 532.03,2058.36 522.97,2065.75 C482.12,2099.02 410.34,2114.08 336.27,2104.91 L336.27,2104.91 ZM434.2,2095.45 C443.36,2093.6 452.95,2091.27 455.55,2090.27 C458.14,2089.26 462.76,2087.94 465.82,2087.34 C475.07,2085.54 506.74,2068.32 516.23,2059.95 C525.12,2052.1 525.12,2052.1 514.66,2050.41 C465.02,2042.47 300.66,2038.21 253.1,2043.64 C246.2,2044.43 238.08,2045.15 235.07,2045.25 C222.51,2045.67 256.3,2074.73 269.33,2074.73 C271.48,2074.73 272.36,2076.14 271.29,2077.87 C270.13,2079.76 271.45,2080.21 274.56,2079.02 C277.43,2077.92 279.79,2078.09 279.79,2079.41 C279.79,2092.61 390.95,2104.15 434.2,2095.45 L434.2,2095.45 ZM372.15,854.12 C374.85,851.4 377.08,847.87 377.08,846.27 C377.08,844.66 379.2,843.36 381.78,843.36 C384.37,843.36 386.49,845.48 386.49,848.06 C386.49,850.65 384.37,852.77 381.78,852.77 C379.2,852.77 377.08,854.18 377.08,855.91 C377.08,857.64 374.85,859.05 372.15,859.05 C367.66,859.05 367.66,858.6 372.15,854.12 L372.15,854.12 ZM314.77,752.33 C314.31,751.47 313.31,739.47 312.54,725.66 C311.75,711.85 310.46,696.72 309.68,692.04 C307.9,681.55 313.43,677.15 315.92,687.08 C317.63,693.9 316.54,755.66 314.77,752.33 L314.77,752.33 ZM525.28,732.18 C523.37,728 518.55,724.1 514.56,723.54 C508.83,722.74 507.45,720.73 507.92,713.89 C508.34,707.72 507.01,705.19 503.22,705.03 C498.9,704.86 499.09,704.31 504.19,702.13 C515.55,697.24 519.13,698.42 517.15,706.35 C515.72,712.02 516.98,714.49 522.6,717.05 C527.84,719.44 529.97,723.13 530.18,730.07 C530.51,741.78 529.78,742.09 525.28,732.18 L525.28,732.18 ZM535.91,724.87 C530.95,708.51 534.89,685.76 542.22,688.57 C545.66,689.89 546.01,691.1 543.43,692.7 C541.39,693.96 539.71,702.74 539.62,712.67 C539.44,731.28 538.64,733.92 535.91,724.87 L535.91,724.87 ZM471.74,712.56 C471.35,702.44 472.5,699.11 476.74,698.01 C481.45,696.77 481.5,696.52 477.07,696.21 C474.22,696 471.1,693.72 470.11,691.13 C468.21,686.22 475.04,684.83 494.88,686.14 C500.11,686.48 508.59,684.58 513.71,681.91 C518.83,679.24 524.79,677.04 526.94,677.03 C533.55,676.99 531.31,682.73 523.81,685.02 C519.92,686.2 514.63,689.01 512.03,691.26 C509.44,693.52 503.55,696.3 498.93,697.45 C492.84,698.97 490.86,701.19 491.69,705.54 C492.9,711.85 485.69,714.02 482.22,708.4 C478.48,702.35 474.76,705.36 473.5,715.46 C472.39,724.47 472.18,724.12 471.74,712.56 L471.74,712.56 ZM352.08,693.76 C352.14,692.31 354.28,687.6 356.84,683.29 C361.49,675.44 361.49,675.44 360.65,684.61 C359.95,692.44 351.76,701.15 352.08,693.76 L352.08,693.76 ZM570.89,599.25 C529.64,598.47 524.55,597.79 524.29,592.97 C524.11,590 523.42,581.57 522.76,574.23 C522.1,566.88 522.87,560.88 524.47,560.88 C526.08,560.88 527.82,567.59 528.34,575.79 C529.3,590.71 529.3,590.71 572.79,592.88 C610.95,594.78 623.2,596.51 618.49,599.33 C617.77,599.76 596.36,599.73 570.89,599.25 L570.89,599.25 ZM517.26,521.14 C513.89,517.74 514.88,504.39 518.51,504.39 C520.33,504.39 520.89,505.88 519.76,507.72 C518.63,509.56 520.17,513.8 523.2,517.15 C528.59,523.1 523,526.86 517.26,521.14 L517.26,521.14 ZM320.02,499.66 C318.84,498.47 318.63,495.52 319.56,493.1 C320.5,490.68 319.59,488.7 317.57,488.7 C315.29,488.7 315.82,486.74 318.95,483.61 C321.74,480.81 324.37,479.05 324.81,479.7 C326.6,482.35 321.98,501.64 320.02,499.66 L320.02,499.66 ZM413.42,443.98 C412.79,441.81 410.45,431.73 408.2,421.56 C400.85,388.32 383.62,374.34 351.45,375.51 C342.05,375.85 340.09,374.91 340.8,370.32 C341.32,366.9 339.2,364.09 335.33,363.08 C324.49,360.27 325.84,350.59 337.07,350.59 C358.33,350.59 344.06,347.7 307.24,344.53 C303.84,344.23 304.34,331.77 307.76,331.77 C309.35,331.77 311.17,333.35 311.82,335.29 C312.57,337.54 323.66,338.86 342.68,338.94 C359,339.02 370.61,339.68 368.44,340.4 C366.29,341.12 364.53,345 364.53,349.04 C364.53,353.06 362.85,356.91 360.79,357.6 C358.41,358.4 359.52,361.29 363.94,365.7 C372.07,373.84 377.71,374.61 376.44,367.4 C375.92,364.56 377.34,361.6 379.57,360.82 C382.52,359.78 383.07,361.62 381.58,367.56 C379.88,374.33 380.62,375.71 385.93,375.71 C394.54,375.71 403.83,388.26 412.14,411.02 C418.13,427.44 419.35,428.96 421.59,422.9 C423.01,419.07 423.38,414.65 422.4,413.08 C421.44,411.51 421.93,410.24 423.5,410.24 C425.06,410.24 428.95,404.43 432.16,397.34 C435.36,390.24 441.27,382.29 445.29,379.65 C449.31,377.01 452,374.27 451.27,373.53 C450.54,372.79 453.46,368.66 457.78,364.34 C462.1,360.03 464.72,355.59 463.62,354.49 C462.51,353.37 458.06,356.29 453.74,360.94 C449.42,365.61 444.19,369.43 442.13,369.43 C440.07,369.43 443.51,364.31 449.77,358.05 C464.78,343.04 477.02,351.22 462.9,366.84 C458,372.25 458.17,372.57 466.13,372.57 C470.78,372.57 475.28,370.75 476.14,368.5 C477.15,365.86 481.59,364.89 488.85,365.74 C501.41,367.21 499.26,360.32 475.54,323.13 C469.76,314.07 466.17,306.66 467.55,306.66 C472.31,306.66 483.79,319.47 483.84,324.83 C483.88,329.45 484.31,329.54 486.93,325.49 C492.34,317.13 490.91,280.55 485.27,282.72 C482.17,283.91 479.28,281.96 477.15,277.3 C475.32,273.31 469.64,267.56 464.5,264.53 C456.83,259.99 455.48,257.52 456.94,250.66 C457.92,246.07 460.1,225.37 461.8,204.66 C471.4,87.01 474.08,69.96 483.26,68.66 C495.37,66.95 502.92,71.88 491.64,74.14 C482.33,76.01 482.17,76.41 477.05,108.95 C467.09,172.4 462.38,270.17 470.36,247.81 C471.85,243.62 483.52,242.3 484.2,246.24 C484.42,247.53 484.92,251.68 485.33,255.45 C485.72,259.2 488.39,264.62 491.25,267.48 C495.52,271.77 496.31,278.52 495.71,306.14 C494.85,344.91 497.86,353.73 511.92,353.73 C518.96,353.73 521.24,352.15 522.02,346.68 C523.72,334.76 532.44,338.04 532.44,350.59 C532.44,361.23 532.05,361.6 519.89,362.12 C508.22,362.61 508,362.47 516.75,360.13 C526.14,357.63 526.14,357.61 514.28,357.25 C503.5,356.91 502.7,357.44 505.61,362.88 C507.93,367.21 507.56,371.8 504.27,379.35 C499.75,389.8 499.73,389.8 499.61,381.21 C499.47,371.72 488.71,368.91 481.21,376.4 C479.11,378.51 472.34,380.55 466.15,380.96 C445.26,382.29 430.93,402.05 425.03,437.7 C423.36,447.73 415.69,451.88 413.42,443.98 L413.42,443.98 ZM518.08,443.98 C514.85,433.08 515.52,428.57 519.84,432.17 C525.2,436.61 526.23,444.76 521.46,444.76 C519.73,444.76 518.21,444.4 518.08,443.98 L518.08,443.98 ZM387.89,431.93 C384.66,426.7 391.93,420.7 396.26,425.02 C399.89,428.65 397.61,435.34 392.78,435.34 C391.25,435.34 389.05,433.8 387.89,431.93 L387.89,431.93 ZM366.62,426.97 C362.79,423.15 364.45,416.5 369.23,416.5 C371.85,416.5 373.94,419.3 373.94,422.79 C373.94,429.04 370.6,430.96 366.62,426.97 L366.62,426.97 ZM628.54,419.35 C631.6,417.42 630.22,416.6 623.89,416.55 C618.94,416.54 599.95,412.84 581.7,408.35 C559.61,402.93 544.52,400.84 536.55,402.12 C524.6,404.03 524.6,404.03 524.6,386.74 C524.6,377.22 526,369.43 527.73,369.43 C529.45,369.43 530.87,371.55 530.87,374.14 C530.87,377.09 533.85,378.85 538.89,378.85 C543.45,378.85 546.09,380.2 544.99,381.98 C543.92,383.71 540.03,385.12 536.33,385.12 C531.21,385.12 530.49,386 533.27,388.78 C535.3,390.81 543.7,392.3 551.95,392.13 C569.54,391.75 613.23,400.22 611.14,403.59 C609.22,406.67 646.21,414.23 650.42,411.62 C652.23,410.5 652.97,407.66 652.06,405.3 C651.15,402.95 651.95,400.07 653.83,398.9 C656.13,397.48 656.78,400.01 655.83,406.58 C654.6,414.86 655.62,416.82 662.46,419.33 C668.77,421.64 665.46,422.27 647.38,422.19 C632.94,422.13 625.86,421.06 628.54,419.35 L628.54,419.35 ZM183.28,398.11 C171.07,387.66 169.15,379.28 180.7,386.83 C188.68,392.06 200.1,407.19 195.9,406.97 C194.57,406.89 188.88,402.92 183.28,398.11 L183.28,398.11 ZM401.48,370.32 C396.67,369.6 390.12,365.11 386.57,360.11 C376.71,346.27 379.09,342.82 389.96,355.2 C395.32,361.31 402.3,366.29 405.47,366.29 C408.64,366.29 412.11,367.7 413.17,369.43 C414.23,371.15 413.97,372.36 412.57,372.1 C411.17,371.85 406.18,371.05 401.48,370.32 L401.48,370.32 ZM642.82,354.79 C638.45,350.42 640.97,332.29 647,324.63 C654.71,314.83 654.73,315.34 646.7,302.81 C640.13,292.54 640.13,292.54 642.05,301.94 C643.84,310.84 643.68,311.02 639.19,305.27 C636.58,301.93 634.46,296.27 634.49,292.72 C634.53,287.3 635.08,287.02 637.84,290.96 C640.39,294.59 640.68,293.89 639.21,287.82 C637.28,280.02 637.31,280.02 644.91,288.99 C651.29,296.53 652.98,297.2 655.26,293.19 C656.75,290.54 662.93,282.95 668.97,276.34 C687.45,256.06 689.36,245.82 676.48,236 C661.21,224.36 648.99,220.62 640.67,225.08 C636.95,227.08 633.07,227.86 632.04,226.84 C629.26,224.06 641.69,215.61 646.21,217.2 C651.71,219.13 651.22,215.41 642.1,185.5 C632.83,155.1 629.8,152.98 626.89,174.83 C625.34,186.61 623.47,190.59 619.43,190.79 C602.01,191.61 596.94,192.87 588.67,198.35 C579.52,204.43 579.52,204.43 591.88,206.5 C606.9,209.01 615.61,218.82 615.61,233.19 C615.61,244.75 617.62,243.7 582.66,250.37 C561.91,254.35 546.59,261.21 565.39,258.1 C571.44,257.11 587.32,255.45 600.71,254.4 C625.1,252.49 627.94,251.19 621.61,244.88 C619.46,242.71 619.32,240.76 621.25,239.57 C624.94,237.29 629.72,242.79 632.83,252.92 C634.4,258.02 634.02,259.69 631.64,258.21 C629.74,257.03 628.16,257.4 628.16,259 C628.16,260.65 623.69,261.01 617.97,259.81 C612.36,258.67 601.41,258.84 593.64,260.22 C585.88,261.62 573.86,263.65 566.97,264.73 C560.05,265.83 550.6,268.64 545.93,271 C529.86,279.1 529.28,277.39 526.14,212.5 C525.1,190.92 523.72,170.45 523.09,166.99 C520.28,151.76 526.88,84.95 532.38,72.84 C535.52,65.93 537.84,57.46 537.53,54.01 C537.01,48.19 537.23,48.15 540.39,53.28 C542.27,56.35 545.29,57.93 547.09,56.82 C549.23,55.5 548.9,53.74 546.12,51.74 C542.84,49.4 543.07,49.09 547.19,50.41 C553.57,52.45 557.43,43.1 554.29,33.21 C552.86,28.72 553.3,27.24 555.64,28.68 C557.56,29.86 559.16,33.22 559.21,36.15 C559.3,40.92 559.65,40.87 562.6,35.8 C564.95,31.75 564.83,28.86 562.14,25.64 C558.11,20.77 563.57,16.64 571.52,18.54 C575.7,19.54 599.81,-12.74 598.9,-18.13 C598.6,-19.89 597.01,-22.29 595.38,-23.47 C593.73,-24.63 595.93,-27.21 600.25,-29.17 C609.85,-33.55 618.21,-45.57 612.88,-47.34 C610.92,-48 610.19,-49.98 611.28,-51.74 C612.53,-53.77 614.37,-53.39 616.3,-50.69 C618.6,-47.49 618.9,-47.83 617.51,-52.09 C616.3,-55.84 616.89,-56.99 619.27,-55.53 C621.63,-54.07 621.99,-54.71 620.33,-57.41 C618.65,-60.13 619.01,-60.76 621.41,-59.28 C623.56,-57.95 625.02,-59.08 625.02,-62.09 C625.02,-64.87 627.14,-71.24 629.72,-76.23 C633.16,-82.88 633.62,-87.45 631.37,-93.32 C628.64,-100.52 635.28,-118.44 649.35,-141.89 C654.15,-149.89 651.24,-136.47 645.47,-124.05 C641.33,-115.11 639.03,-107.1 640.39,-106.27 C641.72,-105.45 647.58,-116.35 653.39,-130.52 C659.2,-144.69 670.67,-164.98 678.87,-175.62 C690.92,-191.25 692.84,-195.32 688.83,-196.86 C685.99,-197.94 681.9,-196.38 679.29,-193.21 C673.88,-186.63 674.85,-190.65 683.47,-210.43 C686.66,-217.76 690.98,-223.76 693.07,-223.76 C695.14,-223.76 703.14,-231.88 710.84,-241.81 C727.61,-263.46 777.39,-311.54 825.38,-352.45 C844.62,-368.85 867.72,-390.73 876.7,-401.09 C894.78,-421.94 913.38,-438.75 918.37,-438.75 C920.17,-438.75 922.08,-441.94 922.63,-445.82 C923.18,-449.7 924.72,-452.88 926.04,-452.88 C929.07,-452.88 928.25,-436.55 924.96,-431.21 C923.61,-429.02 920.73,-419.24 918.59,-409.45 C916.44,-399.68 909.62,-372.52 903.44,-349.1 C897.26,-325.68 892.27,-302.38 892.36,-297.31 C892.69,-280.14 888.36,-250.53 882.53,-230.03 C875.3,-204.71 867.73,-169.35 863.41,-140.84 C861.6,-128.89 859.45,-118.02 858.62,-116.68 C857.8,-115.35 855.7,-98.29 853.95,-78.78 C844.78,23.89 843.23,29.94 803.59,118.85 C798.47,130.36 792.35,145.9 789.99,153.38 C785.89,166.45 785.7,166.6 785.4,157.1 C785.23,151.51 794.18,124.83 805.95,95.9 C835.72,22.68 839.36,6.74 847.91,-87.23 C853.33,-146.78 856.53,-165.52 873.4,-236.31 C876.89,-250.99 880.94,-274.45 882.4,-288.47 C883.86,-302.48 890.87,-337.6 897.99,-366.54 C913.94,-431.49 914.05,-431.19 884.88,-399.13 C871.72,-384.68 845.08,-359.42 825.68,-343.02 C777.5,-302.32 723.31,-247.59 729.84,-246.29 C743.09,-243.62 734.23,-220.67 711.45,-198.65 C683.33,-171.46 669.57,-149.45 651.62,-102.92 C632.3,-52.83 615.44,-18.94 598.54,3.79 C590.84,14.14 578.59,31.32 571.33,41.97 C564.07,52.61 554.87,63.07 550.88,65.21 C533.9,74.28 528.28,130.91 535.2,222.7 C537.97,259.38 538.83,260.6 555.84,251.8 C560.78,249.26 574.11,245.41 585.5,243.24 C614.37,237.76 615.08,215.64 586.38,215.64 C557.26,215.64 574.71,183.93 604.3,183.1 C618.24,182.7 618.79,182.31 620.58,171.71 C626.39,137.35 635.48,140.68 648.4,181.9 C659.63,217.72 665.25,223.45 689.29,223.47 C704.26,223.48 705.35,224.09 715.93,238.34 C728.52,255.32 730.43,253.33 750.59,202.02 C755.92,188.5 761.62,175.08 763.27,172.21 C764.92,169.34 767.64,163.11 769.32,158.36 C773.7,145.99 781.98,147.03 781.84,159.93 C781.74,169.92 772.87,190.43 772.65,181.2 C772.46,173.39 763.87,188.14 751.77,217.04 C745.58,231.81 733.44,255.53 724.79,269.77 C716.13,284.02 704.08,305.16 698,316.77 C687.68,336.42 685.56,338.5 666.62,347.37 C643.56,358.16 645.55,357.54 642.82,354.79 L642.82,354.79 ZM697.12,304.27 C704.99,289.19 713.95,273.1 717.03,268.53 C722.56,260.33 722.52,260.22 715.41,260.43 C711.45,260.54 704.32,259.53 699.57,258.2 C692.08,256.09 690.93,256.66 690.93,262.49 C690.93,266.18 689,269.93 686.63,270.84 C678.93,273.8 662.69,299.54 662.69,308.79 C662.69,313.73 659.16,322.95 654.84,329.31 C641.86,348.41 644.41,351.33 664.91,340.85 C681.64,332.29 683.77,329.87 697.12,304.27 L697.12,304.27 ZM703.96,240.02 C696.7,228.56 694.3,227.17 688.3,230.96 C684.81,233.17 684.79,234.78 688.19,240.2 C691.75,245.91 695.6,247.8 707.73,249.73 C709.19,249.97 707.49,245.6 703.96,240.02 L703.96,240.02 ZM211.17,328.18 C201.28,324.52 202.61,323.98 223.03,323.39 C233.24,323.09 244.66,321.22 248.4,319.21 C252.16,317.21 255.97,316.33 256.92,317.28 C261.44,321.78 220.38,331.59 211.17,328.18 L211.17,328.18 ZM450.83,329.37 C452.56,328.1 454.45,323.53 455.03,319.21 C456.36,309.3 461.85,303.06 461.78,311.53 C461.7,323.24 457.92,331.77 452.83,331.73 C449.88,331.7 449.03,330.69 450.83,329.37 L450.83,329.37 ZM304.64,326.28 C304.5,324.99 303.69,319.68 302.88,314.51 C301.87,308.27 302.42,306.15 304.48,308.23 C309.43,313.22 312.37,328.63 308.38,328.63 C306.46,328.63 304.78,327.56 304.64,326.28 L304.64,326.28 ZM406.44,324.75 C405.22,322.77 405.89,320.59 407.93,319.91 C409.98,319.24 410.73,317.2 409.62,315.41 C408.47,313.54 409.49,312.75 411.96,313.57 C414.34,314.37 416.73,317.2 417.25,319.87 C418.4,325.76 409.54,329.78 406.44,324.75 L406.44,324.75 ZM224.18,318.42 C225.62,314.54 224.65,312.91 220.83,312.83 C216.04,312.75 216.12,312.23 221.54,308.13 C228.66,302.73 243.96,302.02 246.99,306.92 C248.32,309.06 246.33,310.11 241.69,309.72 C228.61,308.64 224.32,309.56 228.92,312.48 C232.13,314.51 231.85,316 227.56,319.49 C222.73,323.42 222.34,323.29 224.18,318.42 L224.18,318.42 ZM250.76,309.15 C248.56,303.45 250.66,300.39 256.77,300.39 C259.07,300.39 260.95,302.59 260.95,305.27 C260.95,307.96 259.66,309.37 258.08,308.4 C256.51,307.43 254.64,308.32 253.95,310.41 C253.13,312.88 252.01,312.45 250.76,309.15 L250.76,309.15 ZM305.12,183.85 C305.27,181.48 307.28,174.6 309.6,168.57 C313.83,157.57 313.83,157.57 314.06,168.96 C314.2,175.51 312.3,182.01 309.6,184.26 C305.8,187.4 304.94,187.34 305.12,183.85 L305.12,183.85 ZM135.46,168.71 C131.17,165.41 128.39,161.97 129.3,161.07 C130.21,160.16 135.13,162.85 140.23,167.03 C151.17,175.95 146.86,177.47 135.46,168.71 L135.46,168.71 ZM157.51,156.64 C157.33,151.19 166.83,133.03 168.82,135.01 C169.69,135.88 167.52,142.02 164.02,148.65 C160.51,155.29 157.59,158.87 157.51,156.64 L157.51,156.64 ZM794.51,156.5 C794.51,145.07 858.42,68.13 867.92,68.13 C869.74,68.13 862.67,76.96 852.23,87.75 C841.78,98.54 825.68,117.95 816.44,130.9 C795.63,160.08 794.51,161.4 794.51,156.5 L794.51,156.5 ZM315.76,134.82 C316.94,130.08 319.4,124.79 321.27,123.06 C323.63,120.86 324.04,121.65 322.62,125.67 C321.49,128.82 320.58,134.12 320.58,137.43 C320.58,140.75 319.03,143.45 317.11,143.45 C314.88,143.45 314.39,140.32 315.76,134.82 L315.76,134.82 ZM512.88,61.03 C506.47,52.73 505.48,49.29 509.54,49.29 C514.7,49.29 522.29,60.96 518.6,63.24 C517.11,64.17 514.53,63.16 512.88,61.03 L512.88,61.03 ZM-76.08,24.3 C-80.94,15.38 -84.24,7.38 -83.39,6.55 C-81.31,4.46 -65.06,33.96 -66.27,37.61 C-66.82,39.22 -71.23,33.22 -76.08,24.3 L-76.08,24.3 ZM515.17,35.96 C515.17,34.67 521.77,33.6 529.83,33.6 C537.87,33.6 543.4,34.67 542.11,35.96 C540.81,37.24 534.23,38.31 527.47,38.31 C520.7,38.31 515.19,37.24 515.17,35.96 L515.17,35.96 ZM261.74,25.1 C251.54,13.82 251.54,13.82 251.21,24.49 C250.9,35.17 250.9,35.17 248.35,24.43 C243.75,4.84 253.48,-4.46 264.6,8.94 C269.4,14.73 273.38,22.15 273.42,25.4 C273.49,30.43 274.51,30.05 280.15,22.87 C289.13,11.45 291.62,15.11 283.05,27.14 C274.6,39 274.26,38.97 261.74,25.1 L261.74,25.1 ZM276.77,-19.26 C270.83,-22.43 265.34,-27.02 264.53,-29.45 C263.29,-33.22 263.84,-33.24 268.29,-29.56 C272.95,-25.71 273.5,-26.28 273.5,-34.87 C273.5,-40.17 275.01,-45.41 276.85,-46.56 C279.1,-47.94 279.52,-45.04 278.12,-37.59 C275.88,-25.68 281.58,-19.76 295.28,-19.76 C298.84,-19.76 301.75,-18.35 301.75,-16.62 C301.75,-11.58 288.44,-12.99 276.77,-19.26 L276.77,-19.26 ZM174.65,-83.28 C169.48,-88.08 164.77,-90.57 164.19,-88.81 C163.59,-87.05 158.93,-88.61 153.79,-92.25 C148.65,-95.91 144.95,-99.39 145.54,-99.98 C149.41,-103.85 194.96,-81.45 195.03,-75.65 C195.07,-70.78 183.45,-75.15 174.65,-83.28 L174.65,-83.28 ZM-178.11,-111.12 C-182.24,-114.47 -184.91,-117.91 -184.05,-118.77 C-183.18,-119.63 -179.1,-117.61 -174.97,-114.26 C-170.84,-110.92 -168.17,-107.46 -169.03,-106.61 C-169.89,-105.75 -173.98,-107.77 -178.11,-111.12 L-178.11,-111.12 ZM992.23,-132.73 C992.23,-136.22 994.34,-139.02 996.95,-139.02 C999.57,-139.02 1001.66,-136.22 1001.66,-132.73 C1001.66,-129.25 999.57,-126.47 996.95,-126.47 C994.34,-126.47 992.23,-129.25 992.23,-132.73 L992.23,-132.73 ZM662.69,-163.59 C662.69,-168.39 671.57,-186.1 673.97,-186.1 C676.47,-186.1 671.94,-172.95 666.98,-165.78 C664.62,-162.38 662.69,-161.39 662.69,-163.59 L662.69,-163.59 ZM-82.54,-364.81 C-87.57,-370.05 -90.96,-375.08 -90.06,-375.96 C-87.39,-378.63 -70.87,-362.88 -72.19,-358.92 C-72.89,-356.81 -77.28,-359.31 -82.54,-364.81 L-82.54,-364.81 ZM709.86,-375.76 C704.95,-388.68 706.52,-393.13 711.75,-381.11 C714.29,-375.3 715.63,-369.8 714.72,-368.91 C713.82,-368 711.64,-371.09 709.86,-375.76 L709.86,-375.76 ZM-101.22,-407.63 C-104.66,-416.57 -103.02,-420.05 -98.31,-413.83 C-95.78,-410.47 -93.71,-406.59 -93.71,-405.19 C-93.71,-400.7 -99.25,-402.49 -101.22,-407.63 L-101.22,-407.63 ZM-114.62,-431.35 C-120.04,-438.12 -128.83,-456.47 -127.36,-457.93 C-125.08,-460.22 -108.69,-434.57 -109.98,-430.72 C-110.85,-428.14 -112.2,-428.32 -114.62,-431.35 L-114.62,-431.35 ZM772.54,-489.74 C772.54,-492.53 789.54,-506.23 793.01,-506.23 C796.49,-506.23 791.25,-500.29 781.85,-493.62 C776.73,-489.96 772.54,-488.21 772.54,-489.74 L772.54,-489.74 Z" style="fill:#DAD7CD;" />
					<path d="M240.55,2178.95 C99.75,2147.15 32.79,2093.56 -2.77,1984.24 C-10.08,1961.79 -18.8,1935.67 -22.16,1926.16 C-35.74,1887.72 -43.05,1863.8 -48,1841.43 C-50.86,1828.47 -56.57,1807.3 -60.71,1794.35 C-69.27,1767.45 -79.6,1722.6 -95.4,1643.7 C-101.45,1613.49 -107.83,1584.3 -109.57,1578.84 C-111.32,1573.39 -115.48,1550.26 -118.84,1527.46 C-122.19,1504.65 -125.64,1483.69 -126.54,1480.88 C-127.42,1478.08 -131.05,1455.31 -134.6,1430.27 C-138.15,1405.24 -143.85,1364.98 -147.26,1340.83 C-150.68,1316.65 -154.77,1278.18 -156.35,1255.31 C-157.92,1232.45 -160,1212.5 -160.94,1210.97 C-163.74,1206.46 -169.06,1112.22 -172.16,1012.84 C-175.03,920.25 -175.03,920.25 -164.08,910.42 C-154.08,901.42 -153.32,899.53 -155.14,888.08 C-159.49,860.88 -139.76,836.39 -108.66,830.4 C-75.57,824.04 -69.58,823.85 -59.75,828.94 C-46.94,835.57 -8.35,835.74 1.61,829.21 C6.46,826.03 17.38,824.39 34.99,824.2 C56.43,823.98 63.19,822.64 72.39,816.85 C123.96,784.3 169.66,779.99 196.19,805.17 C208.31,816.67 208.31,816.67 206.12,755.47 C203.73,689.26 199.88,630 194.88,582.85 C193.14,566.46 190.49,539.63 188.96,523.23 C183.28,461.71 172.89,439.05 144.82,426.92 C138.79,424.31 126.77,416.77 118.15,410.16 C107.29,401.85 98.59,397.83 89.92,397.12 C75.06,395.93 71.75,388.31 81.49,377.78 C87.77,371 87.77,371 74.7,354.8 C7.78,271.78 -6.67,257.13 -44.57,233.83 C-61.51,223.43 -68.61,217.23 -68.61,212.83 C-68.61,202.09 -62.34,201.8 -31.52,211.13 C-23.7,213.51 -31.58,199.29 -59.59,160.48 C-65.72,151.98 -73.74,138.66 -77.42,130.88 C-89.53,105.28 -109.83,83.99 -200.05,2.22 C-232.93,-27.58 -274.79,-69.56 -298.62,-96.65 C-336.67,-139.88 -426.35,-230.99 -484.25,-285.25 C-505.44,-305.1 -508,-308.73 -508,-318.99 C-508,-333.67 -508.72,-333.94 -486.29,-310.58 C-474.35,-298.16 -460.42,-287.45 -449.14,-282.06 C-427.1,-271.52 -428.67,-272.43 -390.75,-248.22 C-304.01,-192.83 -311.75,-196.02 -323.52,-220.56 C-329.32,-232.62 -334.15,-250.26 -337.08,-269.99 C-339.57,-286.85 -342.45,-304.54 -343.45,-309.3 C-346.44,-323.29 -337.94,-323.07 -309.48,-308.4 C-247.21,-276.32 -231.09,-259.67 -195.62,-190.81 C-180.53,-161.46 -162.92,-129.69 -156.49,-120.18 C-150.09,-110.7 -142.44,-98.27 -139.51,-92.58 C-136.59,-86.9 -128.6,-74.9 -121.72,-65.91 C-114.85,-56.93 -104.33,-39.85 -98.33,-27.96 C-90.57,-12.57 -87.43,-8.56 -87.43,-14.03 C-87.43,-35.17 -58.98,-101.3 -39.97,-124.38 C-21.43,-146.84 -14.57,-133.74 -30.94,-107.15 C-36.12,-98.73 -40.38,-90.1 -40.39,-87.97 C-40.43,-85.85 -42.56,-78.01 -45.15,-70.58 C-70.26,1.48 -33.31,99.48 70.76,237.01 C93.38,266.87 115.07,295.83 119,301.35 C134.96,323.81 177.59,360.1 180.1,353.36 C182.55,346.73 174.68,328.74 157.39,301.46 C146.05,283.6 144.73,269 154.45,269 C159.74,269 160.53,267.68 158.75,261.94 C135.46,186.85 112.15,152.35 82.08,148.43 C57.61,145.24 31.83,127.11 31.83,113.12 C31.83,105.45 41.32,104.49 46.33,111.65 C49.97,116.84 54.34,118.36 65.75,118.42 C77.13,118.5 83.28,120.64 92.8,127.83 C108.39,139.63 109.05,138.72 104.06,112.22 C99.14,86.18 88.55,71.54 66.63,60.41 C58.49,56.3 49.91,50.6 47.56,47.77 C45.2,44.93 39.31,40.56 34.47,38.05 C24.86,33.08 20.62,22.27 24.02,11.5 C32.88,-16.38 147,47.58 160.31,87.89 C164.96,101.99 168.43,100.77 171.1,84.07 C173.96,66.16 193.96,60.52 212.19,72.48 C224.56,80.57 218.3,123.23 204.21,126.91 C195.46,129.2 191.41,144.59 196.38,156.8 C198.65,162.41 202.3,179 204.5,193.67 C207.09,211.15 212.65,229.7 220.58,247.44 C227.26,262.34 232.71,276.28 232.71,278.4 C232.71,281.18 235.96,281.59 244.47,279.84 C250.95,278.52 261.9,276.59 268.79,275.55 C281.36,273.69 281.36,273.69 281.26,217.2 C281.12,141.42 267.13,67.06 251.42,58.64 C247.98,56.8 241.84,50.06 237.78,43.67 C233.71,37.28 221.02,22.46 209.57,10.78 C198.14,-0.93 188.76,-13.05 188.76,-16.2 C188.76,-19.32 170.57,-40.97 148.32,-64.29 C99.82,-115.14 90.71,-129.61 107.17,-129.61 C117.39,-129.61 117.85,-128.84 64.83,-202.4 C22.8,-260.73 -52.35,-329.86 -99.99,-354.03 C-142.62,-375.66 -155.9,-384.02 -181.25,-405.24 C-219.01,-436.83 -233.67,-450.58 -258.82,-477.99 C-344.1,-570.9 -408.41,-634.6 -425.31,-642.86 C-445.2,-652.58 -454.92,-664.57 -473.3,-702.05 C-496.04,-748.37 -492.57,-765.24 -466.94,-733.06 C-430.01,-686.72 -330.37,-622.44 -266.33,-603.65 C-253.38,-599.85 -239.39,-594.57 -235.24,-591.9 C-228.16,-587.35 -227.86,-587.41 -230.23,-592.94 C-241.65,-619.41 -249,-646.87 -257.01,-692.99 C-266.26,-746.19 -281.33,-795.54 -297.4,-825.2 C-314,-855.86 -299.16,-856.15 -267.52,-825.77 C-253.84,-812.62 -245.78,-801.58 -239.83,-787.77 C-235.22,-777.07 -228.38,-761.24 -224.64,-752.61 C-220.88,-743.97 -212.13,-729.15 -205.19,-719.66 C-177.61,-681.94 -86.75,-538.81 -71.87,-509.64 C-64.05,-494.31 -42.66,-465.22 -40.66,-467.21 C-39.84,-468.03 -39.51,-475.02 -39.91,-482.76 C-41.9,-521.25 -3.02,-474.17 8.1,-424.63 C17.82,-381.32 60.2,-310.11 82.82,-299.12 C101.14,-290.21 109.65,-276.81 126.73,-230.02 C136.09,-204.32 171.95,-150.2 205.24,-111.51 C217,-97.85 217.02,-97.85 217.06,-106.66 C217.21,-133.72 233.57,-128.82 236.34,-100.88 C238.52,-78.82 241.66,-70.7 253.57,-56.39 C260.95,-47.52 260.95,-47.52 260.95,-56.14 C260.95,-60.89 263.21,-67.26 265.98,-70.33 C276.55,-82.01 254.18,-130.32 222.88,-163.35 C200.9,-186.55 198.43,-191.37 205.08,-198.02 C210.04,-202.98 216.66,-202.75 227.21,-197.25 C231.96,-194.77 235.85,-193.45 235.85,-194.3 C235.85,-206.55 202.5,-301.08 194.99,-310.13 C189.67,-316.55 187.81,-341.62 191.77,-353.62 C197.27,-370.26 207.04,-369.13 222.12,-350.09 C252.93,-311.21 251.5,-311.43 262.54,-343.96 C278.97,-392.36 300.51,-430.91 311.14,-430.91 C317.19,-430.91 318.35,-427.5 322.17,-398.58 C329.35,-344.17 333.4,-364.23 330.93,-441.89 C327.46,-550.68 328.48,-586.78 336.07,-625.5 C340.83,-649.72 342.56,-670.93 342.59,-705.54 C342.7,-805.82 355.72,-889.95 385.74,-984.04 C396.84,-1018.88 397.94,-1020.89 405.83,-1020.93 C424.18,-1021 477.3,-887.37 483.79,-824.86 C487.25,-791.55 491.36,-771.31 508.81,-701.7 C515.83,-673.7 522.93,-640.5 524.58,-627.94 C526.23,-615.39 529.03,-596.63 530.79,-586.26 C534.73,-562.94 534.78,-471.07 530.88,-404.38 C529.27,-376.84 528.35,-353.92 528.84,-353.44 C532.83,-349.43 565.32,-402.87 565.82,-414.26 C566.56,-430.7 568.43,-434.32 574.54,-431.05 C583.77,-426.12 586.14,-375.44 578.06,-356.12 C574.68,-348.06 567.12,-328.55 561.28,-312.78 C555.44,-297.01 544.06,-274.19 536.02,-262.09 C509.39,-222.04 488.6,-156.2 486.37,-104.9 C485.36,-81.76 485.36,-81.76 500.27,-77.91 C508.47,-75.81 515.17,-75.27 515.17,-76.73 C515.17,-78.2 518,-79.39 521.46,-79.39 C529.78,-79.39 529.71,-68.97 521.25,-49.84 C517.69,-41.78 515.38,-32.77 516.12,-29.83 C517.06,-26.14 519.2,-28.54 522.98,-37.53 C526,-44.72 531.02,-51.27 534.13,-52.07 C537.25,-52.89 542.93,-59.72 546.75,-67.26 C550.58,-74.79 558.61,-88.63 564.58,-97.99 C573.28,-111.62 575.1,-117.15 573.74,-125.62 C571.85,-137.24 577.73,-142.57 585.42,-136.19 C588.83,-133.36 592.32,-137.82 603.03,-158.59 C610.37,-172.85 618.87,-188.06 621.9,-192.38 C628.34,-201.55 634.65,-220.67 644.16,-259.86 C647.93,-275.4 653.82,-297.99 657.24,-310.07 C664.91,-337.16 665.63,-379.37 658.76,-399.52 C656.13,-407.28 653.45,-423.53 652.83,-435.62 C651.35,-464.63 657.19,-465.06 676.69,-437.35 C684.53,-426.23 690.93,-419.52 690.93,-422.44 C690.93,-425.38 692.96,-427.77 695.43,-427.77 C697.91,-427.77 700.8,-430.94 701.87,-434.84 C702.92,-438.72 708.54,-454.6 714.32,-470.13 C728.81,-508.95 734.87,-531.25 734.9,-545.74 C734.96,-589.25 763.08,-712.16 782.25,-752.61 C807.43,-805.82 902.73,-911.19 922.22,-907.4 C944.67,-903.04 945.02,-783.86 922.74,-728.14 C912.44,-702.39 904.21,-672.39 902.74,-655.32 C901.16,-636.75 885.69,-592.86 872.71,-570.15 C862.85,-552.87 847.86,-509.23 847.86,-497.76 C847.86,-486.63 835.25,-455.65 824.64,-440.77 C799.59,-405.62 798.46,-401.6 817.26,-414.7 C837.15,-428.54 905.35,-467.87 921.42,-474.77 C936.86,-481.38 947.43,-495.34 959.53,-525.06 C966.91,-543.18 977.17,-548.91 979.02,-535.95 C979.79,-530.62 983.71,-533.19 1002.87,-551.64 C1037.95,-585.4 1085.57,-628.64 1087.66,-628.64 C1091.68,-628.64 1089.25,-612.62 1083.88,-603.79 C1080.77,-598.67 1061.35,-579.04 1040.73,-560.17 C985.95,-510.08 985.26,-509.23 989.05,-498.17 C992.5,-488.09 999.77,-448.93 1005.04,-412.07 C1006.87,-399.13 1009.98,-385.26 1011.95,-381.27 C1014.15,-376.75 1014.37,-373.2 1012.5,-371.86 C1007,-367.9 1008.67,-246.64 1014.21,-247 C1023.64,-247.61 1021.64,-225.54 1009.92,-199.46 C993.74,-163.44 984.69,-123.66 991.06,-116.62 C997.48,-109.52 995.41,-100.03 987.19,-98.85 C981.71,-98.05 979.97,-94.22 976.51,-75.31 C971.64,-48.62 963,-30.13 942.13,-1.71 C928.62,16.7 927.41,19.57 931.87,22.82 C939.61,28.49 930.55,48.62 905.1,82.36 C868.45,130.91 859.61,144.23 844.69,173.26 C836.71,188.81 822.02,216.7 812.06,235.26 C795.68,265.78 794.58,269 800.52,269 C816.79,269 808.75,285.92 775.26,322.19 C730.49,370.7 726.17,377.44 735.2,384.76 C745.52,393.11 741.2,400.81 726.2,400.81 C716.32,400.81 712,403.04 701.93,413.38 C695.18,420.27 687.93,425.93 685.83,425.93 C683.72,425.93 677.77,430.15 672.6,435.32 C654.49,453.43 653.09,469.11 653.89,643.32 C654.29,728.31 654.65,811.27 654.73,827.67 C654.79,844.07 655.91,857.83 657.19,858.27 C658.5,858.69 674.74,859.04 693.29,859.02 C727.03,859.01 727.03,859.01 734.64,847.84 C753.05,820.8 782.69,820.27 822.76,846.25 C830.53,851.29 840.21,855.53 844.28,855.66 C891.39,857.23 963.99,887.45 963.99,905.47 C963.99,909.7 968.19,917.93 973.31,923.76 C984,935.93 984.85,1051.64 974.56,1092.43 C972.02,1102.53 967.93,1137.84 965.48,1170.89 C960.65,1236.41 959.03,1252.73 954.55,1281.2 C952.93,1291.55 951,1304.96 950.28,1311.01 C949.54,1317.04 946.68,1338.23 943.93,1358.09 C941.18,1377.94 936.03,1417.8 932.5,1446.67 C928.96,1475.54 923.45,1509.44 920.26,1521.99 C917.05,1534.56 913.47,1550.48 912.28,1557.38 C908.32,1580.52 892.03,1644.91 880.52,1682.94 C874.25,1703.64 865.92,1732.59 862.01,1747.28 C851.58,1786.42 824.61,1869.11 791.36,1963.83 C782.56,1988.85 773.97,2014.99 772.24,2021.89 C759.22,2074.15 653.52,2155.75 579.08,2171.02 C568.96,2173.1 559.16,2176.03 557.3,2177.53 C552.04,2181.78 512.99,2186.59 486.93,2186.2 C463.38,2185.84 463.38,2185.84 497.91,2180.56 C516.9,2177.65 534.56,2174.49 537.15,2173.54 C539.74,2172.59 554.57,2168.79 570.11,2165.1 C655.1,2144.9 752.64,2072.5 762.09,2022.59 C763.15,2017.03 765.53,2009.65 767.4,2006.2 C769.27,2002.76 776.61,1982.98 783.69,1962.26 C790.78,1941.54 802.29,1908.36 809.28,1888.51 C824.56,1845.01 849.68,1766.22 853.77,1748.83 C855.4,1741.94 863.22,1715.11 871.14,1689.2 C879.07,1663.32 887.71,1632.95 890.35,1621.72 C892.99,1610.5 897.15,1592.85 899.62,1582.5 C902.07,1572.13 904.96,1558.71 906.04,1552.68 C907.14,1546.63 911.27,1527.56 915.23,1510.3 C919.19,1493.04 924.85,1457.74 927.82,1431.84 C930.78,1405.95 937.95,1350.86 943.73,1309.44 C949.52,1268 956.5,1203.88 959.25,1166.93 C961.98,1129.99 965.12,1098.31 966.22,1096.51 C967.34,1094.72 968.19,1077.63 968.12,1058.53 C968.04,1032.08 968.56,1027.56 970.31,1039.53 C971.92,1050.66 972.68,1042.01 972.88,1009.7 C973.18,962.85 974,951.57 977.28,948.29 C980.67,944.9 972.93,928.06 966.35,924.54 C960.21,921.26 960.03,921.73 962.01,936.59 C964.27,953.68 960.27,959.77 940.05,969.98 C913.33,983.48 815.52,1002.14 741.15,1007.94 C618.08,1017.53 515.17,1021.18 515.17,1015.96 C515.17,1014.05 516.31,1013.17 517.69,1014.02 C524.46,1018.21 527.3,1010.79 524.18,997.07 C514.7,955.66 524.91,920.55 548.46,913.44 C556.39,911.05 558.26,909.67 553.8,909.51 C542.38,909.12 503.05,925.18 493.4,934.19 C483.35,943.58 470.66,939.35 431.23,913.48 C422.17,907.53 409.46,900.73 402.99,898.34 C396.5,895.97 393.33,893.89 395.92,893.75 C400.1,893.5 400.1,893.14 395.92,890.44 C390.04,886.65 369.81,886.31 372.12,890.03 C373.05,891.54 367.45,895.2 359.66,898.17 C343.99,904.17 333.13,920.11 333.13,937.2 C333.13,945.42 330.87,947.77 314.49,956.51 C298.92,964.8 262.95,992.24 245.61,1009.05 C242.23,1012.3 233.93,1012.84 209.51,1011.36 C154.5,1008.01 42.92,996.69 40.27,994.16 C28.71,983.18 126,900.18 163.66,888.9 C174.56,885.63 198.95,874.65 203.6,870.91 C209.59,866.11 235.84,865.16 252.34,869.18 C270.08,873.49 276.5,870.05 270.05,859.7 C266.59,854.18 267.22,851.81 274.63,842.09 C282.6,831.66 286.73,829.47 303.32,826.96 C309.98,825.94 309.82,826.8 311.3,783.73 C312.44,750.32 315.76,754.56 317.44,791.57 C318.92,823.82 319.45,826.16 325.7,827.06 C335.28,828.42 339.4,796.6 331.8,779.76 C329.86,775.47 330.43,774.67 334.36,776.18 C338.33,777.7 339.34,776.18 339.05,769.15 C338.83,763.85 338.1,762.43 337.25,765.68 C336.46,768.7 334.51,771.17 332.91,771.17 C328.01,771.17 329.68,762.24 335.14,759.18 C339.24,756.9 339.98,752.96 338.72,740 C337.56,727.81 338.44,722.23 342.21,717.88 C348.86,710.26 361.39,706.51 361.39,712.15 C361.39,714.44 358.2,717.73 354.32,719.42 C346.26,722.96 342.49,756.75 343.56,815.68 C344.1,844.9 343.91,845.86 338.39,840.88 C326.57,830.15 291.71,831.63 281.91,843.28 C268.74,858.91 273.11,861.41 315.88,862.68 C330.57,863.12 331.95,863.51 322.15,864.49 C301.17,866.59 303.46,870.44 326.02,871.01 C338.02,871.31 345.51,870.41 343.23,868.97 C335.87,864.27 342.29,855.72 351.46,858.03 C355.99,859.16 361.44,860.09 363.54,860.09 C365.66,860.09 366.73,861.16 365.93,862.45 C365.15,863.73 366.26,865.51 368.43,866.37 C371.55,867.65 371.57,868.02 368.44,868.21 C360.02,868.75 365.07,874.75 373.94,874.75 C382.74,874.75 388,868.62 379.44,868.34 C377.27,868.27 380.21,864.19 385.96,859.27 C393.15,853.12 395.12,849.8 392.24,848.65 C389.57,847.59 390.17,846.89 393.89,846.74 C397.9,846.58 399.14,848.01 397.87,851.32 C396.29,855.41 399.47,856.08 418.73,855.71 C453.3,855.05 474.3,867.19 441.42,868.84 C435.94,869.12 441.17,870.94 453.98,873.22 L475.95,877.13 L455.55,878.06 C439.01,878.8 437.67,879.21 448.48,880.18 C467.61,881.91 464.34,890.44 444.57,890.44 C435.61,890.44 427.3,893.41 427.3,896.61 C427.3,897.92 431.18,898.5 435.93,897.9 C444.32,896.86 444.35,896.89 436.74,899.27 C431.5,900.88 430.18,902.47 432.75,904.06 C434.86,905.36 439.35,904.94 442.71,903.13 C450.1,899.19 478.59,898.72 476.2,902.58 C475.28,904.07 468.54,906.26 461.23,907.43 C447.94,909.56 447.94,909.56 457.24,917.06 C477.11,933.13 479.27,933.43 498.89,922.8 C508.7,917.46 524.87,910.78 534.79,907.95 C544.8,905.11 552.84,901.01 552.84,898.76 C552.84,896.53 556.5,891.52 560.98,887.63 C572.23,877.86 571.72,877.76 527.13,881.78 C497.75,884.44 485.58,884.45 480.15,881.83 C472.81,878.31 472.81,878.31 480.65,877.86 C487.81,877.45 487.54,877.01 477.51,872.89 C465.66,868.04 479.83,868.16 508.91,873.17 C519.89,875.08 519.89,875.08 509.33,870.21 C503.52,867.52 493.75,865.32 487.62,865.32 C468.25,865.32 477.98,862.76 516.53,857.7 C560.78,851.91 559.27,852.91 549.98,835.38 C532.99,803.37 504.12,785.13 484.92,794.29 C468.9,801.92 468.1,801.18 468.1,778.78 C468.1,758.71 475.23,750.19 480.02,764.55 C480.9,767.19 480.07,768.04 477.91,766.72 C475.97,765.51 474.19,765.67 473.97,767.07 C472.01,779.51 472.62,783.73 476.38,783.73 C478.73,783.73 480.76,780.54 480.9,776.66 C481.12,770.25 481.43,770.4 484.29,778.23 C486.82,785.13 488.88,786.5 494.6,785.07 C498.52,784.08 507.05,785.49 513.54,788.21 C528.06,794.27 528.84,794.29 526.64,788.54 C525.67,785.99 526.17,783.12 527.77,782.13 C529.38,781.14 531.51,784.27 532.53,789.09 C533.55,793.91 535.36,799.38 536.55,801.25 C537.75,803.1 543.87,812.35 550.19,821.81 C566.13,845.67 567.33,858.03 553.86,859.62 C543.25,860.89 540.09,868.48 550.22,868.42 C556.27,868.38 556.72,867.79 552.84,865.02 C549.18,862.43 549.97,862.08 556.38,863.47 C560.92,864.46 572.21,863.95 581.5,862.38 C590.76,860.8 606.49,858.58 616.45,857.48 C633.76,855.53 639.03,849.63 623.45,849.63 C609.28,849.63 612.63,844.15 628.04,842.1 C647.19,839.56 648.51,836.32 645.29,799.8 C643.98,784.93 643.17,741.85 643.5,704.11 L644.11,635.49 L589.43,637 C529.01,638.68 527.73,638.98 527.73,651.91 C527.73,656.87 526.39,661.77 524.76,662.79 C522.98,663.89 522.4,659.24 523.33,651.2 C524.99,636.83 531.42,629.35 539.81,632.02 C543.86,633.31 544.06,633 540.72,630.61 C537.1,628.03 537.1,627.31 540.72,626.02 C545.15,624.43 537.46,623.19 487.01,617.35 C470.66,615.47 456.19,612.23 454.84,610.16 C453.02,607.34 451.67,607.55 449.44,611 C445.63,616.93 445.81,617.05 462.18,620.26 C475.95,622.97 475.95,622.97 463.1,623.32 C452.64,623.59 449.61,625.09 446.7,631.5 C442.85,639.94 434.1,641.76 427.79,635.45 C424.7,632.35 423.34,632.45 421.19,635.93 C419.06,639.39 413.12,639.86 392.81,638.16 C368.76,636.15 367.01,636.42 365.48,642.36 C364.56,645.85 362.55,647.92 361.03,646.98 C356.87,644.4 357.68,633.83 362.18,632.01 C364.33,631.14 362.54,630.33 358.17,630.18 C347.6,629.85 344.05,667.74 354.13,673.4 C359.4,676.35 359.43,676.74 354.48,678.64 C344.83,682.37 342.12,677.21 343.14,657.09 C344.13,637.79 344.13,637.79 314.31,638.67 C279.32,639.7 281.31,634.69 316.89,632.15 C329.53,631.25 340.56,629.82 341.39,628.99 C344.77,625.61 304.21,619.58 269.84,618.34 C242.83,617.37 232.8,615.91 231.59,612.75 C229,605.98 235.33,605.16 295.59,604.52 C353.9,603.9 368.81,598.94 314.31,598.28 C279.46,597.86 286.7,593.08 322.94,592.58 C345.7,592.26 345.7,592.26 345.7,583.06 C345.7,577.99 347,570.4 348.6,566.17 C351.45,558.7 351.07,558.46 332.91,556.4 C317.58,554.67 305.71,548.33 317.79,548.33 C319.97,548.33 320.53,545.11 319.31,539.7 C317.46,531.5 317.58,531.38 322.1,537.16 C324.73,540.51 326.86,544.23 326.86,545.44 C326.86,549.13 345.45,550.57 346.94,546.99 C347.79,544.95 348.43,545.17 348.59,547.54 C348.97,553.57 355.04,552.19 355.55,545.97 C355.8,542.96 357.12,546.13 358.49,553.04 C361.11,566.19 359.96,502.05 356.33,432.2 C354.92,404.82 355.3,393.92 357.61,396.12 C361.85,400.15 368.93,549.05 366.06,573.82 C363.9,592.26 363.9,592.26 376.5,592.26 C383.76,592.26 389.67,593.93 390.4,596.16 C391.33,598.96 393.29,598.47 397.3,594.48 C402.41,589.36 403.21,589.33 406.58,593.94 C409.74,598.26 411.56,598.42 419.02,595.03 C426.3,591.71 428.23,591.81 430.66,595.59 C433.11,599.4 434.01,599.43 436.35,595.81 C438.61,592.3 439.67,592.5 442.13,596.91 C445.52,602.98 628.31,607.78 637.2,602.05 C640.54,599.88 641.97,583.78 643.53,530.64 C645.93,448.83 650.5,432.79 674.69,421.19 C688.55,414.54 690.18,410.13 684.16,395.53 C682.15,390.66 680.79,385.04 681.1,383.01 C681.43,380.97 680.24,378.43 678.46,377.33 C676.69,376.23 675.29,372.95 675.34,370.02 C675.48,362.36 690.9,388.43 690.92,396.37 C690.95,406.33 694.14,407.5 702.76,400.72 C707.22,397.2 715.42,394.54 721.77,394.54 C732.92,394.54 732.92,394.54 726.06,388.14 C722.27,384.62 719.18,381.15 719.18,380.41 C719.18,374.88 743.09,343.85 767.89,317.18 C801.19,281.38 801.44,280.94 788.01,283.63 C775.9,286.06 775.79,286.35 819.3,201.52 C852.79,136.22 857.6,128.45 895.55,77.83 C923.45,40.65 925.05,36.65 907.57,47.69 C892.93,56.93 887.18,57.92 897.31,49.47 C902.3,45.3 903.23,43.03 900.45,41.75 C898.28,40.75 900.04,40.62 904.36,41.45 C908.68,42.29 910.39,42.13 908.16,41.12 C902.68,38.63 922.77,1.82 938.83,-15.05 C954.93,-31.95 962.31,-48.13 966.77,-76.25 C968.83,-89.19 971.81,-104.02 973.4,-109.2 C974.99,-114.39 979.21,-132.04 982.78,-148.43 C986.39,-165.02 994.12,-187.82 1000.17,-199.81 C1009.51,-218.28 1015.59,-241.03 1008.67,-231.6 C1007.41,-229.87 1004.63,-228.13 1002.52,-227.71 C998.96,-227 999.6,-286.38 1003.28,-298.11 C1006.81,-309.37 996.4,-415.28 987.84,-455.05 C978.19,-499.93 977.64,-500.34 956.7,-478.03 C946.68,-467.37 937.26,-455.59 935.75,-451.83 C933.58,-446.46 932.97,-446.18 932.81,-450.53 C932.7,-453.54 930.22,-456.01 927.31,-456.01 C923.18,-456.01 923.98,-458.07 931.04,-465.44 C936,-470.6 938.73,-474.8 937.11,-474.75 C928.47,-474.47 835.42,-420.9 811.51,-402.46 C775.24,-374.47 778.19,-391.56 819.41,-448.17 C827.56,-459.37 833.93,-477.33 843.87,-517.23 C845.6,-524.12 848.11,-532.38 849.46,-535.57 C851.1,-539.45 842.75,-535.46 824.42,-523.65 C809.3,-513.9 796.27,-506.56 795.49,-507.35 C794.7,-508.13 802.18,-514.21 812.11,-520.85 C855.46,-549.82 882.98,-598.75 894.81,-667.87 C898.69,-690.61 905.81,-716.89 910.36,-725.42 C921.72,-746.63 936.34,-860.29 928.9,-869.39 C927.19,-871.46 926.56,-874.42 927.5,-875.92 C929.81,-879.68 922.84,-901.7 919.33,-901.7 C914.51,-901.7 882.29,-869.69 864.06,-846.77 C854.43,-834.69 842.91,-821.27 838.44,-816.95 C828.57,-807.44 800.48,-768.27 799.6,-762.81 C799.26,-760.66 796.62,-755.36 793.76,-751.04 C784.62,-737.3 772.81,-702.06 774.79,-694.48 C776.09,-689.5 775.55,-687.97 773.04,-689.53 C770.76,-690.94 769.4,-689.5 769.4,-685.67 C769.4,-682.32 764.53,-660.55 758.57,-637.3 C752.62,-614.07 746.2,-579.65 744.31,-560.85 C740.56,-523.38 736.03,-504.69 721.77,-467.68 C716.59,-454.24 709.75,-434.46 706.6,-423.73 C703.42,-413 700.72,-406.7 700.6,-409.72 C699.75,-429.26 673.14,-372.68 672.29,-349.54 C671.79,-335.43 665.91,-309.56 652.32,-261.42 C637.59,-209.19 637.75,-207.54 656.05,-225.27 C664.76,-233.74 674.06,-241.88 676.73,-243.35 C679.39,-244.84 684.42,-251.65 687.89,-258.45 C694.81,-272.05 705.62,-276.03 702.34,-263.77 C701.29,-259.89 700.38,-253.19 700.3,-248.87 C700.19,-242.14 699.72,-241.8 697.05,-246.38 C694.23,-251.19 692.8,-250.7 683.16,-241.67 C677.25,-236.14 668.97,-229.2 664.8,-226.26 C657.52,-221.14 603.06,-142.68 603.06,-137.31 C603.06,-132.07 589.69,-120.69 585.45,-122.32 C582.33,-123.51 581.09,-121.36 581.09,-114.72 C581.09,-109.6 577.65,-100.63 573.42,-94.75 C569.21,-88.89 561.14,-75.76 555.47,-65.57 C549.81,-55.39 543.03,-46.48 540.39,-45.77 C537.73,-45.07 532.05,-37.21 527.73,-28.29 C523.41,-19.38 516.48,-10.4 512.33,-8.33 C499.42,-1.88 495.3,12.93 502.39,27.57 C505.66,34.34 507.01,39.88 505.4,39.88 C503.79,39.88 501.18,36.49 499.59,32.34 C495.43,21.36 491.02,19.97 488.77,28.92 C487.7,33.22 485.47,36.74 483.84,36.74 C482.19,36.74 481.42,34.98 482.09,32.81 C506.79,-44.86 506.77,-44.8 491.33,-28.2 C478.53,-14.42 473.19,-14.51 472.48,-28.57 C472.2,-34.04 473.22,-37.73 474.74,-36.79 C476.27,-35.85 477.51,-32.33 477.51,-28.98 C477.51,-24.08 479.56,-25.21 487.8,-34.65 C507.43,-57.15 507.26,-56.55 494.57,-58.04 C484.94,-59.16 482.75,-58.25 480.43,-52.12 C474.77,-37.26 473.49,-45.98 475.32,-86.44 C477.91,-143.49 491.41,-210.58 503.88,-228.48 C507.49,-233.64 509.79,-237.89 508.97,-237.89 C508.15,-237.89 509.39,-242.47 511.72,-248.08 C514.04,-253.69 517.89,-258.29 520.26,-258.29 C522.65,-258.29 524.6,-261.2 524.6,-264.76 C524.6,-273.06 530,-283.64 537.32,-289.68 C546.45,-297.18 572.46,-367.01 573.58,-386.97 C574.11,-396.46 573.74,-401.41 572.76,-397.95 C567.01,-377.58 539.43,-344.14 526.42,-341.78 C517.47,-340.15 517.47,-340.15 519.45,-365.91 C532.64,-538.13 528.83,-588.97 492.18,-729.44 C486.04,-752.96 479.41,-787.56 477.43,-806.35 C473.52,-843.49 468.96,-863.2 456.5,-896.99 C449.12,-917.02 444.05,-929.1 427.51,-966.04 C424.43,-972.94 418.68,-986.76 414.77,-996.75 C410.86,-1006.74 407.26,-1014.5 406.77,-1014.01 C405.56,-1012.77 395.65,-976.53 394.93,-970.74 C394.6,-968.15 392.93,-964.97 391.21,-963.69 C389.21,-962.19 389.62,-960.32 392.32,-958.58 C395.01,-956.85 395.4,-955.11 393.37,-953.85 C391.61,-952.77 389.46,-953.65 388.58,-955.82 C386.95,-959.87 385.33,-945.23 386.34,-935.41 C386.65,-932.38 384.78,-927.79 382.2,-925.22 C376.16,-919.17 368.35,-892.15 366.29,-870.24 C363.78,-843.23 361.82,-832.25 358.85,-828.39 C357.34,-826.41 355.77,-811.65 355.37,-795.56 C355,-779.49 353.96,-763.25 353.08,-759.48 C352.22,-755.69 351.49,-732.13 351.49,-707.11 C351.49,-676.87 349.41,-648.47 345.26,-622.46 C337.89,-576.35 337.28,-553.42 340.58,-446.6 C344,-335.26 353.9,-274.75 384.67,-177.06 C393.75,-148.24 400.32,-115.88 393.83,-131.98 C392.95,-134.15 391.05,-135.19 389.6,-134.29 C388.16,-133.39 379.6,-142.6 370.56,-154.73 C352.33,-179.26 345.54,-182 360.78,-158.68 C393.07,-109.28 404.71,-67.83 405.55,0.64 C405.85,26.2 402.23,123.61 400.36,140.18 C399.31,149.59 397.91,168.66 397.28,182.55 C396.66,196.43 394.77,218.33 393.09,231.21 C391.43,244.08 391.21,256.67 392.62,259.19 C395.27,263.93 392.02,279.45 387.06,285.78 C385.5,287.78 383.34,296.46 382.24,305.09 C380.89,315.81 381.23,319.29 383.34,316.08 C385.86,312.19 386.41,312.48 386.45,317.81 C386.48,321.36 390.86,330.19 396.18,337.43 C401.51,344.67 404.6,350.59 403.05,350.59 C398.7,350.59 384.09,334.26 380.6,325.49 C377.48,317.65 377.48,317.65 377.23,325.49 C377.04,331.76 376.36,332.39 373.89,328.63 C372.2,326.04 371.66,319.87 372.72,314.9 C374.02,308.71 373.52,306.55 371.13,308.02 C369.23,309.2 367.66,308.76 367.66,307.03 C367.66,305.31 368.77,303.2 370.12,302.37 C371.49,301.52 372.18,290.76 371.68,278.44 C371.16,266.11 371.93,256.77 373.39,257.68 C377.16,260 376.77,249.02 373,246.56 C371,245.25 370.89,240.2 372.73,232.44 C374.3,225.79 375.56,200.92 375.54,177.19 C375.53,149.81 376.66,134.43 378.65,135.09 C382.09,136.25 382.22,138.36 382.9,210.66 C383.41,266.87 384.86,272.02 387.8,228.19 C388.9,211.79 390.39,193.43 391.11,187.4 C391.83,181.35 393.26,158.75 394.28,137.18 C395.31,115.6 396.66,90.53 397.3,81.46 C398.87,58.91 390.39,52.45 359.38,52.61 C323.25,52.8 311.66,55.2 313.47,62.09 C317.69,78.24 311.55,84.89 301.94,74.6 C289.54,61.34 282.44,64.26 284.44,81.79 C285.93,94.8 285.93,94.8 281.69,82.25 C275.92,65.21 288.46,51.7 300,62.49 C306.02,68.11 306.54,68.16 307.59,63.05 C308.2,60.02 306.79,56.02 304.45,54.15 C296.69,47.94 292.09,37.39 296.37,35.64 C299.17,34.5 298.95,33.22 295.57,30.87 C293.03,29.11 291.99,26.63 293.26,25.35 C297.36,21.25 302.72,29.86 302.44,40.06 C302.16,49.95 302.16,49.95 316.86,47.67 C324.95,46.43 341.8,45.65 354.32,45.95 C373.03,46.39 377.08,45.62 377.08,41.61 C377.08,38.94 374.96,36.74 372.37,36.74 C369.78,36.74 367.66,34.65 367.66,32.11 C367.66,28.46 369.34,28.12 375.51,30.46 C381.76,32.85 383.35,32.47 383.35,28.64 C383.35,21.13 389.6,26.85 389.85,34.57 C390.07,41.2 390.17,41.22 392.78,35.17 C397.28,24.66 396.31,22.46 385.72,19.34 C373.97,15.88 371.29,6.85 370.99,-30.38 C370.8,-51.99 370.8,-51.99 356.24,-50 C348.23,-48.9 329.27,-48 314.09,-48 C287.97,-48 286.43,-47.63 285.14,-40.94 C283.95,-34.78 283.73,-34.97 283.35,-42.36 C282.87,-52.03 291.62,-54.93 317.44,-53.72 C352.58,-52.06 372.01,-56.77 368.55,-66.1 C365.66,-73.95 361.88,-75.73 343.04,-78.09 C327.95,-79.97 325.78,-81.21 322.06,-90.1 C315.41,-106.03 305.6,-148.3 303.43,-170.4 C302.33,-181.62 300.71,-195.05 299.83,-200.22 C298.61,-207.43 299.01,-208.53 301.54,-204.93 C303.98,-201.47 304.37,-203.96 303.03,-214.34 C301.73,-224.61 303.38,-235.34 309.07,-253.58 C327.9,-313.98 330.07,-335.84 320.75,-371.47 C317.39,-384.3 314.28,-400.91 313.86,-408.35 C312.02,-439.63 296.36,-415.73 270.03,-341.45 C262.44,-320.07 256.3,-307.27 253.87,-307.83 C249.34,-308.87 221.34,-338.06 212.73,-350.69 C195.84,-375.49 193.8,-330.8 210.23,-295.94 C222.94,-268.99 246.52,-194.58 244.38,-188.17 C243.75,-186.27 252.86,-173.54 264.64,-159.91 C276.43,-146.28 286.05,-133.58 286.05,-131.7 C286.05,-127.86 284.94,-129.03 260.92,-157.41 C244.07,-177.33 224.54,-192.38 215.51,-192.38 C207.47,-192.38 209.99,-188.2 229.82,-168.74 C249.88,-149.04 256.07,-139.1 270.75,-103.05 C281.48,-76.73 281.56,-75.7 273.5,-68.39 C269.31,-64.59 267.24,-58.73 267.24,-50.66 C267.24,-42.49 265.82,-38.58 262.9,-38.58 C255.94,-38.58 233.45,-70.4 230.97,-83.72 C229.17,-93.37 228.11,-94.83 225.81,-90.73 C216.56,-74.21 139.26,-179.03 111.5,-245.72 C99.17,-275.37 89.51,-289.68 81.8,-289.68 C80.32,-289.68 79.93,-287.56 80.92,-284.96 C84.09,-276.67 77.01,-279.94 72.37,-288.89 C69.94,-293.63 65.64,-299.63 62.84,-302.23 C60.04,-304.82 46.97,-325.1 33.8,-347.28 C11.87,-384.22 4.61,-401.69 -5.76,-442.45 C-7.58,-449.66 -14,-461.45 -20.01,-468.64 C-30.94,-481.72 -30.94,-481.72 -30.94,-470.63 C-30.94,-457.13 -35.79,-443.46 -40.61,-443.46 C-42.58,-443.46 -43.3,-445.71 -42.23,-448.5 C-40.99,-451.74 -45.83,-460.57 -55.79,-473.26 C-64.32,-484.11 -75.82,-501.97 -81.35,-512.95 C-86.88,-523.93 -95.8,-539.26 -101.19,-547.04 C-106.56,-554.8 -112.53,-563.99 -114.43,-567.43 C-127.23,-590.58 -157.85,-640.28 -166.5,-651.97 C-172.22,-659.68 -180.42,-671.95 -184.72,-679.24 C-189.04,-686.53 -199.69,-701.07 -208.39,-711.57 C-222.34,-728.38 -241.22,-763.31 -241.22,-772.3 C-241.22,-779.21 -256.89,-802.52 -272.78,-819.3 C-289.95,-837.41 -296.82,-837.42 -285.68,-819.31 C-274.23,-800.73 -250.63,-720.85 -250.63,-700.68 C-250.63,-686.97 -238.24,-635.1 -230.51,-616.53 C-219,-588.87 -218.4,-585.7 -224.26,-583.45 C-227.12,-582.35 -231.05,-582.73 -232.99,-584.3 C-234.93,-585.87 -253.46,-593.13 -274.18,-600.43 C-337.63,-622.8 -407.86,-664.51 -458.56,-709.95 C-468.37,-718.75 -469.04,-717.57 -462.76,-702.55 C-460.32,-696.71 -459.26,-690.88 -460.4,-689.59 C-461.55,-688.32 -460.37,-688.43 -457.78,-689.84 C-455.19,-691.26 -454.07,-691.3 -455.3,-689.95 C-462.48,-681.99 -437.3,-652.1 -419.32,-647.26 C-409.96,-644.73 -397.79,-634.47 -365.04,-601.52 C-341.82,-578.16 -322.83,-559.84 -322.83,-560.82 C-322.83,-563.85 -344.52,-596.71 -347.9,-598.8 C-349.64,-599.88 -351.07,-602.27 -351.07,-604.09 C-351.07,-610.34 -340.7,-599.02 -326.82,-577.61 C-319.26,-565.94 -313.95,-554.97 -315.02,-553.23 C-317.25,-549.63 -240.89,-466.41 -211.41,-440.32 C-159.54,-394.42 -145.07,-384.24 -104.56,-365.08 C-68.97,-348.25 -67.16,-347.59 -70.16,-352.45 C-73.35,-357.58 -68.4,-356.01 -61.19,-349.6 C19.41,-277.8 51.58,-240.7 114.61,-146.87 C127.37,-127.88 136.34,-111.8 134.56,-111.14 C132.77,-110.48 134.71,-108.06 138.85,-105.75 C143,-103.45 144.54,-101.52 142.26,-101.48 C140,-101.41 135.29,-102.89 131.8,-104.74 C117.61,-112.33 123.33,-103.22 148.28,-78.4 C180.51,-46.37 197.62,-26.89 202.36,-16.87 C205.94,-9.28 210.07,-4.04 235.07,24.72 C242.4,33.18 248.4,41.16 248.4,42.44 C248.4,43.75 252.41,47.17 257.31,50.08 C266.25,55.36 282.93,97.23 282.93,114.4 C282.93,118.08 284.56,125.05 286.59,129.91 C288.93,135.58 290.5,164.78 290.96,211.29 C291.36,253.33 293.03,286.38 294.88,289.86 C296.88,293.59 297.14,302.38 295.6,313.03 C293.89,324.91 293,327.05 292.73,319.99 C292.34,309.75 282.99,305.2 278.22,312.94 C277.15,314.67 273.88,316.05 270.97,316 C266.8,315.96 267.31,314.67 273.35,310.02 C280.02,304.9 280.48,303.44 276.76,298.94 C273.03,294.47 273.33,293.56 279.05,292.06 C282.66,291.12 285,288.72 284.23,286.74 C282.11,281.24 262.16,280.96 249.5,286.25 C243.3,288.84 235.21,291 231.53,291.01 C226.08,291.06 225.72,291.62 229.57,294.11 C235.54,297.97 228.39,298.19 218.81,294.44 C213.75,292.46 213.56,291.77 217.63,290.19 C225.04,287.35 222.39,267.61 211.35,243.37 C206.1,231.85 200.07,211.37 197.95,197.86 C195.81,184.34 191.69,168.99 188.79,163.76 C180.81,149.39 178,135.99 183.37,138.04 C186.2,139.13 189.04,136.08 191.46,129.37 C193.52,123.69 197.77,118.36 200.92,117.55 C211.33,114.81 214.33,82.83 204.67,77.65 C196.3,73.18 182.55,73.58 181.08,78.32 C180.42,80.49 177.98,88.48 175.69,96.12 C169.44,116.81 162.9,115.44 152.64,91.33 C139.84,61.2 78.71,16.1 45.59,12.36 C17.69,9.22 28.89,31.09 64.79,49.87 C94.24,65.28 102.68,76.39 112.31,112.44 C119.86,140.81 119.81,146.59 111.99,146.59 C109.52,146.59 111.58,150.67 116.97,156.42 C136.26,177.08 172.84,260.9 168.04,273.43 C167,276.12 170,278.27 176.61,279.59 C182.21,280.71 188.99,283.55 191.69,285.89 C194.4,288.23 200.85,291.64 206.02,293.45 C213.91,296.21 214.31,296.79 208.47,297 C204.65,297.14 196.17,294.58 189.65,291.31 C161.86,277.42 156.08,279.59 167.33,299.67 C190.11,340.3 194.19,360.06 180.87,365.17 C175.85,367.1 114.71,315.59 112.04,307.18 C111.1,304.21 100.96,292.64 89.51,281.48 C68.71,261.15 68.71,261.15 70.68,271.74 C72.37,280.9 72,281.79 67.93,278.41 C61.94,273.45 61.93,266.22 67.87,259.64 C72.05,255.02 70.36,251.66 51.28,226.43 C39.59,211.01 21.95,186.08 12.07,171.05 C2.21,156.01 -11.02,138.7 -17.32,132.59 C-23.62,126.48 -27.31,121.49 -25.52,121.49 C-23.74,121.49 -20.51,123.64 -18.32,126.26 C-9.31,137.12 -12.29,126.59 -24.94,102.86 C-34.24,85.41 -39.26,78.76 -41.16,81.46 C-42.86,83.9 -43.14,82.41 -41.92,77.54 C-40.33,71.25 -40.65,70.62 -43.49,74.41 C-46.33,78.18 -46.65,77.55 -45.06,71.27 C-43.65,65.69 -43.96,64.69 -46.11,67.81 C-48.47,71.22 -50.68,69.23 -55.96,58.87 C-59.7,51.55 -62.06,44.85 -61.19,43.98 C-60.34,43.14 -56.78,47.86 -53.28,54.49 C-45.15,69.87 -45.15,67.39 -53.21,34.62 C-61.65,0.36 -60.89,-61.89 -51.83,-78.81 C-48.77,-84.54 -46.76,-91.59 -47.38,-94.5 C-49.73,-105.47 -81.16,-23.86 -81.16,-6.8 C-81.16,-2.04 -82.57,2.72 -84.3,3.79 C-86.01,4.85 -87.43,4.15 -87.43,2.22 C-87.43,0.28 -88.67,-0.52 -90.19,0.41 C-91.7,1.35 -98.41,-8.51 -105.1,-21.5 C-111.77,-34.5 -125.23,-55.17 -135.01,-67.45 C-144.87,-79.86 -152.02,-91.74 -151.09,-94.17 C-150.16,-96.57 -152.13,-101.65 -155.47,-105.43 C-163.77,-114.91 -180.81,-144.17 -198.78,-179.83 C-207.04,-196.23 -217.38,-215.99 -221.73,-223.76 C-240.23,-256.7 -278.53,-287.02 -335.87,-314.13 C-337,-314.67 -336.7,-309.74 -335.21,-303.17 C-333.71,-296.6 -330.9,-280.64 -328.97,-267.7 C-326.83,-253.44 -321.23,-235.29 -314.72,-221.66 C-301.61,-194.15 -300.41,-181.76 -311.27,-185.88 C-317.93,-188.4 -338.84,-201.24 -346.36,-207.41 C-367.2,-224.5 -447.47,-272.79 -450.32,-269.95 C-450.93,-269.32 -438.69,-256.2 -423.11,-240.79 C-369.44,-187.73 -276.22,-87.23 -273.16,-79.11 C-271.87,-75.71 -160.56,27.36 -138.29,45.79 C-114.13,65.77 -68.61,119.98 -68.61,128.78 C-68.61,131.37 -61.18,143.53 -52.13,155.79 C3.05,230.42 6.38,238.42 -23.16,225.35 C-47.51,214.57 -46.63,221.25 -21.51,237.92 C-3.39,249.95 11.82,265.49 50.65,311.64 C98.5,368.48 99.85,371.15 87.55,384.59 C80.48,392.28 80.48,392.28 88.9,390.27 C99.9,387.63 109.01,391.32 125.58,405.18 C142.48,419.3 146.88,419.38 150.68,405.62 C154.14,393.1 165.67,375.71 170.5,375.71 C172.31,375.71 171.21,379.59 168.05,384.33 C146.25,417.15 150.04,430.2 178.25,419.47 C185.38,416.76 186.13,415.56 182.38,412.97 C178.96,410.6 180.4,410.11 187.97,411.04 C193.6,411.73 198.18,410.96 198.18,409.36 C198.18,407.74 200.29,407.24 202.86,408.23 C209.68,410.83 276.61,403.31 274.67,400.15 C273.75,398.69 267.83,398.42 261.49,399.57 C255.16,400.72 250.99,400.54 252.25,399.21 C255.56,395.66 286.42,391.25 290.44,393.73 C292.38,394.94 290.5,396.77 286.02,398.02 C278.22,400.18 278.22,400.18 286.67,400.5 C291.3,400.67 295.98,399.4 297.05,397.69 C298.12,395.96 297.84,394.53 296.45,394.53 C295.06,394.51 293.69,388.67 293.41,381.55 C293.14,374.42 291.02,367.38 288.71,365.92 C285.3,363.77 285.39,363.24 289.2,363.16 C293.39,363.07 293.39,362.72 289.2,360.02 C286.05,357.99 285.8,356.95 288.41,356.92 C290.69,356.89 292.34,352.84 292.34,347.28 C292.34,328.19 297.74,341.56 299.52,365.04 C300.51,378.27 302.85,390.6 304.68,392.44 C310.28,398.05 308.56,403.5 301.75,401.72 C298.31,400.83 295.48,401.36 295.48,402.9 C295.48,404.46 299.14,406.03 303.6,406.4 C316.28,407.44 317.44,409.37 317.44,429.07 C317.44,439.22 318.95,448.46 320.8,449.6 C324.15,451.66 324.15,471.77 320.82,477.72 C318.46,481.88 312.49,445.5 311.53,421.22 C311.17,411.81 311.17,411.81 285.27,412.18 C244.73,412.78 201.32,416.88 201.32,420.12 C201.32,421.74 199.55,422.77 197.4,422.4 C195.24,422.03 188.22,422.83 181.8,424.17 C170.13,426.59 170.13,426.59 177.6,436.45 C181.72,441.89 186.04,451.97 187.2,458.89 C188.35,465.78 190.58,475.68 192.15,480.85 C195.97,493.44 207.59,577.8 207.59,592.86 C207.59,603.7 209.67,606.31 217.46,605.3 C218.57,605.16 220.21,607.83 221.08,611.21 C222.33,615.92 221.1,617.4 215.93,617.48 C209.32,617.57 209.3,617.65 215.38,621.18 C218.81,623.16 228.69,624.64 237.36,624.47 C253.1,624.15 253.1,624.15 234.59,626.98 C207.45,631.14 209.27,633.03 240.81,633.39 C256.21,633.56 272.33,634.86 276.65,636.29 C281.25,637.8 270.88,638.24 251.54,637.35 C209.4,635.4 211.38,633.26 213.59,678.58 C217.22,752.6 214.66,849.9 208.93,855.63 C208.19,856.37 207.59,849.96 207.59,841.41 C207.59,820.91 185.55,796.93 164.06,794.05 C137.31,790.47 60.08,820.41 60.08,834.38 C60.08,836.09 56.76,841.99 52.69,847.49 C34.25,872.44 24.65,899.09 26.92,919.07 C29.04,937.81 29.04,937.81 16.11,931.22 C-20.51,912.54 -68.09,925.88 -79.18,957.92 C-84.27,972.64 -88.46,973.19 -116.17,962.79 C-152.77,949.03 -163.69,934.86 -151.75,916.64 C-144.81,906.05 -148.31,903.49 -158.88,911.41 C-167.46,917.83 -167.46,917.83 -166.61,969.26 C-165.13,1058.74 -158.69,1183.82 -155.9,1177.37 C-154.11,1173.25 -153.76,1174.82 -154.83,1182.33 C-156.76,1195.89 -149.41,1278.26 -140.83,1339.25 C-137.31,1364.28 -132.32,1400.3 -129.74,1419.29 C-127.15,1438.28 -122.97,1465.11 -120.43,1478.92 C-117.9,1492.72 -114.3,1515.33 -112.45,1529.14 C-110.58,1542.94 -107.11,1561.31 -104.74,1569.95 C-102.36,1578.57 -97.42,1602.59 -93.74,1623.29 C-90.08,1644.01 -83.01,1676.49 -78.06,1695.49 C-73.1,1714.48 -66.67,1742.01 -63.77,1756.69 C-60.88,1771.36 -57.31,1785.62 -55.85,1788.39 C-54.39,1791.15 -47.42,1815.72 -40.35,1842.99 C-33.29,1870.26 -23.43,1903.31 -18.43,1916.42 C-13.45,1929.55 -6.97,1948.77 -4.05,1959.12 C3.26,1985.02 27.01,2042.94 36.2,2057.22 C73.9,2115.87 189.42,2170.13 304.89,2183.43 C325.29,2185.77 325.29,2185.77 298.62,2185.91 C281.8,2186.01 260.32,2183.43 240.55,2178.95 L240.55,2178.95 ZM571.91,1005.78 C572.12,1002.64 572.48,1002.64 573.75,1005.78 C574.72,1008.19 581.4,1009.7 590.95,1009.7 C600.8,1009.7 605.83,1008.52 604.59,1006.49 C601.41,1001.37 610.34,984.59 616.23,984.59 C620.7,984.59 620.31,983.21 613.89,976.28 C609.66,971.73 606.19,965.37 606.19,962.16 C606.19,952.82 610.89,955.45 615.13,967.17 C619.27,978.62 625.76,979.32 633.41,969.09 C636.08,965.51 642.22,964.28 656.16,964.53 C678.43,964.93 680.06,962.07 662.69,953.21 C654.62,949.09 650.14,948.12 650.14,950.49 C650.14,952.82 648.07,952.31 644.58,949.14 C637.2,942.48 632.69,945.94 630.05,960.28 C627.17,975.84 622.24,975.34 622.46,959.49 C622.59,950.05 623.91,946.93 627.76,946.91 C631.07,946.89 629.55,944.68 623.45,940.66 C618.28,937.22 610.21,934.41 605.51,934.39 C600.46,934.39 592.43,930.37 585.75,924.51 C571.83,912.29 533.54,920.93 541.88,934.41 C542.79,935.88 542.21,937.89 540.61,938.88 C535.55,942.01 530.05,984.67 532.82,999.5 C534.7,1009.65 534.83,1009.7 553.19,1009.7 C565.76,1009.7 571.76,1008.44 571.91,1005.78 L571.91,1005.78 ZM565.77,997.44 C558.73,993 558.01,969.72 564.8,966.09 C571.35,962.57 579.77,966.56 576.59,971.68 C575.42,973.61 576.3,975.2 578.54,975.23 C581.73,975.26 581.67,975.89 578.28,978.04 C575.87,979.57 574.71,982.94 575.7,985.54 C578.31,992.29 571.17,1000.84 565.77,997.44 L565.77,997.44 ZM539.3,988.85 C534.86,984.41 537.37,978.31 543.65,978.31 C548.04,978.31 549.83,980.02 549.15,983.54 C548.02,989.32 542.66,992.21 539.3,988.85 L539.3,988.85 ZM594.99,952.86 C592.49,948.81 599.01,943.91 606.97,943.85 C613.65,943.78 613.92,945.94 607.99,951.86 C602.61,957.25 597.93,957.61 594.99,952.86 L594.99,952.86 ZM675.24,1003.63 C675.24,1001.9 677.35,1001.29 679.92,1002.28 C682.59,1003.3 685.44,1001.92 686.54,999.05 C689,992.6 695.36,992.62 701.82,999.06 C705.73,1002.97 710.11,1003.62 721.39,1001.92 C731.51,1000.41 734.59,998.9 731.52,997.02 C728.35,995.06 729.29,994.41 734.92,994.71 C739.21,994.93 744.48,996.45 746.65,998.09 C751,1001.39 751.51,1000.08 748.68,992.71 C747.63,990 745.66,988.46 744.3,989.31 C742.93,990.14 741,988.72 740.01,986.15 C737.49,979.6 747.01,980.1 754.54,986.9 C759.67,991.57 781.95,994.99 781.95,991.11 C781.96,987.96 771.22,978.31 767.69,978.31 C762.61,978.31 759,968.93 764.01,968.81 C766.11,968.76 765.36,967.27 762.34,965.51 C759.31,963.75 756.85,960.31 756.85,957.87 C756.85,954.18 744.5,944.68 741.94,946.41 C736.98,949.75 728.6,945.83 728.6,940.12 C728.6,936.38 729.51,934.25 730.65,935.38 C731.78,936.49 734.64,934.97 737.02,931.97 C740.98,926.99 741.26,927.2 740.46,934.34 C739.96,938.82 741.26,942.34 743.51,942.57 C745.66,942.81 748.74,943.19 750.34,943.41 C751.95,943.61 755.13,945.56 757.41,947.73 C759.69,949.88 767.2,954.32 774.11,957.61 C781.02,960.87 789.49,965.01 792.94,966.8 C796.4,968.59 803.28,972.11 808.26,974.62 C813.22,977.13 817.94,981.66 818.74,984.69 C820.24,990.48 834.24,990.45 855.71,984.61 C860.9,983.21 873.72,980.27 884.21,978.09 C902.57,974.27 903.15,973.86 899.9,966.83 C898.03,962.82 894.67,959.52 892.41,959.51 C890.15,959.49 889.08,958.24 890.02,956.7 C890.96,955.17 888.92,953.19 885.5,952.28 C882.06,951.39 879.25,948.35 879.25,945.54 C879.25,941.49 878.02,941.1 873.26,943.64 C868.96,945.94 863.62,945.56 854.43,942.32 C847.37,939.83 841.59,938.49 841.59,939.34 C841.59,940.19 838.76,939.37 835.31,937.52 C831.85,935.66 829.04,932.74 829.04,931.01 C829.04,928.97 831.19,929.03 835.2,931.17 C838.58,932.99 845.3,934.99 850.11,935.63 C854.91,936.27 861.13,937.74 863.93,938.9 C867.5,940.37 869.54,938.99 870.78,934.23 C872.35,928.23 871.5,927.6 863.35,928.8 C858.29,929.54 854.14,929.8 854.14,929.38 C854.14,925.06 858.56,919.11 860.76,920.46 C862.3,921.41 863.55,919.99 863.55,917.3 C863.55,914.61 866.03,912.43 869.05,912.46 C873.1,912.49 873.5,913.17 870.5,915.07 C867.89,916.72 869.85,917.64 876.01,917.64 C887.35,917.64 901.79,924.67 899.15,928.91 C898.05,930.7 900.04,931.04 904.05,929.77 C908.48,928.36 910.5,928.89 909.94,931.3 C908.29,938.3 919.1,942.39 929.18,938.58 C936.55,935.8 939.83,936.02 944.97,939.61 C950.98,943.83 951.44,943.59 951.44,936.38 C951.44,930.46 947.72,926.35 935.61,918.89 C926.89,913.53 920.62,907.76 921.66,906.07 C922.71,904.37 921.36,902.82 918.67,902.6 C909.69,901.87 908.04,901.43 905.74,899.14 C901.54,894.95 913.08,893.09 924.27,896.17 C939.27,900.32 942.9,892.57 928.49,887.14 C915.72,882.33 892.13,880.35 898.39,884.63 C901.79,886.95 901.35,887.39 896.51,886.56 C892.86,885.93 890.41,883.24 890.68,880.12 C890.95,876.79 888.86,874.75 885.18,874.75 C881.92,874.75 879.25,876.74 879.25,879.18 C879.25,884.56 858.2,888.68 845.24,885.84 C837.96,884.25 833.35,886.02 821.63,894.98 C805.56,907.25 803.86,906.9 813.54,893.3 C817.1,888.3 819.26,882.96 818.31,881.45 C817.37,879.93 822.18,878.83 828.98,879.02 C837.92,879.25 843.1,877.45 847.7,872.5 C854.08,865.67 854.08,865.67 840.78,866.11 C833.46,866.36 826.28,868.04 824.85,869.86 C823.32,871.78 822.87,870.17 823.78,866.04 C825.02,860.37 823.31,857.97 815.42,854.32 C809.96,851.81 800.58,846.89 794.56,843.42 C783.3,836.89 766.27,834.83 766.27,839.98 C766.27,841.59 768.74,843.55 771.75,844.33 C775.04,845.18 773.65,845.92 768.36,846.13 C762.71,846.36 759.97,847.93 760.85,850.41 C761.61,852.58 764.54,854.15 767.39,853.9 C770.21,853.67 772.54,855.42 772.54,857.83 C772.54,863.62 758.57,863.47 752.73,857.62 C748.73,853.62 747.47,853.81 742.68,859.1 C737.4,864.93 737.51,865.29 745.54,868.34 C750.12,870.08 755.61,872.95 757.71,874.73 C759.83,876.51 765.52,880.92 770.36,884.55 C775.19,888.18 778.51,891.79 777.72,892.57 C775.49,894.82 750.56,881.26 750.56,877.82 C750.56,876.13 747.83,874.75 744.48,874.75 C741.12,874.75 737.51,873.32 736.43,871.57 C735.29,869.75 723.43,868.75 708.29,869.22 C693.62,869.67 683.69,871.15 685.74,872.59 C687.76,874.02 685.89,874.27 681.53,873.17 C675.48,871.65 674.76,871.95 678.38,874.49 C682.14,877.12 681.16,877.82 673.67,877.95 C664.26,878.11 664.26,878.11 671.8,882.29 C678.71,886.12 684.65,886.09 697.12,882.14 C701.19,880.86 701.19,880.34 697.12,877.76 C693.24,875.31 693.39,874.82 698,874.79 C701.02,874.76 703.67,876.16 703.88,877.89 C704.1,879.62 704.48,882.79 704.71,884.94 C705.02,887.71 710.96,888.63 724.91,888.1 C737.24,887.61 743.93,888.47 742.74,890.41 C740.46,894.1 749.73,904.25 758.17,907.31 C761.61,908.55 765.16,907.94 766.43,905.86 C767.97,903.37 770.81,904.4 775.59,909.18 C779.39,912.98 787.68,918.37 794,921.16 C804.29,925.7 804.74,926.35 798.27,927.4 C794.28,928.04 788.77,926.71 786.02,924.42 C783.25,922.12 778.23,920.72 774.85,921.29 C771.08,921.93 769.52,921.02 770.81,918.93 C771.97,917.08 771.41,915.54 769.59,915.54 C767.76,915.54 766.27,917.05 766.27,918.87 C766.27,920.69 764.7,921.23 762.78,920.05 C760.3,918.51 760.38,917.24 763.08,915.57 C768.36,912.32 754.07,909.02 744.2,911.22 C738.09,912.59 737.45,912.24 741.15,909.59 C745.33,906.6 745.33,906.21 741.15,906.13 C736.98,906.04 736.98,905.69 741.15,902.99 C746.49,899.53 742.91,899.05 732.56,901.83 C728.7,902.86 726.29,904.94 727.22,906.44 C728.15,907.94 724.47,908.28 719.04,907.2 C709.5,905.3 709.3,905.47 713.38,912.12 C716.82,917.74 719.52,918.67 727.82,917.14 C740.6,914.79 743.24,926.66 730.65,929.83 C723.61,931.59 723.4,932.44 726.12,947.38 C730.93,973.88 730.08,974.34 702.56,959.82 C671.36,943.39 666.73,943.67 685.45,960.91 C702.12,976.25 705.12,982.14 691.23,972.25 C680.44,964.57 677.05,964.05 679.51,970.47 C681.6,975.91 676.67,976.9 673.45,971.68 C670.51,966.92 642.44,969.84 636.95,975.48 C630.93,981.64 615.61,1002.12 615.61,1003.99 C615.61,1004.86 629.03,1005.83 645.43,1006.16 C663.71,1006.55 675.24,1005.56 675.24,1003.63 L675.24,1003.63 Z" style="fill:#DAD7CD;" />
				</g>
			</g>
		</g>
	</g>
</svg>