<?xml version="1.0" encoding="UTF-8"?>
<!-- Created with Grafika (https://www.grafika.cc/) -->
<svg xmlns="http://www.w3.org/2000/svg" xmlns:svg="http://www.w3.org/2000/svg" xmlns:xlink="http://www.w3.org/1999/xlink" width="1020.14" height="2048" viewBox="0 0 1017.09 2041.69" preserveAspectRatio="xMidYMid meet">
	<defs>
		<mask id="mask_1" mask-type="alpha">
			<path d="M-510,-1023 L510,-1023 L510,1023 L-510,1023 L-510,-1023 Z" fill-rule="evenodd" style="fill:white;" />
		</mask>
	</defs>
	<g transform="matrix(1, 0, 0, 1, 508.0036315917969, 1020.9806518554688)">
		<g mask="url(#mask_1)">
			<path d="M225.66,253.62 C226.12,252.24 228.07,250.87 230,250.59 C234.58,249.92 233.04,254.54 228.38,255.44 C226.21,255.86 225.15,255.15 225.66,253.62 ZM347.77,206.4 C350.8,205.61 350.96,204.97 348.77,202.31 C346.59,199.67 346.65,199.32 349.16,200.14 C354.35,201.86 354.07,207.83 348.81,207.57 C345.25,207.39 345.01,207.11 347.77,206.4 ZM373.14,196.81 C366.98,194.44 366.74,194.1 371.14,194.03 C373.89,193.99 378.38,195.24 381.13,196.81 C387.4,200.39 382.44,200.39 373.14,196.81 ZM-30.19,263.81 C-27.6,261.65 -26.18,259.85 -27.04,259.81 C-30.93,259.65 -23.83,251.75 -19.8,251.75 C-14.08,251.75 -2.86,243.6 -3.98,240.26 C-4.51,238.7 -3.68,238.21 -1.77,238.94 C1.79,240.3 13.49,233.97 13.49,230.68 C13.49,229.45 12.18,228.44 10.58,228.44 C8.98,228.44 8.13,229.19 8.7,230.11 C9.26,231.02 8.78,231.77 7.61,231.77 C6.45,231.77 5.5,230 5.5,227.84 C5.5,225.15 6.45,224.27 8.52,225.07 C10.18,225.7 12.78,225.2 14.3,223.93 C15.82,222.67 18.11,221.9 19.39,222.21 C20.67,222.53 22.98,219.19 24.53,214.8 C28.02,204.89 26.77,203.36 10.42,197.61 C-4.75,192.28 -9.09,186.04 2.12,185.68 C6.28,185.54 6.3,185.46 2.53,183.99 C-2.56,182 -9.98,183.66 -6.26,185.96 C-3.9,187.42 -8.19,187.27 -34.89,184.94 C-41.85,184.33 -45.49,185.06 -48.88,187.73 C-51.4,189.71 -55.26,191.78 -57.45,192.34 C-60.82,193.19 -60.66,193.4 -56.44,193.71 C-50.54,194.14 -66.41,199.72 -73.68,199.77 C-76.02,199.79 -79.04,201.14 -80.4,202.78 C-81.76,204.42 -83.75,205.21 -84.83,204.54 C-88.46,202.3 -110.39,216.07 -110.39,220.59 C-110.39,221.87 -113.19,224.57 -116.61,226.6 C-120.04,228.62 -129.07,236.68 -136.69,244.51 C-152.27,260.52 -154.14,259.05 -113.39,262.75 C-46.42,268.83 -36.37,268.96 -30.19,263.81 ZM-115.38,249.77 C-116.05,248.68 -115.68,246.21 -114.56,244.28 C-112.67,241.03 -112.49,241.07 -112.31,244.76 C-112.11,248.76 -112.11,248.76 -110.39,244.76 C-108.87,241.22 -108.66,241.39 -108.53,246.26 C-108.39,251.73 -112.77,253.98 -115.38,249.77 ZM-17.96,240.11 C-19.71,235.36 -23.09,233.57 -25.03,236.37 C-26.11,237.94 -26.47,237.41 -26.07,234.86 C-25.59,231.83 -23.68,230.87 -17.47,230.57 C-13.08,230.35 -10.66,230.63 -12.09,231.17 C-14.16,231.97 -14.08,233.1 -11.68,236.76 C-8.9,240.99 -8.98,241.43 -12.7,242.4 C-15.33,243.08 -17.16,242.29 -17.96,240.11 ZM-122.38,237.77 C-122.38,235.55 -121.05,233.77 -119.38,233.77 C-116.02,233.77 -115.88,234.14 -117.6,238.6 C-119.31,243.07 -122.38,242.53 -122.38,237.77 ZM-83.84,231.09 C-84.41,230.16 -87.07,229.82 -89.75,230.33 C-93.8,231.1 -94.51,230.55 -94,227.02 C-93.66,224.69 -94.73,221.58 -96.39,220.12 C-99.02,217.79 -98.94,217.61 -95.74,218.62 C-93.73,219.26 -91.2,219.79 -90.13,219.79 C-89.05,219.79 -88.67,220.58 -89.27,221.56 C-92.01,225.99 -76.21,231.14 -67.83,228.55 C-64.81,227.62 -64.64,226.94 -66.81,224.32 C-69.07,221.61 -68.8,221.4 -64.68,222.7 C-61.16,223.82 -60.2,223.52 -60.88,221.49 C-61.38,220 -60.45,217.8 -58.81,216.59 C-56.34,214.77 -56.91,214.02 -62.13,212.2 C-69.17,209.75 -70.59,205.8 -64.44,205.8 C-62.24,205.8 -60.44,204.9 -60.44,203.8 C-60.44,200.33 -53.21,201.64 -49.45,205.8 C-47.4,208.07 -46.83,209.79 -48.14,209.79 C-49.41,209.79 -50.45,211.14 -50.45,212.78 C-50.45,215.58 -54.82,221.63 -62.98,230.16 C-66.64,233.98 -81.63,234.64 -83.84,231.09 ZM-31.5,213.03 C-33.34,210.22 -34.47,206.81 -34.01,205.44 C-33.56,204.07 -31.67,205.99 -29.82,209.69 C-25.74,217.88 -26.86,220.11 -31.5,213.03 ZM-36.98,202.62 C-37.63,201.97 -41.6,200.13 -45.8,198.53 C-53.45,195.63 -53.45,195.63 -45.63,196.65 C-38.04,197.63 -32.66,200.66 -34.76,202.77 C-35.33,203.34 -36.33,203.27 -36.98,202.62 ZM327.18,259.89 C327.18,256.51 321.12,251.9 318.17,253.04 C315.98,253.88 315.77,255.09 317.3,257.95 C319.35,261.78 327.18,263.32 327.18,259.89 ZM414.74,236.21 C415.42,231.44 414.8,231.22 401.81,231.73 C397.25,231.9 392.93,231.09 392.2,229.91 C391.48,228.74 389.86,227.78 388.6,227.78 C386.96,227.78 386.99,228.45 388.72,230.18 C390.04,231.49 391.12,234.91 391.12,237.77 C391.12,249.03 413.1,247.59 414.74,236.21 ZM-244.26,238.77 C-244.26,237.12 -243.36,235.77 -242.26,235.77 C-241.16,235.77 -240.29,234.2 -240.33,232.27 C-240.39,229.28 -240.94,229.43 -244.15,233.27 C-246.21,235.74 -249.55,237.83 -251.57,237.91 C-254.92,238.04 -254.89,238.2 -251.25,239.77 C-245.42,242.27 -244.26,242.11 -244.26,238.77 ZM273.23,236.02 C273.23,214.46 254.29,195.81 232.39,195.81 C223.66,195.81 173.81,204.69 171.88,206.6 C171.63,206.84 179.27,206.99 188.86,206.92 C205.51,206.8 206.91,207.15 219.79,214.46 C227.2,218.68 233.29,221.38 233.3,220.46 C233.32,219.54 234,219.73 234.8,220.88 C235.61,222.03 241.98,225.41 248.97,228.4 C255.95,231.39 263.57,235.17 265.9,236.8 C271.5,240.72 273.23,240.54 273.23,236.02 ZM-249,225.53 C-242.97,223.16 -240.26,223.57 -240.26,226.86 C-240.26,229.33 -239.42,229.15 -235.94,225.9 C-233.57,223.69 -228.2,220.18 -224.01,218.11 C-219.82,216.04 -216.75,214 -217.17,213.57 C-218.07,212.67 -213.07,212.23 -196.31,211.74 C-189.71,211.55 -184.32,210.58 -184.32,209.6 C-184.32,208.61 -182.74,207.73 -180.82,207.64 C-178.07,207.51 -177.95,207.23 -180.29,206.32 C-185.59,204.24 -189.11,199.8 -185.46,199.8 C-183.73,199.8 -182.32,200.7 -182.32,201.8 C-182.32,202.9 -180.97,203.8 -179.32,203.8 C-175.85,203.8 -175.28,208.91 -178.54,210.93 C-180.08,211.88 -179.93,212.81 -178.04,214.01 C-172.98,217.22 -172.12,215.81 -172.73,205.3 C-173.17,197.58 -174.12,194.81 -176.33,194.81 C-177.97,194.81 -180.17,192.88 -181.21,190.52 C-182.25,188.16 -185.62,184.73 -188.7,182.91 C-199.29,176.65 -194.3,175.77 -182.38,181.79 C-168.32,188.89 -166.34,189.14 -166.34,183.82 C-166.34,181.62 -165.44,179.82 -164.34,179.82 C-163.24,179.82 -162.37,178.25 -162.4,176.33 C-162.46,173.03 -162.62,173.03 -165.16,176.39 C-167.75,179.79 -167.92,179.79 -169.4,176.39 C-171.86,170.7 -172.11,167.84 -170.16,167.84 C-169.15,167.84 -168.33,166.49 -168.33,164.84 C-168.33,160.14 -162.95,161.33 -161.54,166.34 C-160.31,170.7 -160.19,170.72 -157.38,167.04 C-155.78,164.96 -155.01,162.38 -155.67,161.32 C-157.49,158.37 -178.57,160.75 -181.12,164.2 C-183.76,167.77 -218.27,166.23 -225.65,162.22 C-234.43,157.44 -249.58,160.14 -242.35,165.2 C-236.98,168.96 -237.16,171.84 -242.76,171.8 C-246.12,171.78 -246.55,171.33 -244.49,170.02 C-242.26,168.61 -242.5,167.85 -245.73,166.12 C-250.29,163.68 -252.25,164.89 -252.25,170.17 C-252.25,174.23 -255.5,174.78 -262.91,171.96 C-269.04,169.63 -277.37,176.65 -272.25,179.81 C-270.7,180.77 -268.71,181.12 -267.83,180.57 C-266.96,180.03 -266.24,181.01 -266.24,182.74 C-266.24,185.11 -267.49,185.58 -271.23,184.64 C-276.05,183.43 -276.23,183.74 -276.23,193.06 C-276.23,202.74 -276.23,202.74 -272.55,195.88 C-270.53,192.11 -267.82,188.68 -266.52,188.24 C-265.22,187.81 -266.06,190.66 -268.37,194.58 C-272.26,201.18 -272.35,202.16 -269.56,207.75 C-267.9,211.07 -267.37,213.79 -268.39,213.79 C-269.4,213.79 -270.26,212.67 -270.3,211.29 C-270.39,207.25 -273.54,214.03 -274.89,221.21 C-276.28,228.59 -273.41,231.71 -270.4,226.09 C-269.16,223.78 -266.23,222.28 -262.93,222.28 C-258.48,222.28 -258.03,222.69 -260.44,224.53 C-263.66,226.99 -263.12,233.91 -259.51,236.23 C-258.14,237.12 -256.36,235.59 -254.99,232.35 C-253.75,229.41 -251.05,226.34 -249,225.53 ZM-254.25,208.8 C-254.25,206.79 -252.94,205.76 -250.9,206.15 C-246.44,207.01 -246.34,210.56 -250.75,211.41 C-252.94,211.83 -254.25,210.85 -254.25,208.8 ZM-216.37,210.79 C-216.58,209.7 -216.65,208.12 -216.52,207.3 C-216.39,206.47 -217.41,205.7 -218.78,205.57 C-220.16,205.44 -222.63,205.2 -224.28,205.04 C-225.93,204.87 -228.57,205.65 -230.15,206.77 C-232.41,208.36 -232.74,208.05 -231.71,205.3 C-230.07,200.92 -232.93,200.83 -239.4,205.07 C-242.14,206.87 -244.93,207.79 -245.61,207.12 C-246.28,206.44 -245.31,205.31 -243.46,204.6 C-240.3,203.39 -240.3,203.07 -243.45,199.6 C-246.81,195.88 -240.34,190.47 -235.76,193.17 C-234.94,193.65 -233.39,191.75 -232.32,188.94 C-230.99,185.44 -228.94,183.86 -225.83,183.96 C-221.54,184.09 -221.51,184.19 -225.28,185.69 C-229.27,187.28 -229.27,187.28 -225.28,188.31 C-222.39,189.06 -222.19,189.41 -224.57,189.58 C-226.37,189.71 -228.38,191.21 -229.04,192.92 C-229.78,194.85 -229.41,195.51 -228.05,194.67 C-226.56,193.75 -226.59,194.65 -228.15,197.57 C-231.25,203.36 -228.72,202.91 -223.92,196.81 C-220.2,192.07 -212.29,189.85 -212.29,193.53 C-212.29,194.48 -210.04,194.82 -207.3,194.3 C-200.59,193.02 -200.47,199.06 -207.14,202.09 C-210.29,203.53 -211.56,205.37 -210.79,207.37 C-210.06,209.28 -210.44,209.94 -211.78,209.11 C-212.97,208.37 -214.4,208.9 -214.96,210.28 C-215.52,211.66 -216.15,211.89 -216.37,210.79 ZM-263.78,205.4 C-262.96,202.96 -250.25,197.4 -250.25,199.48 C-250.25,200.3 -253.45,202.42 -257.35,204.19 C-261.25,205.95 -264.14,206.5 -263.78,205.4 ZM-245.56,182.89 C-244.94,181.27 -245.31,179.41 -246.38,178.75 C-249.69,176.7 -246.29,173.83 -240.65,173.89 C-236.03,173.94 -235.76,174.24 -238.77,175.99 C-240.69,177.11 -242.26,179.78 -242.26,181.92 C-242.26,184.06 -243.26,185.82 -244.47,185.82 C-245.69,185.82 -246.18,184.5 -245.56,182.89 ZM-265.04,180.62 C-266.19,177.62 -261.1,174.31 -258.83,176.58 C-258.14,177.27 -258.85,177.84 -260.41,177.86 C-262.72,177.88 -262.75,178.2 -260.58,179.58 C-258.41,180.95 -258.47,181.48 -260.91,182.42 C-262.57,183.06 -264.41,182.26 -265.04,180.62 ZM-230.27,178.83 C-230.27,176.94 -228.24,175.75 -224.78,175.63 C-219.28,175.43 -219.28,175.43 -224.28,173.83 C-229.17,172.26 -229.15,172.23 -223.28,172.06 C-219.98,171.97 -215.94,172.76 -214.29,173.83 C-211.84,175.41 -212.07,175.77 -215.54,175.8 C-217.88,175.81 -220.91,177.18 -222.28,178.83 C-223.65,180.47 -226.01,181.82 -227.52,181.82 C-229.03,181.82 -230.27,180.47 -230.27,178.83 ZM422.69,208.39 C423.3,204.33 418.52,197.81 414.95,197.81 C413.93,197.81 413.1,199.6 413.1,201.8 C413.1,204.27 411.76,205.8 409.6,205.81 C407.13,205.82 407.87,206.95 412.1,209.65 C419.24,214.21 421.88,213.9 422.69,208.39 ZM277.76,200.4 C275.3,199.92 270.8,199.91 267.77,200.37 C264.73,200.83 266.74,201.22 272.24,201.23 C277.73,201.25 280.21,200.87 277.76,200.4 ZM200.36,190.77 C219.38,189.07 235.53,181.82 220.29,181.82 C217.54,181.82 215.29,182.83 215.29,184.05 C215.29,185.32 213.52,185.82 211.19,185.21 C204.26,183.4 181.32,188.03 181.32,191.24 C181.32,193.05 182.61,193.67 184.87,192.95 C186.82,192.33 193.79,191.35 200.36,190.77 ZM19.98,190.37 C16.41,189.92 10.57,189.92 6.99,190.37 C3.42,190.81 6.35,191.17 13.49,191.17 C20.63,191.17 23.55,190.81 19.98,190.37 ZM79.88,187.82 C84.17,183.82 84.17,183.82 73.81,183.82 C62.39,183.82 58.67,188.83 68.93,190.38 C71.96,190.84 74.69,191.35 75.01,191.51 C75.33,191.68 77.52,190.01 79.88,187.82 ZM158.86,181.32 C158.36,179.8 153.79,178.67 147.2,178.42 C136.37,178.02 136.37,178.02 145.36,180.66 C157.34,184.17 159.84,184.3 158.86,181.32 ZM86.92,178.37 C82.8,177.94 76.05,177.94 71.93,178.37 C67.81,178.8 71.18,179.15 79.42,179.15 C87.67,179.15 91.04,178.8 86.92,178.37 ZM225.28,28.76 C225.28,26.72 224.18,25.97 222.28,26.7 C220.64,27.33 219.29,27.04 219.29,26.06 C219.29,25.07 220.86,23.86 222.78,23.36 C232.35,20.86 206.29,22.4 193.36,25.1 C174.35,29.06 172.66,30.73 189.32,29.09 C196.46,28.39 206.35,28.65 211.29,29.67 C224.32,32.37 225.28,32.3 225.28,28.76 ZM47.46,25.97 C47.46,24.88 43.18,23.99 37.96,24.01 C31.1,24.03 29.3,24.57 31.47,25.97 C35.42,28.53 47.46,28.53 47.46,25.97 ZM195.14,23.25 C194.69,22.85 184.42,22.04 172.33,21.44 C159.8,20.82 152.07,21.07 154.35,22.02 C158.14,23.61 196.9,24.78 195.14,23.25 ZM37.46,19.98 C37.46,18.88 33.64,18 28.97,18.01 C22.75,18.04 21.28,18.56 23.48,19.98 C27.42,22.53 37.46,22.53 37.46,19.98 ZM50.45,19.98 C49.77,18.88 47.02,17.98 44.34,17.98 C41.66,17.98 39.46,18.88 39.46,19.98 C39.46,21.08 42.21,21.98 45.57,21.98 C49.14,21.98 51.17,21.15 50.45,19.98 ZM138.92,16.53 C134.83,16.1 127.63,16.09 122.93,16.52 C118.23,16.94 121.58,17.29 130.37,17.3 C139.17,17.3 143.01,16.96 138.92,16.53 ZM50.45,9.99 C51.13,8.89 50.39,7.99 48.81,7.99 C47.22,7.99 45.45,6.19 44.88,4 C44.3,1.8 42.95,0 41.88,0 C39.08,0 37.62,9.67 40.25,10.76 C44.23,12.4 49.19,12.03 50.45,9.99 ZM-131.37,-286.78 C-136.3,-290.82 -158.42,-294.86 -154.18,-290.95 C-150.33,-287.39 -136.25,-281.74 -131.4,-281.8 C-125.38,-281.87 -125.38,-281.87 -131.37,-286.78 ZM67.46,-368.54 C66.6,-372.33 66.4,-375.93 67,-376.53 C67.61,-377.14 67.13,-377.63 65.93,-377.63 C64.74,-377.63 62.31,-378.19 60.53,-378.87 C55.23,-380.91 57.05,-365.7 62.36,-363.55 C68.8,-360.94 69.1,-361.24 67.46,-368.54 ZM66.4,-392.12 C63.2,-424.43 57.83,-439.46 37.26,-473.72 C25.3,-493.62 25.3,-493.62 25.89,-508.06 C26.65,-526.85 34.08,-531.13 36.61,-514.24 C38,-504.97 50.72,-480.13 52.94,-482.35 C53.55,-482.97 51.75,-490.9 48.93,-499.98 C42.81,-519.7 38.83,-537.18 34.04,-565.45 C32.09,-576.99 30.19,-584.18 29.82,-581.43 C28.21,-569.39 19.26,-534.84 16.22,-528.97 C9.49,-515.95 11.33,-469.52 19.72,-440.64 C24.05,-425.74 24.05,-425.74 33.25,-424.61 C53.43,-422.12 53.79,-421.67 56.41,-395.23 C57.56,-383.62 58.31,-381.76 62.09,-381.02 C64.48,-380.55 66.71,-380.05 67.04,-379.9 C67.36,-379.75 67.08,-385.25 66.4,-392.12 ZM140.64,-412.21 C141.34,-412.91 139.49,-414.41 136.52,-415.54 C131.09,-417.6 123.38,-418.32 123.38,-416.76 C123.38,-416.3 122.92,-414.72 122.36,-413.26 C121.29,-410.48 137.96,-409.52 140.64,-412.21 ZM248.32,-632.04 C247.09,-638.85 239.99,-648.55 238.82,-645.03 C238.38,-643.7 238.8,-638.52 239.75,-633.5 C240.71,-628.49 242,-621.33 242.63,-617.59 C243.77,-610.8 243.77,-610.8 246.56,-618.59 C248.1,-622.88 248.89,-628.93 248.32,-632.04 ZM437.24,-691.32 C438.25,-691.32 439.07,-692.38 439.07,-693.66 C439.07,-694.95 440.56,-697.65 442.38,-699.66 C445,-702.56 445.11,-703.31 442.88,-703.31 C441.33,-703.31 437.43,-700.01 434.21,-695.96 C430.01,-690.7 429.34,-689 431.87,-689.97 C433.81,-690.71 436.23,-691.32 437.24,-691.32 ZM434.87,-707.05 C434.67,-714.3 434.67,-714.3 433.12,-708.31 C432.27,-705.01 430.85,-700.52 429.95,-698.32 C428.51,-694.76 428.7,-694.62 431.71,-697.06 C433.84,-698.8 435,-702.47 434.87,-707.05 ZM29.47,968.95 C-1.45,965.13 -23.24,956 -40.93,939.45 C-55.11,926.18 -54.73,925.9 -20.16,924.41 C43.11,921.67 157.35,926.22 157.35,931.48 C157.35,932.36 159.37,933.19 161.84,933.32 C165.63,933.51 165.74,933.7 162.57,934.52 C160.5,935.05 154.09,939.32 148.32,944.02 C122.32,965.2 76.62,974.79 29.47,968.95 ZM91.81,962.93 C97.64,961.75 103.75,960.27 105.4,959.63 C107.05,958.99 109.99,958.15 111.94,957.77 C117.83,956.62 137.99,945.66 144.03,940.33 C149.69,935.33 149.69,935.33 143.03,934.26 C111.43,929.2 6.8,926.49 -23.48,929.95 C-27.87,930.45 -33.04,930.91 -34.96,930.97 C-42.95,931.24 -21.44,949.74 -13.15,949.74 C-11.78,949.74 -11.22,950.64 -11.9,951.74 C-12.64,952.94 -11.8,953.23 -9.82,952.47 C-7.99,951.77 -6.49,951.88 -6.49,952.72 C-6.49,961.12 64.28,968.47 91.81,962.93 ZM52.31,172.69 C54.03,170.96 55.45,168.71 55.45,167.69 C55.45,166.67 56.8,165.84 58.44,165.84 C60.09,165.84 61.44,167.19 61.44,168.83 C61.44,170.48 60.09,171.83 58.44,171.83 C56.8,171.83 55.45,172.73 55.45,173.83 C55.45,174.93 54.03,175.83 52.31,175.83 C49.45,175.83 49.45,175.54 52.31,172.69 ZM15.78,107.89 C15.49,107.34 14.85,99.7 14.36,90.91 C13.86,82.12 13.04,72.49 12.54,69.51 C11.41,62.83 14.93,60.03 16.51,66.35 C17.6,70.69 16.91,110.01 15.78,107.89 ZM149.79,95.06 C148.58,92.4 145.51,89.92 142.97,89.56 C139.32,89.05 138.44,87.77 138.74,83.42 C139.01,79.49 138.16,77.88 135.75,77.78 C133,77.67 133.12,77.32 136.37,75.93 C143.6,72.82 145.88,73.57 144.62,78.62 C143.71,82.23 144.51,83.8 148.09,85.43 C151.42,86.95 152.78,89.3 152.91,93.72 C153.12,101.17 152.66,101.37 149.79,95.06 ZM156.56,90.41 C153.4,79.99 155.91,65.51 160.58,67.3 C162.77,68.14 162.99,68.91 161.35,69.93 C160.05,70.73 158.98,76.32 158.92,82.64 C158.81,94.49 158.3,96.17 156.56,90.41 ZM115.71,82.57 C115.46,76.13 116.19,74.01 118.89,73.31 C121.89,72.52 121.92,72.36 119.1,72.16 C117.29,72.03 115.3,70.58 114.67,68.93 C113.46,65.8 117.81,64.92 130.44,65.75 C133.77,65.97 139.17,64.76 142.43,63.06 C145.69,61.36 149.48,59.96 150.85,59.95 C155.06,59.93 153.63,63.58 148.86,65.04 C146.38,65.79 143.01,67.58 141.36,69.01 C139.71,70.45 135.96,72.22 133.02,72.95 C129.14,73.92 127.88,75.33 128.41,78.1 C129.18,82.12 124.59,83.5 122.38,79.92 C120,76.07 117.63,77.99 116.83,84.42 C116.12,90.15 115.99,89.93 115.71,82.57 ZM39.53,70.6 C39.57,69.68 40.93,66.68 42.56,63.94 C45.52,58.94 45.52,58.94 44.99,64.78 C44.54,69.76 39.33,75.31 39.53,70.6 ZM178.83,10.44 C152.57,9.94 149.33,9.51 149.16,6.44 C149.05,4.55 148.61,-0.82 148.19,-5.49 C147.77,-10.17 148.26,-13.99 149.28,-13.99 C150.3,-13.99 151.41,-9.72 151.74,-4.5 C152.35,5 152.35,5 180.04,6.38 C204.33,7.59 212.13,8.69 209.13,10.49 C208.67,10.76 195.04,10.74 178.83,10.44 ZM144.69,-39.29 C142.54,-41.45 143.17,-49.95 145.48,-49.95 C146.64,-49.95 147,-49 146.28,-47.83 C145.56,-46.66 146.54,-43.96 148.47,-41.83 C151.9,-38.04 148.34,-35.65 144.69,-39.29 ZM19.12,-52.96 C18.37,-53.72 18.24,-55.6 18.83,-57.14 C19.43,-58.68 18.85,-59.94 17.56,-59.94 C16.11,-59.94 16.45,-61.19 18.44,-63.18 C20.22,-64.96 21.89,-66.08 22.17,-65.67 C23.31,-63.98 20.37,-51.7 19.12,-52.96 ZM78.58,-88.41 C78.18,-89.79 76.69,-96.21 75.26,-102.68 C70.58,-123.84 59.61,-132.74 39.13,-132 C33.15,-131.78 31.9,-132.38 32.35,-135.3 C32.68,-137.48 31.33,-139.27 28.87,-139.91 C21.97,-141.7 22.83,-147.86 29.98,-147.86 C43.51,-147.86 34.43,-149.7 10.99,-151.72 C8.82,-151.91 9.14,-159.84 11.32,-159.84 C12.33,-159.84 13.49,-158.84 13.9,-157.6 C14.38,-156.17 21.44,-155.33 33.55,-155.28 C43.94,-155.23 51.33,-154.81 49.95,-154.35 C48.58,-153.89 47.46,-151.42 47.46,-148.85 C47.46,-146.29 46.39,-143.84 45.08,-143.4 C43.56,-142.89 44.27,-141.05 47.08,-138.24 C52.26,-133.06 55.85,-132.57 55.04,-137.16 C54.71,-138.97 55.61,-140.85 57.03,-141.35 C58.91,-142.01 59.26,-140.84 58.31,-137.06 C57.23,-132.75 57.7,-131.87 61.08,-131.87 C66.56,-131.87 72.48,-123.88 77.77,-109.39 C81.58,-98.94 82.36,-97.97 83.78,-101.83 C84.69,-104.27 84.92,-107.08 84.3,-108.08 C83.69,-109.08 84,-109.89 85,-109.89 C85.99,-109.89 88.47,-113.59 90.51,-118.1 C92.55,-122.62 96.31,-127.68 98.87,-129.36 C101.43,-131.04 103.14,-132.79 102.68,-133.26 C102.21,-133.73 104.07,-136.36 106.82,-139.11 C109.57,-141.85 111.24,-144.68 110.54,-145.38 C109.83,-146.09 107,-144.23 104.25,-141.27 C101.5,-138.3 98.17,-135.87 96.86,-135.87 C95.55,-135.87 97.74,-139.13 101.72,-143.11 C111.28,-152.67 119.07,-147.46 110.08,-137.52 C106.96,-134.07 107.07,-133.87 112.14,-133.87 C115.1,-133.87 117.96,-135.03 118.51,-136.46 C119.15,-138.14 121.98,-138.76 126.6,-138.22 C134.6,-137.28 133.23,-141.67 118.13,-165.34 C114.45,-171.11 112.16,-175.83 113.04,-175.83 C116.07,-175.83 123.38,-167.67 123.41,-164.26 C123.44,-161.32 123.71,-161.26 125.38,-163.84 C128.82,-169.16 127.91,-192.45 124.32,-191.07 C122.35,-190.31 120.51,-191.55 119.15,-194.52 C117.99,-197.06 114.37,-200.72 111.1,-202.65 C106.22,-205.54 105.36,-207.11 106.29,-211.48 C106.91,-214.4 108.3,-227.58 109.38,-240.76 C115.49,-315.66 117.2,-326.51 123.04,-327.34 C130.75,-328.43 135.56,-325.29 128.38,-323.85 C122.45,-322.66 122.35,-322.41 119.09,-301.69 C112.75,-261.3 109.75,-199.06 114.83,-213.29 C115.78,-215.96 123.21,-216.8 123.64,-214.29 C123.78,-213.47 124.1,-210.83 124.36,-208.43 C124.61,-206.04 126.31,-202.59 128.13,-200.77 C130.85,-198.04 131.35,-193.74 130.97,-176.16 C130.42,-151.48 132.34,-145.86 141.29,-145.86 C145.77,-145.86 147.22,-146.87 147.72,-150.35 C148.8,-157.94 154.35,-155.85 154.35,-147.86 C154.35,-141.09 154.1,-140.85 146.36,-140.52 C138.93,-140.21 138.79,-140.3 144.36,-141.79 C150.34,-143.38 150.34,-143.39 142.79,-143.62 C135.93,-143.84 135.42,-143.5 137.27,-140.04 C138.75,-137.28 138.51,-134.36 136.42,-129.55 C133.54,-122.9 133.53,-122.9 133.45,-128.37 C133.36,-134.41 126.51,-136.2 121.74,-131.43 C120.4,-130.09 116.09,-128.79 112.15,-128.53 C98.85,-127.68 89.73,-115.1 85.97,-92.41 C84.91,-86.02 80.03,-83.38 78.58,-88.41 ZM145.21,-88.41 C143.15,-95.35 143.58,-98.22 146.33,-95.93 C149.74,-93.1 150.4,-87.91 147.36,-87.91 C146.26,-87.91 145.29,-88.14 145.21,-88.41 ZM62.33,-96.08 C60.27,-99.41 64.9,-103.23 67.66,-100.48 C69.97,-98.17 68.52,-93.91 65.44,-93.91 C64.47,-93.91 63.07,-94.89 62.33,-96.08 ZM48.79,-99.24 C46.35,-101.67 47.41,-105.9 50.45,-105.9 C52.12,-105.9 53.45,-104.12 53.45,-101.9 C53.45,-97.92 51.32,-96.7 48.79,-99.24 ZM215.53,-104.09 C217.48,-105.32 216.6,-105.84 212.57,-105.87 C209.42,-105.88 197.33,-108.23 185.71,-111.09 C171.65,-114.54 162.04,-115.87 156.97,-115.06 C149.36,-113.84 149.36,-113.84 149.36,-124.85 C149.36,-130.91 150.25,-135.87 151.35,-135.87 C152.45,-135.87 153.35,-134.52 153.35,-132.87 C153.35,-130.99 155.25,-129.87 158.46,-129.87 C161.36,-129.87 163.04,-129.01 162.34,-127.88 C161.66,-126.78 159.18,-125.88 156.83,-125.88 C153.57,-125.88 153.11,-125.32 154.88,-123.55 C156.17,-122.26 161.52,-121.31 166.77,-121.42 C177.97,-121.66 205.78,-116.27 204.45,-114.12 C203.23,-112.16 226.78,-107.35 229.46,-109.01 C230.61,-109.72 231.08,-111.53 230.5,-113.03 C229.92,-114.53 230.43,-116.36 231.63,-117.11 C233.09,-118.01 233.51,-116.4 232.9,-112.22 C232.12,-106.95 232.77,-105.7 237.12,-104.1 C241.14,-102.63 239.03,-102.23 227.52,-102.28 C218.33,-102.32 213.82,-103 215.53,-104.09 ZM-67.93,-117.61 C-75.7,-124.26 -76.92,-129.6 -69.57,-124.79 C-64.49,-121.46 -57.22,-111.83 -59.89,-111.97 C-60.74,-112.02 -64.36,-114.55 -67.93,-117.61 ZM70.98,-135.3 C67.92,-135.76 63.75,-138.62 61.49,-141.8 C55.21,-150.61 56.73,-152.81 63.65,-144.93 C67.06,-141.04 71.5,-137.87 73.52,-137.87 C75.54,-137.87 77.75,-136.97 78.42,-135.87 C79.1,-134.77 78.93,-134 78.04,-134.17 C77.15,-134.33 73.97,-134.84 70.98,-135.3 ZM224.62,-145.19 C221.84,-147.97 223.44,-159.51 227.28,-164.39 C232.19,-170.63 232.2,-170.3 227.09,-178.28 C222.91,-184.82 222.91,-184.82 224.13,-178.83 C225.27,-173.17 225.17,-173.05 222.31,-176.71 C220.65,-178.84 219.3,-182.44 219.32,-184.7 C219.34,-188.15 219.69,-188.33 221.45,-185.82 C223.07,-183.51 223.26,-183.96 222.32,-187.82 C221.09,-192.79 221.11,-192.79 225.95,-187.08 C230.01,-182.28 231.09,-181.85 232.54,-184.4 C233.49,-186.09 237.42,-190.92 241.27,-195.13 C253.03,-208.04 254.25,-214.56 246.05,-220.81 C236.33,-228.22 228.55,-230.6 223.25,-227.76 C220.88,-226.49 218.41,-225.99 217.76,-226.64 C215.99,-228.41 223.9,-233.79 226.78,-232.78 C230.28,-231.55 229.97,-233.92 224.16,-252.96 C218.26,-272.31 216.33,-273.66 214.48,-259.75 C213.49,-252.25 212.3,-249.72 209.73,-249.59 C198.64,-249.07 195.41,-248.27 190.15,-244.78 C184.32,-240.91 184.32,-240.91 192.19,-239.59 C201.75,-237.99 207.3,-231.75 207.3,-222.6 C207.3,-215.24 208.58,-215.91 186.32,-211.66 C173.11,-209.13 163.36,-204.76 175.33,-206.74 C179.18,-207.37 189.29,-208.43 197.81,-209.1 C213.34,-210.31 215.15,-211.14 211.12,-215.16 C209.75,-216.54 209.66,-217.78 210.89,-218.54 C213.24,-219.99 216.28,-216.49 218.26,-210.04 C219.26,-206.79 219.02,-205.73 217.5,-206.67 C216.29,-207.42 215.29,-207.19 215.29,-206.17 C215.29,-205.12 212.44,-204.89 208.8,-205.65 C205.23,-206.38 198.26,-206.27 193.31,-205.39 C188.37,-204.5 180.72,-203.21 176.33,-202.52 C171.93,-201.82 165.91,-200.03 162.94,-198.53 C152.71,-193.37 152.34,-194.46 150.34,-235.77 C149.68,-249.51 148.8,-262.54 148.4,-264.74 C146.61,-274.44 150.81,-316.97 154.31,-324.68 C156.31,-329.08 157.79,-334.47 157.59,-336.67 C157.26,-340.37 157.4,-340.4 159.41,-337.13 C160.61,-335.18 162.53,-334.17 163.68,-334.88 C165.04,-335.72 164.83,-336.84 163.06,-338.11 C160.97,-339.6 161.12,-339.8 163.74,-338.96 C167.8,-337.66 170.26,-343.61 168.26,-349.91 C167.35,-352.77 167.63,-353.71 169.12,-352.79 C170.34,-352.04 171.36,-349.9 171.39,-348.04 C171.45,-345 171.67,-345.03 173.55,-348.26 C175.05,-350.84 174.97,-352.68 173.26,-354.73 C170.69,-357.83 174.17,-360.46 179.23,-359.25 C181.89,-358.61 197.24,-379.16 196.66,-382.59 C196.47,-383.71 195.46,-385.24 194.42,-385.99 C193.37,-386.73 194.77,-388.37 197.52,-389.62 C203.63,-392.41 208.95,-400.06 205.56,-401.19 C204.31,-401.61 203.85,-402.87 204.54,-403.99 C205.34,-405.28 206.51,-405.04 207.74,-403.32 C209.2,-401.28 209.39,-401.5 208.51,-404.21 C207.74,-406.6 208.11,-407.33 209.63,-406.4 C211.13,-405.47 211.36,-405.88 210.3,-407.6 C209.23,-409.33 209.46,-409.73 210.99,-408.79 C212.36,-407.94 213.29,-408.66 213.29,-410.58 C213.29,-412.35 214.64,-416.4 216.28,-419.58 C218.47,-423.81 218.76,-426.72 217.33,-430.46 C215.59,-435.04 219.82,-446.45 228.78,-461.38 C231.83,-466.47 229.98,-457.93 226.31,-450.02 C223.67,-444.33 222.21,-439.23 223.07,-438.7 C223.92,-438.18 227.65,-445.12 231.35,-454.14 C235.05,-463.16 242.35,-476.08 247.57,-482.85 C255.24,-492.8 256.46,-495.39 253.91,-496.37 C252.1,-497.06 249.5,-496.07 247.84,-494.05 C244.39,-489.86 245.01,-492.42 250.5,-505.01 C252.53,-509.68 255.28,-513.5 256.61,-513.5 C257.93,-513.5 263.02,-518.67 267.92,-524.99 C278.6,-538.77 310.29,-569.38 340.84,-595.42 C353.09,-605.86 367.79,-619.79 373.51,-626.39 C385.02,-639.66 396.86,-650.36 400.04,-650.36 C401.18,-650.36 402.4,-652.39 402.75,-654.86 C403.1,-657.33 404.08,-659.36 404.92,-659.36 C406.85,-659.36 406.33,-648.96 404.23,-645.56 C403.37,-644.17 401.54,-637.94 400.18,-631.71 C398.81,-625.49 394.47,-608.2 390.53,-593.29 C386.6,-578.38 383.42,-563.55 383.48,-560.32 C383.69,-549.39 380.93,-530.54 377.22,-517.49 C372.62,-501.37 367.8,-478.86 365.05,-460.71 C363.9,-453.1 362.53,-446.18 362,-445.33 C361.48,-444.48 360.14,-433.62 359.03,-421.2 C353.19,-355.84 352.2,-351.99 326.97,-295.39 C323.71,-288.06 319.81,-278.17 318.31,-273.41 C315.7,-265.09 315.58,-264.99 315.39,-271.04 C315.28,-274.6 320.98,-291.58 328.47,-310 C347.42,-356.61 349.74,-366.76 355.18,-426.58 C358.63,-464.49 360.67,-476.42 371.41,-521.49 C373.63,-530.83 376.21,-545.77 377.14,-554.69 C378.07,-563.61 382.53,-585.97 387.06,-604.39 C397.22,-645.74 397.29,-645.55 378.72,-625.14 C370.34,-615.94 353.38,-599.86 341.03,-589.42 C310.36,-563.51 275.86,-528.67 280.02,-527.84 C288.45,-526.14 282.81,-511.53 268.31,-497.51 C250.41,-480.2 241.65,-466.19 230.22,-436.57 C217.92,-404.68 207.19,-383.11 196.43,-368.64 C191.53,-362.05 183.73,-351.11 179.11,-344.33 C174.49,-337.56 168.63,-330.9 166.09,-329.54 C155.28,-323.76 151.7,-287.71 156.11,-229.28 C157.87,-205.93 158.42,-205.15 169.25,-210.75 C172.39,-212.37 180.88,-214.82 188.13,-216.2 C206.51,-219.69 206.96,-233.77 188.69,-233.77 C170.15,-233.77 181.26,-253.96 200.1,-254.49 C208.97,-254.74 209.32,-254.99 210.46,-261.74 C214.16,-283.61 219.95,-281.49 228.17,-255.25 C235.32,-232.45 238.9,-228.8 254.2,-228.79 C263.73,-228.78 264.43,-228.39 271.16,-219.32 C279.18,-208.51 280.39,-209.78 293.23,-242.44 C296.62,-251.05 300.25,-259.59 301.3,-261.42 C302.35,-263.25 304.08,-267.21 305.15,-270.24 C307.94,-278.11 313.21,-277.45 313.12,-269.24 C313.06,-262.88 307.41,-249.82 307.27,-255.7 C307.15,-260.67 301.68,-251.28 293.98,-232.88 C290.04,-223.48 282.31,-208.38 276.8,-199.31 C271.29,-190.24 263.62,-176.78 259.75,-169.39 C253.18,-156.88 251.83,-155.56 239.77,-149.91 C225.09,-143.04 226.36,-143.44 224.62,-145.19 ZM259.19,-177.35 C264.2,-186.95 269.9,-197.19 271.86,-200.1 C275.38,-205.32 275.36,-205.39 270.83,-205.26 C268.31,-205.19 263.77,-205.83 260.75,-206.68 C255.98,-208.02 255.25,-207.66 255.25,-203.95 C255.25,-201.6 254.02,-199.21 252.51,-198.63 C247.61,-196.75 237.27,-180.36 237.27,-174.47 C237.27,-171.33 235.02,-165.46 232.27,-161.41 C224.01,-149.25 225.63,-147.39 238.68,-154.06 C249.33,-159.51 250.69,-161.05 259.19,-177.35 ZM263.54,-218.25 C258.92,-225.55 257.39,-226.43 253.57,-224.02 C251.35,-222.61 251.34,-221.59 253.5,-218.14 C255.77,-214.5 258.22,-213.3 265.94,-212.07 C266.87,-211.92 265.79,-214.7 263.54,-218.25 ZM-50.17,-162.13 C-56.47,-164.46 -55.62,-164.8 -42.62,-165.18 C-36.12,-165.37 -28.85,-166.56 -26.47,-167.84 C-24.08,-169.11 -21.65,-169.67 -21.05,-169.07 C-18.17,-166.2 -44.31,-159.96 -50.17,-162.13 ZM102.4,-161.37 C103.5,-162.18 104.7,-165.09 105.07,-167.84 C105.92,-174.15 109.41,-178.12 109.37,-172.73 C109.32,-165.27 106.91,-159.84 103.67,-159.87 C101.79,-159.89 101.25,-160.53 102.4,-161.37 ZM9.33,-163.34 C9.24,-164.16 8.73,-167.54 8.21,-170.83 C7.57,-174.8 7.92,-176.15 9.23,-174.83 C12.38,-171.65 14.25,-161.84 11.71,-161.84 C10.49,-161.84 9.42,-162.52 9.33,-163.34 ZM74.14,-164.31 C73.36,-165.57 73.79,-166.96 75.09,-167.39 C76.39,-167.82 76.87,-169.12 76.16,-170.26 C75.43,-171.45 76.08,-171.95 77.65,-171.43 C79.17,-170.92 80.69,-169.12 81.02,-167.42 C81.75,-163.67 76.11,-161.11 74.14,-164.31 ZM-41.89,-168.34 C-40.97,-170.81 -41.59,-171.85 -44.02,-171.9 C-47.07,-171.95 -47.02,-172.28 -43.57,-174.89 C-39.04,-178.33 -29.3,-178.78 -27.37,-175.66 C-26.52,-174.3 -27.79,-173.63 -30.74,-173.88 C-39.07,-174.57 -41.8,-173.98 -38.87,-172.12 C-36.83,-170.83 -37.01,-169.88 -39.74,-167.66 C-42.81,-165.16 -43.06,-165.24 -41.89,-168.34 ZM-24.97,-174.24 C-26.37,-177.87 -25.03,-179.82 -21.14,-179.82 C-19.68,-179.82 -18.48,-178.42 -18.48,-176.71 C-18.48,-175 -19.3,-174.1 -20.31,-174.72 C-21.31,-175.34 -22.5,-174.77 -22.94,-173.44 C-23.46,-171.87 -24.17,-172.14 -24.97,-174.24 ZM9.64,-254.01 C9.73,-255.52 11.01,-259.9 12.49,-263.74 C15.18,-270.74 15.18,-270.74 15.33,-263.49 C15.42,-259.32 14.21,-255.18 12.49,-253.75 C10.07,-251.75 9.52,-251.79 9.64,-254.01 ZM-98.37,-263.65 C-101.1,-265.75 -102.87,-267.94 -102.29,-268.51 C-101.71,-269.09 -98.58,-267.38 -95.33,-264.72 C-88.37,-259.04 -91.11,-258.07 -98.37,-263.65 ZM-84.33,-271.33 C-84.45,-274.8 -78.4,-286.36 -77.13,-285.1 C-76.58,-284.55 -77.96,-280.64 -80.19,-276.42 C-82.42,-272.19 -84.28,-269.91 -84.33,-271.33 ZM321.19,-271.42 C321.19,-278.7 361.87,-327.68 367.92,-327.68 C369.08,-327.68 364.58,-322.06 357.93,-315.19 C351.28,-308.32 341.03,-295.96 335.15,-287.72 C321.9,-269.14 321.19,-268.3 321.19,-271.42 ZM16.41,-285.22 C17.16,-288.24 18.73,-291.61 19.92,-292.71 C21.42,-294.11 21.68,-293.61 20.78,-291.05 C20.06,-289.04 19.48,-285.67 19.48,-283.56 C19.48,-281.45 18.49,-279.73 17.27,-279.73 C15.85,-279.73 15.54,-281.72 16.41,-285.22 ZM141.9,-332.2 C137.82,-337.48 137.19,-339.67 139.77,-339.67 C143.06,-339.67 147.89,-332.24 145.54,-330.79 C144.59,-330.2 142.95,-330.84 141.9,-332.2 ZM-233.04,-355.58 C-236.13,-361.26 -238.23,-366.35 -237.69,-366.88 C-236.37,-368.21 -226.02,-349.43 -226.79,-347.11 C-227.14,-346.08 -229.95,-349.9 -233.04,-355.58 ZM143.36,-348.16 C143.36,-348.98 147.56,-349.66 152.69,-349.66 C157.81,-349.66 161.33,-348.98 160.51,-348.16 C159.68,-347.34 155.49,-346.66 151.19,-346.66 C146.88,-346.66 143.37,-347.34 143.36,-348.16 ZM-17.98,-355.07 C-24.47,-362.25 -24.47,-362.25 -24.68,-355.46 C-24.88,-348.66 -24.88,-348.66 -26.5,-355.5 C-29.43,-367.97 -23.24,-373.89 -16.16,-365.36 C-13.1,-361.67 -10.57,-356.95 -10.54,-354.88 C-10.5,-351.68 -9.85,-351.92 -6.26,-356.49 C-0.54,-363.76 1.04,-361.43 -4.41,-353.77 C-9.79,-346.22 -10.01,-346.24 -17.98,-355.07 ZM-8.41,-383.31 C-12.19,-385.33 -15.69,-388.25 -16.2,-389.8 C-16.99,-392.2 -16.64,-392.21 -13.81,-389.87 C-10.84,-387.42 -10.49,-387.78 -10.49,-393.25 C-10.49,-396.62 -9.53,-399.96 -8.36,-400.69 C-6.93,-401.57 -6.66,-399.72 -7.55,-394.98 C-8.98,-387.4 -5.35,-383.63 3.37,-383.63 C5.64,-383.63 7.49,-382.73 7.49,-381.63 C7.49,-378.42 -0.98,-379.32 -8.41,-383.31 ZM-73.42,-424.07 C-76.71,-427.12 -79.71,-428.71 -80.08,-427.59 C-80.46,-426.47 -83.43,-427.46 -86.7,-429.78 C-89.97,-432.11 -92.33,-434.32 -91.95,-434.7 C-89.49,-437.16 -60.49,-422.9 -60.45,-419.21 C-60.42,-416.11 -67.82,-418.89 -73.42,-424.07 ZM-297.99,-441.79 C-300.62,-443.92 -302.32,-446.11 -301.77,-446.66 C-301.22,-447.21 -298.62,-445.92 -295.99,-443.79 C-293.36,-441.66 -291.66,-439.46 -292.21,-438.92 C-292.76,-438.37 -295.36,-439.66 -297.99,-441.79 ZM447.06,-455.55 C447.06,-457.77 448.4,-459.55 450.06,-459.55 C451.73,-459.55 453.06,-457.77 453.06,-455.55 C453.06,-453.33 451.73,-451.56 450.06,-451.56 C448.4,-451.56 447.06,-453.33 447.06,-455.55 ZM237.27,-475.19 C237.27,-478.25 242.92,-489.52 244.45,-489.52 C246.04,-489.52 243.16,-481.15 240,-476.59 C238.5,-474.42 237.27,-473.79 237.27,-475.19 ZM-237.15,-603.29 C-240.35,-606.63 -242.51,-609.83 -241.94,-610.39 C-240.24,-612.09 -229.72,-602.06 -230.56,-599.54 C-231.01,-598.2 -233.8,-599.79 -237.15,-603.29 ZM267.3,-610.26 C264.17,-618.49 265.17,-621.32 268.5,-613.67 C270.12,-609.97 270.97,-606.47 270.39,-605.9 C269.82,-605.32 268.43,-607.29 267.3,-610.26 ZM-249.04,-630.55 C-251.23,-636.24 -250.19,-638.46 -247.19,-634.5 C-245.58,-632.36 -244.26,-629.89 -244.26,-629 C-244.26,-626.14 -247.79,-627.28 -249.04,-630.55 ZM-257.57,-645.65 C-261.02,-649.96 -266.62,-661.64 -265.68,-662.57 C-264.23,-664.03 -253.8,-647.7 -254.62,-645.25 C-255.17,-643.61 -256.03,-643.72 -257.57,-645.65 ZM307.2,-682.82 C307.2,-684.6 318.02,-693.32 320.23,-693.32 C322.45,-693.32 319.11,-689.54 313.13,-685.29 C309.87,-682.96 307.2,-681.85 307.2,-682.82 Z" style="fill:#000000;" />
			<path d="M-31.47,1016.09 C-121.1,995.84 -163.73,961.73 -186.37,892.13 C-191.02,877.84 -196.57,861.21 -198.71,855.16 C-207.36,830.69 -212.01,815.46 -215.16,801.22 C-216.98,792.97 -220.62,779.49 -223.25,771.25 C-228.7,754.12 -235.28,725.57 -245.34,675.34 C-249.19,656.11 -253.25,637.53 -254.36,634.05 C-255.47,630.58 -258.12,615.86 -260.26,601.34 C-262.39,586.82 -264.59,573.48 -265.16,571.69 C-265.72,569.91 -268.03,555.41 -270.29,539.47 C-272.55,523.54 -276.18,497.91 -278.35,482.53 C-280.53,467.14 -283.13,442.65 -284.14,428.09 C-285.14,413.54 -286.46,400.84 -287.06,399.86 C-288.84,396.99 -292.23,337 -294.2,273.73 C-296.03,214.79 -296.03,214.79 -289.06,208.53 C-282.69,202.8 -282.21,201.6 -283.37,194.31 C-286.14,176.99 -273.58,161.4 -253.78,157.59 C-232.71,153.54 -228.9,153.42 -222.64,156.66 C-214.49,160.88 -189.92,160.99 -183.58,156.83 C-180.49,154.81 -173.54,153.76 -162.33,153.64 C-148.68,153.5 -144.38,152.65 -138.52,148.96 C-105.69,128.24 -76.6,125.5 -59.71,141.53 C-51.99,148.85 -51.99,148.85 -53.39,109.89 C-54.91,67.74 -57.36,30.01 -60.54,0 C-61.65,-10.44 -63.34,-27.52 -64.31,-37.96 C-67.93,-77.12 -74.54,-91.55 -92.41,-99.27 C-96.25,-100.93 -103.9,-105.73 -109.39,-109.94 C-116.3,-115.23 -121.84,-117.79 -127.36,-118.24 C-136.82,-119 -138.93,-123.85 -132.73,-130.55 C-128.73,-134.87 -128.73,-134.87 -137.05,-145.18 C-179.65,-198.03 -188.85,-207.36 -212.98,-222.19 C-223.76,-228.81 -228.28,-232.76 -228.28,-235.56 C-228.28,-242.4 -224.29,-242.58 -204.67,-236.64 C-199.69,-235.13 -204.71,-244.18 -222.54,-268.89 C-226.44,-274.3 -231.55,-282.78 -233.89,-287.73 C-241.6,-304.03 -254.52,-317.58 -311.96,-369.64 C-332.89,-388.61 -359.54,-415.33 -374.71,-432.58 C-398.93,-460.1 -456.02,-518.1 -492.88,-552.64 C-506.37,-565.28 -508,-567.59 -508,-574.12 C-508,-583.47 -508.46,-583.64 -494.18,-568.77 C-486.58,-560.86 -477.71,-554.04 -470.53,-550.61 C-456.5,-543.9 -457.5,-544.48 -433.36,-529.07 C-378.14,-493.81 -383.07,-495.84 -390.56,-511.46 C-394.25,-519.14 -397.33,-530.37 -399.19,-542.93 C-400.78,-553.66 -402.61,-564.92 -403.25,-567.95 C-405.15,-576.86 -399.74,-576.72 -381.62,-567.38 C-341.98,-546.96 -331.72,-536.36 -309.14,-492.52 C-299.53,-473.84 -288.32,-453.61 -284.23,-447.56 C-280.15,-441.52 -275.28,-433.61 -273.42,-429.99 C-271.56,-426.37 -266.47,-418.73 -262.09,-413.01 C-257.72,-407.29 -251.02,-396.42 -247.2,-388.85 C-242.26,-379.05 -240.26,-376.5 -240.26,-379.98 C-240.26,-393.44 -222.15,-435.54 -210.05,-450.23 C-198.25,-464.53 -193.88,-456.19 -204.3,-439.26 C-207.6,-433.9 -210.31,-428.41 -210.32,-427.05 C-210.34,-425.7 -211.7,-420.71 -213.35,-415.98 C-229.33,-370.11 -205.81,-307.72 -139.56,-220.17 C-125.16,-201.16 -111.35,-182.72 -108.85,-179.21 C-98.69,-164.91 -71.55,-141.81 -69.95,-146.1 C-68.39,-150.32 -73.4,-161.77 -84.41,-179.14 C-91.63,-190.51 -92.47,-199.8 -86.28,-199.8 C-82.91,-199.8 -82.41,-200.64 -83.54,-204.3 C-98.37,-252.1 -113.21,-274.06 -132.35,-276.56 C-147.93,-278.59 -164.34,-290.13 -164.34,-299.04 C-164.34,-303.92 -158.3,-304.53 -155.11,-299.97 C-152.79,-296.67 -150.01,-295.7 -142.75,-295.66 C-135.5,-295.61 -131.59,-294.25 -125.53,-289.67 C-115.6,-282.16 -115.18,-282.74 -118.36,-299.61 C-121.49,-316.19 -128.23,-325.51 -142.19,-332.59 C-147.37,-335.21 -152.83,-338.84 -154.33,-340.64 C-155.83,-342.45 -159.58,-345.23 -162.66,-346.83 C-168.78,-349.99 -171.48,-356.87 -169.31,-363.73 C-163.67,-381.48 -91.02,-340.76 -82.55,-315.1 C-79.59,-306.12 -77.38,-306.9 -75.68,-317.53 C-73.86,-328.93 -61.13,-332.52 -49.52,-324.91 C-41.65,-319.76 -45.63,-292.6 -54.6,-290.26 C-60.17,-288.8 -62.75,-279 -59.59,-271.23 C-58.14,-267.66 -55.82,-257.1 -54.42,-247.76 C-52.77,-236.63 -49.23,-224.82 -44.18,-213.53 C-39.93,-204.04 -36.46,-195.17 -36.46,-193.82 C-36.46,-192.05 -34.39,-191.79 -28.97,-192.9 C-24.85,-193.74 -17.88,-194.97 -13.49,-195.63 C-5.49,-196.82 -5.49,-196.82 -5.55,-232.78 C-5.64,-281.02 -14.55,-328.36 -24.55,-333.72 C-26.74,-334.89 -30.65,-339.18 -33.23,-343.25 C-35.82,-347.32 -43.9,-356.75 -51.19,-364.19 C-58.47,-371.64 -64.44,-379.36 -64.44,-381.36 C-64.44,-383.35 -76.02,-397.13 -90.18,-411.98 C-121.06,-444.35 -126.86,-453.56 -116.38,-453.56 C-109.87,-453.56 -109.58,-453.07 -143.33,-499.9 C-170.09,-537.03 -217.93,-581.04 -248.26,-596.43 C-275.4,-610.2 -283.85,-615.52 -299.99,-629.03 C-324.03,-649.14 -333.36,-657.89 -349.37,-675.34 C-403.66,-734.49 -444.6,-775.04 -455.36,-780.3 C-468.02,-786.49 -474.21,-794.12 -485.91,-817.98 C-500.39,-847.47 -498.18,-858.21 -481.86,-837.72 C-458.35,-808.22 -394.92,-767.3 -354.15,-755.34 C-345.91,-752.92 -337,-749.56 -334.36,-747.86 C-329.85,-744.96 -329.66,-745 -331.17,-748.52 C-338.44,-765.37 -343.12,-782.85 -348.22,-812.21 C-354.11,-846.08 -363.7,-877.5 -373.93,-896.38 C-384.5,-915.9 -375.05,-916.08 -354.91,-896.74 C-346.2,-888.37 -341.07,-881.34 -337.28,-872.55 C-334.35,-865.74 -329.99,-855.66 -327.61,-850.17 C-325.22,-844.67 -319.65,-835.23 -315.23,-829.19 C-297.67,-805.18 -239.83,-714.06 -230.36,-695.49 C-225.38,-685.73 -211.76,-667.21 -210.49,-668.48 C-209.97,-669 -209.76,-673.45 -210.01,-678.38 C-211.28,-702.88 -186.53,-672.91 -179.45,-641.37 C-173.26,-613.8 -146.28,-568.47 -131.88,-561.47 C-120.22,-555.8 -114.8,-547.27 -103.93,-517.48 C-97.97,-501.12 -75.14,-466.67 -53.95,-442.04 C-46.46,-433.34 -46.45,-433.34 -46.42,-438.95 C-46.33,-456.18 -35.91,-453.06 -34.15,-435.27 C-32.76,-421.23 -30.76,-416.06 -23.18,-406.95 C-18.48,-401.3 -18.48,-401.3 -18.48,-406.79 C-18.48,-409.81 -17.04,-413.87 -15.28,-415.82 C-8.55,-423.26 -22.79,-454.01 -42.72,-475.04 C-56.71,-489.81 -58.28,-492.88 -54.05,-497.11 C-50.89,-500.27 -46.68,-500.12 -39.96,-496.62 C-36.94,-495.04 -34.46,-494.2 -34.46,-494.74 C-34.46,-502.54 -55.69,-562.72 -60.47,-568.48 C-63.86,-572.57 -65.04,-588.53 -62.52,-596.17 C-59.02,-606.76 -52.8,-606.04 -43.2,-593.92 C-23.59,-569.17 -24.5,-569.31 -17.47,-590.02 C-7.01,-620.83 6.7,-645.37 13.47,-645.37 C17.32,-645.37 18.06,-643.2 20.49,-624.79 C25.06,-590.15 27.64,-602.92 26.07,-652.36 C23.86,-721.62 24.51,-744.6 29.34,-769.25 C32.37,-784.67 33.47,-798.17 33.49,-820.2 C33.56,-884.04 41.85,-937.6 60.96,-997.5 C68.03,-1019.68 68.73,-1020.96 73.75,-1020.98 C85.43,-1021.03 119.25,-935.96 123.38,-896.16 C125.58,-874.96 128.2,-862.07 139.31,-817.76 C143.78,-799.93 148.3,-778.8 149.35,-770.8 C150.4,-762.81 152.18,-750.87 153.3,-744.27 C155.81,-729.42 155.84,-670.94 153.36,-628.48 C152.33,-610.95 151.75,-596.36 152.06,-596.05 C154.6,-593.5 175.28,-627.52 175.6,-634.77 C176.07,-645.24 177.26,-647.54 181.15,-645.46 C187.03,-642.32 188.54,-610.06 183.39,-597.76 C181.24,-592.63 176.43,-580.21 172.71,-570.17 C168.99,-560.13 161.75,-545.6 156.63,-537.9 C139.68,-512.4 126.44,-470.49 125.02,-437.83 C124.38,-423.1 124.38,-423.1 133.87,-420.65 C139.09,-419.31 143.36,-418.97 143.36,-419.9 C143.36,-420.83 145.16,-421.59 147.36,-421.59 C152.66,-421.59 152.61,-414.96 147.23,-402.78 C144.96,-397.65 143.49,-391.91 143.96,-390.04 C144.56,-387.69 145.92,-389.22 148.33,-394.94 C150.25,-399.52 153.45,-403.69 155.43,-404.2 C157.41,-404.72 161.03,-409.07 163.46,-413.87 C165.9,-418.66 171.01,-427.47 174.81,-433.43 C180.35,-442.11 181.51,-445.63 180.64,-451.02 C179.44,-458.42 183.18,-461.81 188.08,-457.75 C190.25,-455.95 192.47,-458.79 199.29,-472.01 C203.96,-481.09 209.37,-490.77 211.3,-493.52 C215.4,-499.36 219.42,-511.53 225.47,-536.48 C227.87,-546.37 231.62,-560.75 233.8,-568.44 C238.68,-585.69 239.14,-612.56 234.77,-625.39 C233.09,-630.33 231.39,-640.67 230.99,-648.37 C230.05,-666.84 233.77,-667.11 246.18,-649.47 C251.17,-642.39 255.25,-638.12 255.25,-639.98 C255.25,-641.85 256.54,-643.37 258.11,-643.37 C259.69,-643.37 261.53,-645.39 262.21,-647.87 C262.88,-650.34 266.46,-660.45 270.14,-670.34 C279.36,-695.05 283.22,-709.25 283.24,-718.47 C283.28,-746.17 301.18,-824.42 313.38,-850.17 C329.41,-884.04 390.08,-951.12 402.49,-948.71 C416.78,-945.93 417,-870.06 402.82,-834.59 C396.26,-818.2 391.02,-799.1 390.09,-788.23 C389.08,-776.41 379.23,-748.47 370.97,-734.01 C364.69,-723.01 355.15,-695.23 355.15,-687.93 C355.15,-680.84 347.12,-661.12 340.37,-651.65 C324.42,-629.27 323.7,-626.71 335.67,-635.05 C348.33,-643.86 391.75,-668.9 401.98,-673.29 C411.81,-677.5 418.54,-686.39 426.24,-705.31 C430.94,-716.84 437.47,-720.49 438.65,-712.24 C439.14,-708.85 441.63,-710.48 453.83,-722.23 C476.16,-743.72 506.48,-771.25 507.81,-771.25 C510.37,-771.25 508.82,-761.05 505.4,-755.43 C503.42,-752.17 491.06,-739.67 477.93,-727.66 C443.06,-695.77 442.62,-695.23 445.03,-688.19 C447.23,-681.77 451.86,-656.84 455.21,-633.38 C456.38,-625.14 458.36,-616.31 459.61,-613.77 C461.01,-610.89 461.15,-608.63 459.96,-607.78 C456.46,-605.26 457.52,-528.06 461.05,-528.29 C467.05,-528.68 465.78,-514.63 458.32,-498.03 C448.02,-475.1 442.26,-449.77 446.31,-445.29 C450.4,-440.77 449.08,-434.73 443.85,-433.98 C440.36,-433.47 439.25,-431.03 437.05,-418.99 C433.95,-402 428.45,-390.23 415.16,-372.14 C406.56,-360.42 405.79,-358.59 408.63,-356.52 C413.56,-352.91 407.79,-340.1 391.59,-318.62 C368.26,-287.71 362.63,-279.23 353.13,-260.75 C348.05,-250.85 338.7,-233.1 332.36,-221.28 C321.93,-201.85 321.23,-199.8 325.01,-199.8 C335.37,-199.8 330.25,-189.03 308.93,-165.94 C280.43,-135.06 277.68,-130.77 283.43,-126.11 C290,-120.79 287.25,-115.89 277.7,-115.89 C271.41,-115.89 268.66,-114.47 262.25,-107.89 C257.95,-103.5 253.34,-99.9 252,-99.9 C250.66,-99.9 246.87,-97.21 243.58,-93.92 C232.05,-82.39 231.16,-72.41 231.67,38.49 C231.92,92.6 232.15,145.41 232.2,155.85 C232.24,166.29 232.95,175.05 233.77,175.33 C234.6,175.6 244.94,175.82 256.75,175.81 C278.23,175.8 278.23,175.8 283.07,168.69 C294.79,151.48 313.66,151.14 339.17,167.68 C344.12,170.89 350.28,173.59 352.87,173.67 C382.86,174.67 429.08,193.91 429.08,205.38 C429.08,208.07 431.75,213.31 435.01,217.02 C441.82,224.77 442.36,298.43 435.81,324.4 C434.19,330.83 431.59,353.31 430.03,374.35 C426.95,416.06 425.92,426.45 423.07,444.57 C422.04,451.16 420.81,459.7 420.35,463.55 C419.88,467.39 418.06,480.88 416.31,493.52 C414.56,506.16 411.28,531.53 409.03,549.91 C406.78,568.29 403.27,589.87 401.24,597.86 C399.2,605.86 396.92,616 396.16,620.39 C393.64,635.12 383.27,676.11 375.94,700.32 C371.95,713.5 366.65,731.93 364.16,741.28 C357.52,766.2 340.35,818.84 319.18,879.14 C313.58,895.07 308.11,911.71 307.01,916.1 C298.72,949.37 231.43,1001.32 184.04,1011.04 C177.6,1012.36 171.36,1014.23 170.18,1015.18 C166.83,1017.89 141.97,1020.95 125.38,1020.7 C110.39,1020.47 110.39,1020.47 132.37,1017.11 C144.46,1015.26 155.7,1013.25 157.35,1012.64 C159,1012.04 168.44,1009.62 178.33,1007.27 C232.44,994.41 294.53,948.32 300.55,916.55 C301.22,913.01 302.74,908.31 303.93,906.11 C305.12,903.92 309.79,891.33 314.3,878.14 C318.81,864.95 326.14,843.83 330.59,831.19 C340.32,803.5 356.31,753.34 358.91,742.27 C359.95,737.88 364.93,720.8 369.97,704.31 C375.02,687.83 380.52,668.5 382.2,661.35 C383.88,654.21 386.53,642.97 388.1,636.38 C389.66,629.78 391.5,621.24 392.19,617.4 C392.89,613.55 395.52,601.41 398.04,590.42 C400.56,579.43 404.16,556.96 406.05,540.47 C407.94,523.99 412.5,488.92 416.18,462.55 C419.87,436.17 424.31,395.35 426.06,371.83 C427.8,348.31 429.8,328.14 430.5,327 C431.21,325.86 431.75,314.98 431.71,302.82 C431.66,285.98 431.99,283.1 433.1,290.72 C434.13,297.81 434.61,292.3 434.74,271.73 C434.93,241.91 435.45,234.73 437.54,232.64 C439.7,230.48 434.77,219.76 430.58,217.52 C426.67,215.43 426.56,215.73 427.82,225.19 C429.26,236.07 426.71,239.95 413.84,246.45 C396.83,255.04 334.56,266.92 287.22,270.61 C208.87,276.72 143.36,279.04 143.36,275.72 C143.36,274.5 144.08,273.94 144.96,274.48 C149.27,277.15 151.08,272.43 149.09,263.69 C143.06,237.33 149.56,214.98 164.55,210.45 C169.6,208.93 170.79,208.05 167.95,207.95 C160.68,207.7 135.64,217.93 129.5,223.66 C123.1,229.64 115.02,226.95 89.92,210.48 C84.15,206.69 76.06,202.36 71.94,200.84 C67.81,199.33 65.79,198.01 67.44,197.92 C70.1,197.76 70.1,197.53 67.44,195.81 C63.7,193.4 50.82,193.18 52.29,195.55 C52.88,196.51 49.32,198.84 44.36,200.73 C34.38,204.55 27.47,214.7 27.47,225.58 C27.47,230.81 26.03,232.31 15.6,237.87 C5.69,243.15 -17.21,260.62 -28.25,271.32 C-30.4,273.39 -35.68,273.73 -51.23,272.79 C-86.25,270.66 -157.28,263.45 -158.97,261.84 C-166.33,254.85 -104.39,202.01 -80.42,194.83 C-73.48,192.75 -57.95,185.76 -54.99,183.38 C-51.18,180.32 -34.47,179.72 -23.96,182.28 C-12.67,185.02 -8.58,182.83 -12.69,176.24 C-14.89,172.73 -14.49,171.22 -9.77,165.03 C-4.7,158.39 -2.07,157 8.49,155.4 C12.73,154.75 12.63,155.3 13.57,127.88 C14.3,106.61 16.41,109.31 17.48,132.87 C18.42,153.4 18.76,154.89 22.74,155.46 C28.84,156.33 31.46,136.07 26.62,125.35 C25.39,122.62 25.75,122.11 28.25,123.07 C30.78,124.04 31.42,123.07 31.24,118.6 C31.1,115.22 30.63,114.32 30.09,116.39 C29.59,118.31 28.35,119.88 27.33,119.88 C24.21,119.88 25.27,114.2 28.75,112.25 C31.36,110.8 31.83,108.29 31.03,100.04 C30.29,92.28 30.85,88.73 33.25,85.96 C37.48,81.11 45.46,78.72 45.46,82.31 C45.46,83.77 43.43,85.86 40.96,86.94 C35.83,89.19 33.43,110.7 34.11,148.22 C34.45,166.82 34.33,167.43 30.82,164.26 C23.29,157.43 1.1,158.37 -5.14,165.79 C-13.52,175.74 -10.74,177.33 16.49,178.14 C25.84,178.42 26.72,178.67 20.48,179.29 C7.12,180.63 8.58,183.08 22.94,183.44 C30.58,183.63 35.35,183.06 33.9,182.14 C29.21,179.15 33.3,173.71 39.14,175.18 C42.02,175.9 45.49,176.49 46.83,176.49 C48.18,176.49 48.86,177.17 48.35,177.99 C47.85,178.81 48.56,179.94 49.94,180.49 C51.93,181.3 51.94,181.54 49.95,181.66 C44.59,182 47.8,185.82 53.45,185.82 C59.05,185.82 62.4,181.92 56.95,181.74 C55.57,181.7 57.44,179.1 61.1,175.97 C65.68,172.05 66.93,169.94 65.1,169.21 C63.4,168.53 63.78,168.09 66.15,167.99 C68.7,167.89 69.49,168.8 68.68,170.91 C67.68,173.51 69.7,173.94 81.96,173.7 C103.97,173.28 117.34,181.01 96.41,182.06 C92.92,182.24 96.25,183.4 104.4,184.85 L118.39,187.34 L105.4,187.93 C94.87,188.4 94.02,188.66 100.9,189.28 C113.08,190.38 111,195.81 98.41,195.81 C92.71,195.81 87.42,197.7 87.42,199.74 C87.42,200.57 89.89,200.94 92.91,200.56 C98.25,199.9 98.27,199.92 93.43,201.43 C90.09,202.46 89.25,203.47 90.89,204.48 C92.23,205.31 95.09,205.04 97.23,203.89 C101.93,201.38 120.07,201.08 118.55,203.54 C117.96,204.49 113.67,205.88 109.02,206.63 C100.56,207.98 100.56,207.98 106.48,212.76 C119.13,222.99 120.5,223.18 132.99,216.41 C139.24,213.01 149.53,208.76 155.85,206.96 C162.22,205.15 167.34,202.54 167.34,201.11 C167.34,199.69 169.67,196.5 172.52,194.02 C179.68,187.8 179.36,187.74 150.97,190.3 C132.27,191.99 124.52,192 121.06,190.33 C116.39,188.09 116.39,188.09 121.38,187.8 C125.94,187.54 125.77,187.26 119.38,184.64 C111.84,181.55 120.86,181.63 139.37,184.82 C146.36,186.03 146.36,186.03 139.64,182.93 C135.94,181.22 129.72,179.82 125.82,179.82 C113.49,179.82 119.68,178.19 144.22,174.97 C172.39,171.28 171.43,171.92 165.52,160.76 C154.7,140.38 136.32,128.77 124.1,134.6 C113.9,139.46 113.39,138.99 113.39,124.73 C113.39,111.95 117.93,106.53 120.98,115.67 C121.54,117.35 121.01,117.89 119.64,117.05 C118.4,116.28 117.27,116.38 117.13,117.27 C115.88,125.19 116.27,127.88 118.66,127.88 C120.16,127.88 121.45,125.85 121.54,123.38 C121.68,119.3 121.88,119.39 123.7,124.38 C125.31,128.77 126.62,129.64 130.26,128.73 C132.76,128.1 138.19,129 142.32,130.73 C151.56,134.59 152.06,134.6 150.66,130.94 C150.04,129.32 150.36,127.49 151.38,126.86 C152.4,126.23 153.76,128.22 154.41,131.29 C155.06,134.36 156.21,137.84 156.97,139.03 C157.73,140.21 161.63,146.1 165.65,152.12 C175.8,167.31 176.56,175.18 167.99,176.19 C161.23,177 159.22,181.83 165.67,181.79 C169.52,181.77 169.81,181.39 167.34,179.63 C165.01,177.98 165.51,177.76 169.59,178.64 C172.48,179.27 179.67,178.95 185.58,177.95 C191.48,176.94 201.49,175.53 207.83,174.83 C218.85,173.59 222.21,169.83 212.29,169.83 C203.27,169.83 205.4,166.34 215.21,165.04 C227.4,163.42 228.24,161.36 226.19,138.11 C225.36,128.64 224.84,101.22 225.05,77.19 L225.44,33.51 L190.63,34.47 C152.17,35.54 151.35,35.73 151.35,43.96 C151.35,47.12 150.5,50.24 149.46,50.89 C148.33,51.59 147.96,48.63 148.55,43.51 C149.61,34.36 153.7,29.6 159.04,31.3 C161.62,32.12 161.75,31.92 159.62,30.4 C157.32,28.76 157.32,28.3 159.62,27.48 C162.44,26.47 157.55,25.68 125.43,21.96 C115.02,20.76 105.81,18.7 104.95,17.38 C103.79,15.59 102.93,15.72 101.51,17.92 C99.09,21.69 99.2,21.77 109.62,23.81 C118.39,25.54 118.39,25.54 110.21,25.76 C103.55,25.93 101.62,26.89 99.77,30.97 C97.32,36.34 91.75,37.5 87.73,33.48 C85.76,31.51 84.9,31.57 83.53,33.79 C82.17,35.99 78.39,36.29 65.46,35.21 C50.15,33.93 49.04,34.1 48.06,37.88 C47.48,40.1 46.2,41.42 45.23,40.82 C42.58,39.18 43.1,32.45 45.96,31.29 C47.33,30.74 46.19,30.22 43.41,30.13 C36.68,29.92 34.42,54.04 40.84,57.64 C44.19,59.52 44.21,59.77 41.06,60.98 C34.92,63.35 33.19,60.07 33.84,47.26 C34.47,34.97 34.47,34.97 15.49,35.53 C-6.79,36.19 -5.52,33 17.13,31.38 C25.18,30.81 32.2,29.9 32.73,29.37 C34.88,27.22 9.06,23.38 -12.82,22.59 C-30.02,21.97 -36.4,21.04 -37.17,19.03 C-38.82,14.72 -34.79,14.2 3.57,13.79 C40.69,13.4 50.18,10.24 15.49,9.82 C-6.7,9.55 -2.09,6.51 20.98,6.19 C35.47,5.99 35.47,5.99 35.47,0.13 C35.47,-3.1 36.3,-7.93 37.32,-10.62 C39.13,-15.38 38.89,-15.53 27.33,-16.84 C17.57,-17.94 10.01,-21.98 17.7,-21.98 C19.09,-21.98 19.45,-24.03 18.67,-27.47 C17.49,-32.69 17.57,-32.77 20.45,-29.09 C22.12,-26.96 23.48,-24.59 23.48,-23.82 C23.48,-21.47 35.31,-20.55 36.26,-22.83 C36.8,-24.13 37.21,-23.99 37.31,-22.48 C37.55,-18.64 41.42,-19.52 41.74,-23.48 C41.9,-25.4 42.74,-23.38 43.61,-18.98 C45.28,-10.61 44.55,-51.44 42.24,-95.91 C41.34,-113.34 41.58,-120.28 43.05,-118.88 C45.75,-116.31 50.26,-21.52 48.43,-5.75 C47.06,5.99 47.06,5.99 55.08,5.99 C59.7,5.99 63.46,7.05 63.93,8.47 C64.52,10.25 65.77,9.94 68.32,7.4 C71.57,4.14 72.08,4.12 74.23,7.06 C76.24,9.81 77.4,9.91 82.15,7.75 C86.78,5.64 88.01,5.7 89.56,8.11 C91.12,10.53 91.69,10.55 93.18,8.25 C94.62,6.01 95.29,6.14 96.86,8.95 C99.02,12.81 215.38,15.87 221.04,12.22 C223.17,10.84 224.08,0.59 225.07,-33.24 C226.6,-85.32 229.51,-95.53 244.91,-102.92 C253.73,-107.15 254.77,-109.96 250.94,-119.25 C249.66,-122.35 248.79,-125.93 248.99,-127.22 C249.2,-128.52 248.44,-130.14 247.31,-130.84 C246.18,-131.54 245.29,-133.63 245.32,-135.49 C245.41,-140.37 255.23,-123.77 255.24,-118.72 C255.26,-112.38 257.29,-111.63 262.78,-115.95 C265.62,-118.19 270.84,-119.88 274.88,-119.88 C281.98,-119.88 281.98,-119.88 277.61,-123.96 C275.2,-126.2 273.23,-128.41 273.23,-128.88 C273.23,-132.4 288.45,-152.15 304.24,-169.13 C325.44,-191.92 325.6,-192.2 317.05,-190.49 C309.34,-188.94 309.27,-188.76 336.97,-242.76 C358.29,-284.33 361.35,-289.28 385.51,-321.5 C403.27,-345.17 404.29,-347.72 393.16,-340.69 C383.84,-334.81 380.18,-334.18 386.63,-339.56 C389.81,-342.21 390.4,-343.66 388.63,-344.47 C387.25,-345.11 388.37,-345.19 391.12,-344.66 C393.87,-344.13 394.96,-344.23 393.54,-344.87 C390.05,-346.46 402.84,-369.89 413.06,-380.63 C423.31,-391.39 428.01,-401.69 430.85,-419.59 C432.16,-427.83 434.06,-437.27 435.07,-440.57 C436.08,-443.87 438.77,-455.11 441.04,-465.54 C443.34,-476.1 448.26,-490.62 452.11,-498.25 C458.06,-510.01 461.93,-524.49 457.52,-518.49 C456.72,-517.39 454.95,-516.28 453.61,-516.01 C451.34,-515.56 451.75,-553.36 454.09,-560.83 C456.34,-568 449.71,-635.42 444.26,-660.74 C438.12,-689.31 437.77,-689.57 424.44,-675.37 C418.06,-668.58 412.06,-661.08 411.1,-658.69 C409.72,-655.27 409.33,-655.09 409.23,-657.86 C409.16,-659.78 407.58,-661.35 405.73,-661.35 C403.1,-661.35 403.61,-662.66 408.1,-667.35 C411.26,-670.64 413,-673.31 411.97,-673.28 C406.47,-673.1 347.23,-639 332.01,-627.26 C308.92,-609.44 310.8,-620.32 337.04,-656.36 C342.23,-663.49 346.28,-674.92 352.61,-700.32 C353.71,-704.71 355.31,-709.97 356.17,-712 C357.21,-714.47 351.9,-711.93 340.23,-704.41 C330.6,-698.2 322.31,-693.53 321.81,-694.03 C321.31,-694.53 326.07,-698.4 332.39,-702.63 C359.99,-721.07 377.51,-752.22 385.04,-796.22 C387.51,-810.7 392.04,-827.43 394.94,-832.86 C402.17,-846.36 411.48,-918.72 406.74,-924.51 C405.65,-925.83 405.25,-927.71 405.85,-928.67 C407.32,-931.06 402.88,-945.08 400.65,-945.08 C397.58,-945.08 377.07,-924.7 365.46,-910.11 C359.33,-902.42 352,-893.88 349.15,-891.13 C342.87,-885.07 324.99,-860.14 324.43,-856.66 C324.21,-855.29 322.53,-851.92 320.71,-849.17 C314.89,-840.42 307.37,-817.99 308.63,-813.16 C309.46,-809.99 309.12,-809.02 307.52,-810.01 C306.07,-810.91 305.2,-809.99 305.2,-807.55 C305.2,-805.42 302.1,-791.56 298.31,-776.76 C294.52,-761.97 290.43,-740.06 289.23,-728.09 C286.84,-704.24 283.96,-692.34 274.88,-668.78 C271.58,-660.22 267.23,-647.63 265.22,-640.8 C263.2,-633.97 261.48,-629.96 261.4,-631.88 C260.86,-644.32 243.92,-608.3 243.38,-593.57 C243.06,-584.59 239.32,-568.12 230.67,-537.47 C221.29,-504.22 221.39,-503.17 233.04,-514.46 C238.59,-519.85 244.51,-525.03 246.21,-525.97 C247.9,-526.92 251.1,-531.25 253.31,-535.58 C257.72,-544.24 264.6,-546.77 262.51,-538.97 C261.84,-536.5 261.26,-532.23 261.21,-529.48 C261.14,-525.2 260.84,-524.98 259.14,-527.9 C257.35,-530.96 256.44,-530.65 250.3,-524.9 C246.54,-521.38 241.27,-516.96 238.61,-515.09 C233.98,-511.83 199.31,-461.88 199.31,-458.46 C199.31,-455.13 190.8,-447.88 188.1,-448.92 C186.11,-449.68 185.32,-448.31 185.32,-444.08 C185.32,-440.82 183.13,-435.11 180.44,-431.37 C177.76,-427.64 172.62,-419.28 169.01,-412.79 C165.41,-406.31 161.09,-400.64 159.41,-400.19 C157.72,-399.74 154.1,-394.74 151.35,-389.06 C148.6,-383.39 144.19,-377.67 141.55,-376.35 C133.33,-372.25 130.71,-362.82 135.22,-353.5 C137.3,-349.19 138.16,-345.66 137.14,-345.66 C136.11,-345.66 134.45,-347.82 133.44,-350.46 C130.79,-357.45 127.98,-358.34 126.55,-352.64 C125.87,-349.9 124.45,-347.66 123.41,-347.66 C122.36,-347.66 121.87,-348.78 122.3,-350.16 C138.02,-399.61 138.01,-399.57 128.18,-389 C120.03,-380.23 116.63,-380.29 116.18,-389.24 C116,-392.72 116.65,-395.07 117.62,-394.47 C118.59,-393.87 119.38,-391.63 119.38,-389.5 C119.38,-386.38 120.69,-387.1 125.93,-393.11 C138.43,-407.43 138.32,-407.05 130.24,-408 C124.11,-408.71 122.72,-408.13 121.24,-404.23 C117.64,-394.77 116.82,-400.32 117.99,-426.08 C119.64,-462.4 128.23,-505.11 136.17,-516.5 C138.47,-519.79 139.93,-522.49 139.41,-522.49 C138.89,-522.49 139.68,-525.41 141.16,-528.98 C142.64,-532.55 145.09,-535.48 146.6,-535.48 C148.12,-535.48 149.36,-537.33 149.36,-539.6 C149.36,-544.88 152.8,-551.62 157.46,-555.46 C163.27,-560.24 179.83,-604.69 180.54,-617.4 C180.88,-623.44 180.64,-626.59 180.02,-624.39 C176.36,-611.42 158.8,-590.13 150.52,-588.63 C144.82,-587.59 144.82,-587.59 146.08,-603.99 C154.48,-713.63 152.05,-745.99 128.72,-835.42 C124.81,-850.39 120.59,-872.42 119.33,-884.38 C116.84,-908.02 113.94,-920.57 106.01,-942.08 C101.31,-954.83 98.08,-962.52 87.55,-986.04 C85.59,-990.43 81.93,-999.23 79.44,-1005.59 C76.95,-1011.95 74.66,-1016.89 74.35,-1016.58 C73.58,-1015.79 67.27,-992.72 66.81,-989.03 C66.6,-987.38 65.54,-985.36 64.44,-984.54 C63.17,-983.59 63.43,-982.4 65.15,-981.29 C66.86,-980.19 67.11,-979.08 65.82,-978.28 C64.7,-977.59 63.33,-978.15 62.77,-979.53 C61.73,-982.11 60.7,-972.79 61.34,-966.54 C61.54,-964.61 60.35,-961.69 58.71,-960.05 C54.86,-956.2 49.89,-939 48.58,-925.05 C46.98,-907.86 45.73,-900.87 43.84,-898.41 C42.88,-897.15 41.88,-887.75 41.63,-877.51 C41.39,-867.28 40.73,-856.94 40.17,-854.54 C39.62,-852.13 39.16,-837.13 39.16,-821.2 C39.16,-801.95 37.83,-783.87 35.19,-767.31 C30.5,-737.96 30.11,-723.36 32.21,-655.36 C34.39,-584.48 40.69,-545.96 60.28,-483.77 C66.06,-465.42 70.24,-444.82 66.11,-455.07 C65.55,-456.45 64.34,-457.11 63.42,-456.54 C62.5,-455.97 57.05,-461.83 51.3,-469.55 C39.69,-485.17 35.37,-486.91 45.07,-472.07 C65.63,-440.62 73.04,-414.23 73.57,-370.64 C73.76,-354.37 71.46,-292.36 70.27,-281.81 C69.6,-275.82 68.71,-263.68 68.31,-254.84 C67.91,-246 66.71,-232.06 65.64,-223.86 C64.58,-215.67 64.44,-207.65 65.34,-206.05 C67.03,-203.03 64.96,-193.15 61.8,-189.12 C60.81,-187.85 59.43,-182.32 58.73,-176.83 C57.87,-170 58.09,-167.79 59.43,-169.83 C61.04,-172.31 61.39,-172.12 61.41,-168.73 C61.43,-166.47 64.22,-160.85 67.61,-156.24 C71,-151.63 72.97,-147.86 71.98,-147.86 C69.21,-147.86 59.91,-158.26 57.69,-163.84 C55.7,-168.83 55.7,-168.83 55.54,-163.84 C55.42,-159.85 54.99,-159.45 53.42,-161.84 C52.34,-163.49 52,-167.42 52.67,-170.58 C53.5,-174.52 53.18,-175.9 51.66,-174.96 C50.45,-174.21 49.45,-174.49 49.45,-175.59 C49.45,-176.69 50.16,-178.03 51.02,-178.56 C51.89,-179.1 52.33,-185.95 52.01,-193.79 C51.68,-201.64 52.17,-207.59 53.1,-207.01 C55.5,-205.53 55.25,-212.52 52.85,-214.09 C51.58,-214.92 51.51,-218.14 52.68,-223.08 C53.68,-227.31 54.48,-243.14 54.47,-258.25 C54.46,-275.68 55.18,-285.47 56.45,-285.05 C58.64,-284.31 58.72,-282.97 59.15,-236.94 C59.48,-201.16 60.4,-197.88 62.27,-225.78 C62.97,-236.22 63.92,-247.91 64.38,-251.75 C64.84,-255.6 65.75,-269.99 66.4,-283.72 C67.05,-297.46 67.91,-313.42 68.32,-319.19 C69.32,-333.55 63.92,-337.66 44.18,-337.56 C21.18,-337.44 13.8,-335.91 14.95,-331.52 C17.64,-321.24 13.73,-317.01 7.61,-323.56 C-0.28,-332 -4.8,-330.14 -3.53,-318.98 C-2.58,-310.7 -2.58,-310.7 -5.28,-318.69 C-8.95,-329.54 -0.97,-338.14 6.38,-331.27 C10.21,-327.69 10.54,-327.66 11.21,-330.91 C11.6,-332.84 10.7,-335.39 9.21,-336.58 C4.27,-340.53 1.34,-347.25 4.07,-348.36 C5.85,-349.09 5.71,-349.9 3.56,-351.4 C1.94,-352.52 1.28,-354.1 2.09,-354.91 C4.7,-357.52 8.11,-352.04 7.93,-345.55 C7.75,-339.25 7.75,-339.25 17.11,-340.7 C22.26,-341.49 32.99,-341.99 40.96,-341.8 C52.87,-341.52 55.45,-342.01 55.45,-344.56 C55.45,-346.26 54.1,-347.66 52.45,-347.66 C50.8,-347.66 49.45,-348.99 49.45,-350.61 C49.45,-352.93 50.52,-353.15 54.45,-351.66 C58.43,-350.14 59.44,-350.38 59.44,-352.82 C59.44,-357.6 63.42,-353.96 63.58,-349.04 C63.72,-344.82 63.78,-344.81 65.44,-348.66 C68.31,-355.35 67.69,-356.75 60.95,-358.74 C53.47,-360.94 51.76,-366.69 51.57,-390.39 C51.45,-404.15 51.45,-404.15 42.18,-402.88 C37.08,-402.18 25.01,-401.61 15.35,-401.61 C-1.28,-401.61 -2.26,-401.37 -3.08,-397.11 C-3.84,-393.19 -3.98,-393.31 -4.22,-398.02 C-4.53,-404.17 1.04,-406.02 17.48,-405.25 C39.85,-404.19 52.22,-407.19 50.02,-413.13 C48.18,-418.13 45.77,-419.26 33.78,-420.76 C24.17,-421.96 22.79,-422.75 20.42,-428.41 C16.19,-438.55 9.94,-465.46 8.56,-479.53 C7.86,-486.67 6.83,-495.22 6.27,-498.51 C5.49,-503.1 5.75,-503.8 7.36,-501.51 C8.91,-499.31 9.16,-500.89 8.31,-507.5 C7.48,-514.04 8.53,-520.87 12.15,-532.48 C24.14,-570.93 25.52,-584.85 19.59,-607.53 C17.45,-615.7 15.47,-626.27 15.2,-631.01 C14.03,-650.92 4.06,-635.71 -12.7,-588.42 C-17.53,-574.81 -21.44,-566.66 -22.99,-567.02 C-25.87,-567.68 -43.7,-586.26 -49.18,-594.3 C-59.93,-610.09 -61.23,-581.64 -50.77,-559.45 C-42.68,-542.29 -27.67,-494.92 -29.03,-490.84 C-29.43,-489.63 -23.63,-481.53 -16.13,-472.85 C-8.63,-464.17 -2.5,-456.09 -2.5,-454.89 C-2.5,-452.45 -3.21,-453.19 -18.5,-471.26 C-29.23,-483.94 -41.66,-493.52 -47.41,-493.52 C-52.53,-493.52 -50.92,-490.86 -38.3,-478.47 C-25.53,-465.93 -21.59,-459.6 -12.24,-436.65 C-5.41,-419.9 -5.36,-419.24 -10.49,-414.59 C-13.16,-412.17 -14.48,-408.44 -14.48,-403.3 C-14.48,-398.1 -15.38,-395.61 -17.24,-395.61 C-21.67,-395.61 -35.99,-415.87 -37.57,-424.35 C-38.71,-430.49 -39.39,-431.42 -40.85,-428.81 C-46.74,-418.29 -95.95,-485.02 -113.62,-527.48 C-121.47,-546.35 -127.62,-555.46 -132.53,-555.46 C-133.47,-555.46 -133.72,-554.11 -133.09,-552.46 C-131.07,-547.18 -135.58,-549.26 -138.53,-554.96 C-140.08,-557.98 -142.82,-561.8 -144.6,-563.45 C-146.38,-565.1 -154.7,-578.01 -163.09,-592.13 C-177.05,-615.65 -181.67,-626.77 -188.27,-652.72 C-189.43,-657.31 -193.52,-664.81 -197.34,-669.39 C-204.3,-677.72 -204.3,-677.72 -204.3,-670.66 C-204.3,-662.06 -207.39,-653.36 -210.46,-653.36 C-211.71,-653.36 -212.17,-654.79 -211.49,-656.57 C-210.7,-658.63 -213.78,-664.25 -220.12,-672.33 C-225.55,-679.24 -232.87,-690.61 -236.39,-697.6 C-239.91,-704.59 -245.59,-714.35 -249.02,-719.3 C-252.44,-724.24 -256.24,-730.09 -257.45,-732.28 C-265.6,-747.02 -285.09,-778.66 -290.6,-786.1 C-294.24,-791.01 -299.46,-798.82 -302.2,-803.46 C-304.95,-808.1 -311.73,-817.36 -317.27,-824.04 C-326.15,-834.74 -338.17,-856.98 -338.17,-862.7 C-338.17,-867.1 -348.14,-881.94 -358.26,-892.62 C-369.19,-904.15 -373.56,-904.16 -366.47,-892.63 C-359.18,-880.8 -344.16,-829.95 -344.16,-817.11 C-344.16,-808.38 -336.27,-775.36 -331.35,-763.54 C-324.02,-745.93 -323.64,-743.91 -327.37,-742.48 C-329.19,-741.78 -331.69,-742.02 -332.93,-743.02 C-334.16,-744.02 -345.96,-748.64 -359.15,-753.29 C-399.54,-767.53 -444.25,-794.08 -476.53,-823.01 C-482.77,-828.61 -483.2,-827.86 -479.2,-818.3 C-477.65,-814.58 -476.97,-810.87 -477.7,-810.05 C-478.43,-809.24 -477.68,-809.31 -476.03,-810.21 C-474.38,-811.11 -473.67,-811.14 -474.45,-810.28 C-479.02,-805.21 -462.99,-786.18 -451.55,-783.1 C-445.59,-781.49 -437.84,-774.96 -416.99,-753.98 C-402.21,-739.11 -390.12,-727.45 -390.12,-728.07 C-390.12,-730 -403.93,-750.92 -406.08,-752.25 C-407.19,-752.94 -408.1,-754.46 -408.1,-755.62 C-408.1,-759.6 -401.5,-752.39 -392.66,-738.76 C-387.85,-731.33 -384.47,-724.35 -385.15,-723.24 C-386.57,-720.95 -337.96,-667.97 -319.19,-651.36 C-286.17,-622.14 -276.96,-615.66 -251.17,-603.46 C-228.51,-592.75 -227.36,-592.33 -229.27,-595.42 C-231.3,-598.69 -228.15,-597.69 -223.56,-593.61 C-172.25,-547.9 -151.77,-524.28 -111.64,-464.55 C-103.52,-452.46 -97.81,-442.22 -98.94,-441.8 C-100.08,-441.38 -98.85,-439.84 -96.21,-438.37 C-93.57,-436.91 -92.59,-435.68 -94.04,-435.65 C-95.48,-435.61 -98.48,-436.55 -100.7,-437.73 C-109.73,-442.56 -106.09,-436.76 -90.21,-420.96 C-69.69,-400.57 -58.8,-388.17 -55.78,-381.79 C-53.5,-376.96 -50.87,-373.62 -34.96,-355.31 C-30.29,-349.93 -26.47,-344.85 -26.47,-344.03 C-26.47,-343.2 -23.92,-341.02 -20.8,-339.17 C-15.11,-335.81 -4.49,-309.15 -4.49,-298.22 C-4.49,-295.88 -3.45,-291.44 -2.16,-288.35 C-0.67,-284.74 0.33,-266.15 0.62,-236.54 C0.88,-209.78 1.94,-188.74 3.12,-186.52 C4.39,-184.15 4.56,-178.55 3.58,-171.77 C2.49,-164.21 1.92,-162.85 1.75,-167.34 C1.5,-173.86 -4.45,-176.76 -7.49,-171.83 C-8.17,-170.73 -10.25,-169.85 -12.1,-169.88 C-14.76,-169.91 -14.43,-170.73 -10.59,-173.69 C-6.34,-176.95 -6.05,-177.88 -8.42,-180.74 C-10.79,-183.59 -10.6,-184.17 -6.96,-185.12 C-4.66,-185.72 -3.17,-187.25 -3.66,-188.51 C-5.01,-192.01 -17.71,-192.19 -25.77,-188.82 C-29.72,-187.17 -34.87,-185.8 -37.21,-185.79 C-40.68,-185.76 -40.91,-185.4 -38.46,-183.82 C-34.66,-181.36 -39.21,-181.22 -45.31,-183.61 C-48.53,-184.87 -48.65,-185.31 -46.06,-186.31 C-41.34,-188.12 -43.03,-200.69 -50.06,-216.12 C-53.4,-223.45 -57.24,-236.49 -58.59,-245.09 C-59.95,-253.7 -62.57,-263.47 -64.42,-266.8 C-69.5,-275.95 -71.29,-284.48 -67.87,-283.17 C-66.07,-282.48 -64.26,-284.42 -62.72,-288.69 C-61.41,-292.31 -58.7,-295.7 -56.7,-296.22 C-50.07,-297.96 -48.16,-318.32 -54.31,-321.62 C-59.64,-324.46 -68.39,-324.21 -69.33,-321.19 C-69.75,-319.81 -71.3,-314.72 -72.76,-309.86 C-76.74,-296.69 -80.9,-297.56 -87.43,-312.91 C-95.58,-332.09 -134.5,-360.8 -155.58,-363.18 C-173.34,-365.18 -166.21,-351.26 -143.36,-339.3 C-124.61,-329.49 -119.24,-322.42 -113.11,-299.47 C-108.3,-281.41 -108.33,-277.73 -113.31,-277.73 C-114.88,-277.73 -113.57,-275.13 -110.14,-271.47 C-97.86,-258.32 -74.57,-204.96 -77.63,-196.98 C-78.29,-195.27 -76.38,-193.9 -72.17,-193.06 C-68.61,-192.35 -64.29,-190.54 -62.57,-189.05 C-60.85,-187.56 -56.74,-185.39 -53.45,-184.24 C-48.43,-182.48 -48.17,-182.11 -51.89,-181.98 C-54.32,-181.89 -59.72,-183.52 -63.87,-185.6 C-81.56,-194.44 -85.24,-193.06 -78.08,-180.28 C-63.58,-154.41 -60.98,-141.83 -69.46,-138.58 C-72.66,-137.35 -111.58,-170.14 -113.28,-175.5 C-113.88,-177.39 -120.33,-184.75 -127.62,-191.86 C-140.86,-204.8 -140.86,-204.8 -139.61,-198.06 C-138.53,-192.23 -138.77,-191.66 -141.36,-193.81 C-145.17,-196.97 -145.18,-201.57 -141.4,-205.76 C-138.74,-208.7 -139.81,-210.84 -151.96,-226.9 C-159.4,-236.72 -170.63,-252.59 -176.92,-262.16 C-183.2,-271.73 -191.62,-282.75 -195.63,-286.64 C-199.64,-290.53 -201.99,-293.71 -200.85,-293.71 C-199.72,-293.71 -197.66,-292.34 -196.27,-290.67 C-190.53,-283.76 -192.43,-290.46 -200.48,-305.57 C-206.4,-316.68 -209.6,-320.91 -210.81,-319.19 C-211.89,-317.64 -212.07,-318.59 -211.29,-321.69 C-210.28,-325.69 -210.48,-326.09 -212.29,-323.68 C-214.1,-321.28 -214.3,-321.68 -213.29,-325.68 C-212.39,-329.23 -212.59,-329.87 -213.96,-327.88 C-215.46,-325.71 -216.87,-326.98 -220.23,-333.57 C-222.61,-338.23 -224.11,-342.5 -223.56,-343.05 C-223.02,-343.59 -220.75,-340.58 -218.52,-336.36 C-213.35,-326.57 -213.35,-328.15 -218.48,-349.01 C-223.85,-370.82 -223.37,-410.45 -217.6,-421.22 C-215.65,-424.87 -214.37,-429.36 -214.77,-431.21 C-216.26,-438.19 -236.27,-386.24 -236.27,-375.38 C-236.27,-372.35 -237.17,-369.32 -238.27,-368.64 C-239.36,-367.96 -240.26,-368.41 -240.26,-369.64 C-240.26,-370.87 -241.05,-371.38 -242.02,-370.79 C-242.98,-370.19 -247.25,-376.47 -251.51,-384.74 C-255.76,-393.01 -264.33,-406.17 -270.55,-413.99 C-276.83,-421.89 -281.38,-429.45 -280.79,-431 C-280.2,-432.53 -281.45,-435.76 -283.58,-438.17 C-288.86,-444.2 -299.71,-462.83 -311.15,-485.53 C-316.41,-495.97 -322.99,-508.55 -325.76,-513.5 C-337.54,-534.47 -361.92,-553.77 -398.42,-571.03 C-399.14,-571.37 -398.95,-568.23 -398,-564.05 C-397.05,-559.87 -395.26,-549.71 -394.03,-541.47 C-392.67,-532.39 -389.1,-520.84 -384.96,-512.16 C-376.61,-494.65 -375.85,-486.76 -382.76,-489.38 C-387,-490.99 -400.31,-499.16 -405.1,-503.09 C-418.37,-513.97 -469.47,-544.71 -471.28,-542.9 C-471.67,-542.5 -463.88,-534.15 -453.96,-524.34 C-419.79,-490.56 -360.45,-426.58 -358.5,-421.41 C-357.68,-419.25 -286.82,-353.63 -272.64,-341.9 C-257.26,-329.18 -228.28,-294.67 -228.28,-289.07 C-228.28,-287.42 -223.55,-279.68 -217.79,-271.87 C-182.66,-224.36 -180.54,-219.27 -199.35,-227.59 C-214.85,-234.45 -214.29,-230.2 -198.3,-219.59 C-186.76,-211.93 -177.08,-202.04 -152.36,-172.66 C-121.9,-136.47 -121.04,-134.77 -128.87,-126.22 C-133.37,-121.32 -133.37,-121.32 -128.01,-122.6 C-121.01,-124.28 -115.21,-121.93 -104.66,-113.11 C-93.9,-104.12 -91.1,-104.07 -88.68,-112.83 C-86.48,-120.8 -79.14,-131.87 -76.06,-131.87 C-74.91,-131.87 -75.61,-129.4 -77.62,-126.38 C-91.5,-105.49 -89.09,-97.18 -71.13,-104.01 C-66.59,-105.74 -66.11,-106.5 -68.5,-108.15 C-70.68,-109.66 -69.76,-109.97 -64.94,-109.38 C-61.36,-108.94 -58.44,-109.43 -58.44,-110.45 C-58.44,-111.48 -57.1,-111.8 -55.46,-111.17 C-51.12,-109.51 -8.51,-114.3 -9.75,-116.31 C-10.33,-117.24 -14.1,-117.41 -18.14,-116.68 C-22.17,-115.95 -24.82,-116.06 -24.02,-116.91 C-21.91,-119.17 -2.27,-121.98 0.29,-120.4 C1.53,-119.63 0.33,-118.46 -2.52,-117.67 C-7.49,-116.29 -7.49,-116.29 -2.11,-116.09 C0.84,-115.98 3.82,-116.79 4.5,-117.88 C5.18,-118.98 5,-119.89 4.12,-119.89 C3.23,-119.9 2.36,-123.62 2.18,-128.15 C2.01,-132.69 0.66,-137.17 -0.81,-138.1 C-2.98,-139.47 -2.92,-139.81 -0.5,-139.86 C2.17,-139.92 2.17,-140.14 -0.5,-141.86 C-2.5,-143.15 -2.66,-143.81 -1,-143.83 C0.45,-143.85 1.5,-146.43 1.5,-149.97 C1.5,-162.12 4.94,-153.61 6.07,-138.66 C6.7,-130.24 8.19,-122.39 9.36,-121.22 C12.92,-117.65 11.83,-114.18 7.49,-115.31 C5.3,-115.88 3.5,-115.54 3.5,-114.56 C3.5,-113.57 5.83,-112.57 8.67,-112.33 C16.74,-111.67 17.48,-110.44 17.48,-97.9 C17.48,-91.44 18.44,-85.56 19.62,-84.83 C21.75,-83.52 21.75,-70.72 19.63,-66.93 C18.13,-64.28 14.33,-87.44 13.72,-102.9 C13.49,-108.89 13.49,-108.89 -3,-108.65 C-28.81,-108.27 -56.44,-105.66 -56.44,-103.6 C-56.44,-102.57 -57.57,-101.91 -58.94,-102.15 C-60.31,-102.38 -64.78,-101.87 -68.87,-101.02 C-76.3,-99.48 -76.3,-99.48 -71.54,-93.2 C-68.92,-89.74 -66.17,-83.32 -65.43,-78.92 C-64.7,-74.53 -63.28,-68.23 -62.28,-64.94 C-59.85,-56.92 -52.45,-3.22 -52.45,6.37 C-52.45,13.27 -51.13,14.93 -46.17,14.29 C-45.46,14.2 -44.42,15.9 -43.86,18.05 C-43.07,21.05 -43.85,21.99 -47.14,22.04 C-51.35,22.1 -51.36,22.15 -47.49,24.4 C-45.31,25.66 -39.02,26.6 -33.5,26.49 C-23.48,26.29 -23.48,26.29 -35.26,28.09 C-52.54,30.74 -51.38,31.94 -31.3,32.17 C-21.5,32.28 -11.24,33.11 -8.49,34.02 C-5.56,34.98 -12.16,35.26 -24.47,34.69 C-51.3,33.45 -50.04,32.09 -48.63,60.94 C-46.32,108.06 -47.95,170 -51.6,173.65 C-52.07,174.12 -52.45,170.04 -52.45,164.6 C-52.45,151.55 -66.48,136.28 -80.16,134.45 C-97.19,132.17 -146.36,151.23 -146.36,160.12 C-146.36,161.21 -148.47,164.97 -151.06,168.47 C-162.8,184.35 -168.91,201.32 -167.47,214.04 C-166.12,225.97 -166.12,225.97 -174.35,221.77 C-197.66,209.88 -227.95,218.37 -235.01,238.77 C-238.25,248.14 -240.92,248.49 -258.56,241.87 C-281.86,233.11 -288.81,224.09 -281.21,212.49 C-276.79,205.75 -279.02,204.12 -285.75,209.16 C-291.21,213.25 -291.21,213.25 -290.67,245.99 C-289.73,302.95 -285.63,382.58 -283.85,378.47 C-282.71,375.85 -282.49,376.85 -283.17,381.63 C-284.4,390.26 -279.72,442.7 -274.26,481.53 C-272.02,497.46 -268.84,520.39 -267.2,532.48 C-265.55,544.57 -262.89,561.65 -261.27,570.44 C-259.66,579.23 -257.37,593.62 -256.19,602.41 C-255,611.2 -252.79,622.89 -251.28,628.39 C-249.77,633.88 -246.62,649.17 -244.28,662.35 C-241.95,675.54 -237.45,696.22 -234.3,708.31 C-231.14,720.4 -227.05,737.93 -225.2,747.27 C-223.36,756.61 -221.09,765.69 -220.16,767.45 C-219.23,769.21 -214.79,784.85 -210.29,802.21 C-205.8,819.57 -199.52,840.61 -196.34,848.96 C-193.17,857.32 -189.04,869.55 -187.18,876.14 C-182.53,892.63 -167.41,929.5 -161.56,938.59 C-137.56,975.93 -64.02,1010.47 9.49,1018.94 C22.48,1020.43 22.48,1020.43 5.5,1020.52 C-5.21,1020.58 -18.88,1018.94 -31.47,1016.09 ZM179.48,269.24 C179.61,267.24 179.84,267.24 180.65,269.24 C181.27,270.77 185.52,271.73 191.6,271.73 C197.87,271.73 201.07,270.98 200.28,269.69 C198.26,266.43 203.94,255.75 207.69,255.75 C210.54,255.75 210.29,254.87 206.2,250.46 C203.51,247.56 201.3,243.51 201.3,241.47 C201.3,235.52 204.29,237.2 206.99,244.66 C209.63,251.95 213.76,252.39 218.63,245.88 C220.33,243.6 224.24,242.82 233.11,242.98 C247.29,243.23 248.33,241.41 237.27,235.77 C232.13,233.15 229.28,232.53 229.28,234.04 C229.28,235.52 227.96,235.2 225.74,233.18 C221.04,228.94 218.17,231.14 216.49,240.27 C214.66,250.18 211.52,249.86 211.66,239.77 C211.74,233.76 212.58,231.77 215.03,231.76 C217.14,231.75 216.17,230.34 212.29,227.78 C209,225.59 203.86,223.8 200.87,223.79 C197.65,223.79 192.54,221.23 188.29,217.5 C179.43,209.72 155.05,215.22 160.36,223.8 C160.94,224.74 160.57,226.02 159.55,226.65 C156.33,228.64 152.83,255.8 154.59,265.24 C155.79,271.7 155.87,271.73 167.56,271.73 C175.56,271.73 179.38,270.93 179.48,269.24 ZM175.57,263.93 C171.09,261.1 170.63,246.28 174.95,243.97 C179.12,241.73 184.48,244.27 182.46,247.53 C181.71,248.76 182.27,249.77 183.7,249.79 C185.73,249.81 185.69,250.21 183.53,251.58 C182,252.55 181.26,254.7 181.89,256.35 C183.55,260.65 179.01,266.09 175.57,263.93 ZM158.72,258.46 C155.89,255.63 157.49,251.75 161.49,251.75 C164.28,251.75 165.42,252.84 164.99,255.08 C164.27,258.76 160.86,260.6 158.72,258.46 ZM194.17,235.55 C192.58,232.97 196.73,229.85 201.8,229.81 C206.05,229.77 206.22,231.14 202.45,234.91 C199.02,238.34 196.04,238.57 194.17,235.55 ZM245.26,267.87 C245.26,266.77 246.6,266.38 248.24,267.01 C249.94,267.66 251.75,266.78 252.45,264.95 C254.02,260.85 258.07,260.86 262.18,264.96 C264.67,267.45 267.46,267.86 274.64,266.78 C281.08,265.82 283.04,264.86 281.09,263.66 C279.07,262.41 279.67,262 283.25,262.19 C285.98,262.33 289.34,263.3 290.72,264.34 C293.49,266.44 293.81,265.61 292.01,260.92 C291.34,259.19 290.09,258.21 289.22,258.75 C288.35,259.28 287.12,258.38 286.49,256.74 C284.89,252.57 290.95,252.89 295.74,257.22 C299.01,260.19 313.19,262.37 313.19,259.9 C313.2,257.89 306.36,251.75 304.11,251.75 C300.88,251.75 298.58,245.78 301.77,245.7 C303.11,245.67 302.63,244.72 300.71,243.6 C298.78,242.48 297.21,240.29 297.21,238.74 C297.21,236.39 289.35,230.34 287.72,231.44 C284.56,233.57 279.23,231.07 279.23,227.44 C279.23,225.06 279.81,223.7 280.53,224.42 C281.25,225.13 283.07,224.16 284.59,222.25 C287.11,219.08 287.29,219.21 286.78,223.76 C286.46,226.61 287.29,228.85 288.72,229 C290.09,229.15 292.05,229.39 293.07,229.53 C294.09,229.66 296.12,230.9 297.57,232.28 C299.02,233.65 303.8,236.48 308.2,238.57 C312.6,240.65 317.99,243.28 320.19,244.42 C322.39,245.56 326.77,247.8 329.94,249.4 C333.1,251 336.1,253.88 336.61,255.81 C337.57,259.5 346.48,259.48 360.15,255.76 C363.45,254.87 371.61,253 378.29,251.61 C389.98,249.18 390.35,248.92 388.28,244.44 C387.09,241.89 384.95,239.79 383.51,239.78 C382.07,239.77 381.39,238.97 381.99,237.99 C382.59,237.02 381.29,235.76 379.11,235.18 C376.92,234.61 375.13,232.68 375.13,230.89 C375.13,228.31 374.35,228.06 371.32,229.68 C368.58,231.14 365.18,230.9 359.33,228.84 C354.84,227.25 351.16,226.4 351.16,226.94 C351.16,227.48 349.36,226.96 347.16,225.78 C344.96,224.6 343.17,222.74 343.17,221.64 C343.17,220.34 344.54,220.38 347.09,221.74 C349.24,222.9 353.52,224.17 356.58,224.58 C359.64,224.99 363.6,225.92 365.38,226.66 C367.65,227.6 368.95,226.72 369.74,223.69 C370.74,219.87 370.2,219.47 365.01,220.23 C361.79,220.7 359.15,220.87 359.15,220.6 C359.15,217.85 361.96,214.06 363.36,214.92 C364.34,215.53 365.14,214.62 365.14,212.91 C365.14,211.2 366.72,209.81 368.64,209.83 C371.22,209.85 371.47,210.28 369.56,211.49 C367.9,212.54 369.15,213.13 373.07,213.13 C380.29,213.13 389.48,217.6 387.8,220.3 C387.1,221.44 388.37,221.66 390.92,220.85 C393.74,219.95 395.03,220.29 394.67,221.82 C393.62,226.28 400.5,228.88 406.92,226.46 C411.61,224.69 413.7,224.83 416.97,227.11 C420.8,229.8 421.09,229.65 421.09,225.06 C421.09,221.29 418.72,218.67 411.01,213.92 C405.46,210.51 401.47,206.84 402.13,205.76 C402.8,204.68 401.94,203.69 400.23,203.55 C394.51,203.09 393.46,202.81 392,201.35 C389.32,198.68 396.67,197.5 403.79,199.46 C413.34,202.1 415.65,197.17 406.48,193.71 C398.35,190.65 383.33,189.39 387.32,192.11 C389.48,193.59 389.2,193.87 386.12,193.34 C383.8,192.94 382.24,191.23 382.41,189.24 C382.58,187.12 381.25,185.82 378.91,185.82 C376.83,185.82 375.13,187.09 375.13,188.64 C375.13,192.07 361.73,194.69 353.48,192.88 C348.85,191.87 345.91,193 338.45,198.7 C328.22,206.51 327.14,206.29 333.3,197.63 C335.57,194.45 336.94,191.05 336.34,190.09 C335.74,189.12 338.8,188.42 343.13,188.54 C348.82,188.69 352.12,187.54 355.05,184.39 C359.11,180.04 359.11,180.04 350.64,180.32 C345.98,180.48 341.41,181.55 340.5,182.71 C339.53,183.93 339.24,182.91 339.82,180.28 C340.61,176.67 339.52,175.14 334.5,172.82 C331.02,171.22 325.05,168.09 321.22,165.88 C314.05,161.72 303.21,160.41 303.21,163.69 C303.21,164.71 304.78,165.96 306.7,166.46 C308.79,167 307.91,167.47 304.54,167.6 C300.94,167.75 299.2,168.75 299.76,170.33 C300.24,171.71 302.11,172.71 303.92,172.55 C305.72,172.4 307.2,173.52 307.2,175.05 C307.2,178.74 298.31,178.64 294.59,174.92 C292.04,172.37 291.24,172.49 288.19,175.86 C284.83,179.57 284.9,179.8 290.01,181.74 C292.93,182.85 296.42,184.68 297.76,185.81 C299.11,186.94 302.73,189.75 305.81,192.06 C308.89,194.37 311,196.67 310.5,197.17 C309.08,198.6 293.21,189.97 293.21,187.78 C293.21,186.7 291.47,185.82 289.34,185.82 C287.2,185.82 284.9,184.91 284.21,183.8 C283.49,182.64 275.94,182 266.3,182.3 C256.96,182.59 250.64,183.53 251.94,184.45 C253.23,185.36 252.04,185.52 249.26,184.82 C245.41,183.85 244.95,184.04 247.26,185.66 C249.65,187.33 249.03,187.78 244.26,187.86 C238.27,187.96 238.27,187.96 243.07,190.62 C247.47,193.06 251.25,193.04 259.19,190.53 C261.78,189.71 261.78,189.38 259.19,187.74 C256.72,186.18 256.81,185.87 259.75,185.85 C261.67,185.83 263.36,186.72 263.49,187.82 C263.63,188.92 263.87,190.94 264.02,192.31 C264.22,194.07 268,194.66 276.88,194.32 C284.73,194.01 288.99,194.56 288.23,195.79 C286.78,198.14 292.68,204.6 298.05,206.55 C300.24,207.34 302.5,206.95 303.31,205.63 C304.29,204.04 306.1,204.7 309.14,207.74 C311.56,210.16 316.84,213.59 320.86,215.37 C327.41,218.26 327.7,218.67 323.58,219.34 C321.04,219.75 317.53,218.9 315.78,217.44 C314.02,215.98 310.82,215.09 308.67,215.45 C306.27,215.86 305.28,215.28 306.1,213.95 C306.84,212.77 306.48,211.79 305.32,211.79 C304.16,211.79 303.21,212.75 303.21,213.91 C303.21,215.07 302.21,215.41 300.99,214.66 C299.41,213.68 299.46,212.87 301.18,211.81 C304.54,209.74 295.44,207.64 289.16,209.04 C285.27,209.91 284.86,209.69 287.22,208 C289.88,206.1 289.88,205.85 287.22,205.8 C284.56,205.74 284.56,205.52 287.22,203.8 C290.62,201.6 288.34,201.29 281.75,203.06 C279.29,203.72 277.76,205.04 278.35,206 C278.94,206.95 276.6,207.17 273.14,206.48 C267.07,205.27 266.94,205.38 269.54,209.61 C271.73,213.19 273.45,213.78 278.73,212.81 C286.87,211.31 288.55,218.87 280.53,220.89 C276.05,222.01 275.92,222.55 277.65,232.06 C280.71,248.93 280.17,249.22 262.65,239.98 C242.79,229.52 239.84,229.7 251.76,240.67 C262.37,250.44 264.28,254.19 255.44,247.89 C248.57,243 246.41,242.67 247.98,246.76 C249.31,250.22 246.17,250.85 244.12,247.53 C242.25,244.5 224.38,246.36 220.88,249.95 C217.05,253.87 207.3,266.91 207.3,268.1 C207.3,268.65 215.84,269.27 226.28,269.48 C237.92,269.73 245.26,269.1 245.26,267.87 Z" style="fill:#000000;" />
		</g>
	</g>
</svg>